<?xml version="1.0" encoding="UTF-8" standalone="no"?>
<!-- Created with Inkscape (http://www.inkscape.org/) -->

<svg
   width="40.467999mm"
   height="128.5mm"
   viewBox="0 0 25.292499 80.3125"
   version="1.1"
   id="svg1"
   sodipodi:docname="AMFMAnalyzer.svg"
   inkscape:version="1.4 (86a8ad7, 2024-10-11)"
   xmlns:inkscape="http://www.inkscape.org/namespaces/inkscape"
   xmlns:sodipodi="http://sodipodi.sourceforge.net/DTD/sodipodi-0.dtd"
   xmlns:xlink="http://www.w3.org/1999/xlink"
   xmlns="http://www.w3.org/2000/svg"
   xmlns:svg="http://www.w3.org/2000/svg">
  <sodipodi:namedview
     id="namedview1"
     pagecolor="#ffffff"
     bordercolor="#000000"
     borderopacity="0.25"
     inkscape:showpageshadow="2"
     inkscape:pageopacity="0.0"
     inkscape:pagecheckerboard="0"
     inkscape:deskcolor="#d1d1d1"
     inkscape:document-units="mm"
     showgrid="true"
     inkscape:zoom="4.6997838"
     inkscape:cx="76.173717"
     inkscape:cy="429.27507"
     inkscape:window-width="1920"
     inkscape:window-height="1009"
     inkscape:window-x="-8"
     inkscape:window-y="-8"
     inkscape:window-maximized="1"
     inkscape:current-layer="layer1">
    <inkscape:grid
       id="grid1"
       units="mm"
       originx="0"
       originy="0"
       spacingx="0.99999995"
       spacingy="1"
       empcolor="#0099e5"
       empopacity="0.30196078"
       color="#0099e5"
       opacity="0.14901961"
       empspacing="5"
       enabled="true"
       visible="true" />
  </sodipodi:namedview>
  <defs
     id="defs1">
    <linearGradient
       id="linearGradient6"
       inkscape:collect="always">
      <stop
         style="stop-color:#ffaa01;stop-opacity:1;"
         offset="0"
         id="stop6" />
      <stop
         style="stop-color:#ffaa01;stop-opacity:0;"
         offset="1"
         id="stop7" />
    </linearGradient>
    <inkscape:path-effect
       effect="bspline"
       id="path-effect103"
       is_visible="true"
       lpeversion="1.3"
       weight="33.333333"
       steps="2"
       helper_size="0"
       apply_no_weight="true"
       apply_with_weight="true"
       only_selected="false"
       uniform="false" />
    <inkscape:path-effect
       effect="bspline"
       id="path-effect103-2"
       is_visible="true"
       lpeversion="1.3"
       weight="33.333333"
       steps="2"
       helper_size="0"
       apply_no_weight="true"
       apply_with_weight="true"
       only_selected="false"
       uniform="false" />
    <linearGradient
       inkscape:collect="always"
       xlink:href="#linearGradient6"
       id="linearGradient7"
       x1="8.8392582"
       y1="37.668255"
       x2="16.339258"
       y2="37.668255"
       gradientUnits="userSpaceOnUse" />
    <linearGradient
       inkscape:collect="always"
       xlink:href="#linearGradient6"
       id="linearGradient8"
       gradientUnits="userSpaceOnUse"
       x1="8.8392582"
       y1="37.668255"
       x2="16.339258"
       y2="37.668255"
       gradientTransform="translate(0.09042934,2.4619531)" />
    <linearGradient
       inkscape:collect="always"
       xlink:href="#linearGradient6"
       id="linearGradient9"
       gradientUnits="userSpaceOnUse"
       x1="8.8392582"
       y1="37.668255"
       x2="16.339258"
       y2="37.668255"
       gradientTransform="translate(0.09042934,2.4619531)" />
  </defs>
  <g
     inkscape:label="Layer 1"
     inkscape:groupmode="layer"
     id="layer1"
     style="fill:#000000;fill-opacity:1">
    <rect
       style="opacity:1;fill:#181818;fill-opacity:1;fill-rule:evenodd;stroke-width:0.1653"
       id="rect1"
       width="25.178246"
       height="80.415497"
       x="0.15983626"
       y="0.12916757"
       transform="matrix(0.99999955,-9.5381775e-4,0.00183596,0.99999831,0,0)" />
    <rect
       style="fill:#ff051e;fill-opacity:0.992157;fill-rule:evenodd;stroke-width:0.127023"
       id="rect2-6"
       width="12.913104"
       height="0.28148457"
       x="6.1184897"
       y="75.06868" />
    <rect
       style="fill:#ff051e;fill-opacity:0.992157;fill-rule:evenodd;stroke-width:0.127023"
       id="rect2"
       width="12.913104"
       height="0.28148457"
       x="6.0541553"
       y="9.0670872" />
    <circle
       style="opacity:0.5;fill:url(#linearGradient9);fill-opacity:1;fill-rule:evenodd;stroke-width:0.165365"
       id="path5-16"
       cx="12.480649"
       cy="67.498161"
       r="3.75" />
    <circle
       style="opacity:0.5;fill:url(#linearGradient8);fill-opacity:1;fill-rule:evenodd;stroke-width:0.165365"
       id="path5-1"
       cx="12.480649"
       cy="52.470665"
       r="3.75" />
    <path
       d="m 5.9564335,6.1942982 q 0,0.025838 -0.024116,0.036174 l -0.056844,-0.018948 -0.063734,0.049954 -0.07407,-0.010335 q -0.044786,0.031006 -0.098185,0.031006 -0.041341,0 -0.053399,0.018948 -0.043064,-0.018948 -0.08096,-0.018948 -0.036173,0 -0.046509,0.025838 0.00689,0.017225 0.025838,0.031006 l -0.010335,0.036174 0.010335,0.1188558 0.044786,0.067179 0.00861,0.063734 0.077515,0.1136883 -0.012058,0.051676 0.053399,0.049954 0.08096,0.1378039 q 0.063734,0.07407 0.07407,0.1050754 l 0.063734,0.032728 0.024116,0.055122 0.025838,0.018948 -0.046509,0.034451 -0.056844,-0.044786 H 5.7876238 L 5.7411149,7.1434227 H 5.706664 L 5.6739355,7.0831334 5.6394846,7.065908 Q 5.5981434,6.9832256 5.5481895,6.9349942 v -0.034451 l -0.032729,-0.029283 -0.00345,-0.055122 -0.053399,-0.056844 -0.07407,-0.1774226 -0.024116,-0.031006 -0.012058,-0.08785 q -0.00172,-0.01378 -0.044786,-0.08096 v -0.07407 h -0.041341 l -0.046509,0.031006 -0.070625,-0.01378 -0.048231,0.031006 -0.018948,-0.017225 -0.037896,0.024116 -0.010335,-0.024116 q -0.00861,0 -0.036174,0.010335 -0.025838,0.010335 -0.056844,0.010335 l -0.044786,-0.00345 h -0.060289 l -0.060289,0.039619 -0.063734,-0.01378 -0.08785,0.00689 v 0.017225 L 4.5887298,6.3889463 4.545666,6.4130619 4.5146602,6.3889463 H 4.457816 l -0.056844,0.024116 -0.046509,-0.049954 -0.024116,0.018948 -0.049954,-0.018948 q -0.058567,0.025838 -0.1619196,0.1808677 l -0.056844,0.01378 Q 3.9203808,6.7747972 3.9100455,6.7765197 l -0.031006,0.017226 -0.098185,0.1274687 h -0.018948 l -0.084405,0.1378039 -0.091295,0.056844 -0.070625,-0.018948 0.01378,-0.031006 V 7.015954 l 0.025838,-0.031006 -0.012058,-0.024116 0.063734,-0.00861 0.043064,-0.024116 q 0.056844,-0.024116 0.070625,-0.08785 0.072347,-0.018948 0.084405,-0.08096 0.084405,-0.048231 0.1136882,-0.1584745 l 0.048231,-0.018948 0.1136882,-0.1757 v -0.049954 q -0.024116,-0.018948 -0.036174,-0.051676 l 0.067179,-0.060289 v -0.025838 l 0.08096,0.00861 0.046509,-0.029283 0.010335,0.01378 0.046509,-0.062012 q -0.015503,-0.00345 -0.015503,-0.015503 0,-0.00861 0.049954,-0.041341 l 0.01378,0.02067 q 0.00345,-0.043064 0.036174,-0.1016303 l -0.010335,-0.00689 0.041341,-0.00345 0.01378,-0.046509 q 0.043064,-0.00517 0.043064,-0.036174 v -0.041341 q 0.084405,-0.072347 0.084405,-0.1343588 v -0.00689 l 0.046509,-0.00689 0.010335,-0.049954 0.024116,-0.00689 0.036173,-0.07407 0.024116,0.017225 -0.017226,-0.037896 q 0.051677,-0.00517 0.056844,-0.067179 l 0.024116,0.01378 v -0.070625 h 0.024116 v -0.049954 q 0.00689,-0.00689 0.039619,-0.034451 0.032729,-0.029283 0.041341,-0.077515 L 4.9022336,5.252064 4.878118,5.1969424 q 0.048231,-0.063734 0.091295,-0.063734 h 0.00689 l 0.020671,-0.032728 0.024116,0.036173 q 0.00861,0.010335 0.031006,0.022393 l 0.058567,0.029283 0.00689,0.089573 q 0.024116,0.020671 0.044786,0.070625 l 0.029283,0.010335 0.00689,0.077515 0.027561,0.1050755 0.046509,0.08096 0.031006,0.1136882 0.00689,0.07407 0.049954,0.067179 -0.01378,0.027561 0.037896,0.043064 v 0.053399 l 0.00861,0.048231 q 0,0.01378 -0.015503,0.036174 0.053399,0.125746 0.1240235,0.125746 l 0.067179,-0.01378 h 0.08096 q 0.037896,0.010335 0.063734,0.010335 0.044786,0 0.068902,-0.020671 0.025838,-0.02067 0.032728,-0.02067 0.010335,0 0.063734,0.031006 z M 5.286362,6.1064482 q -0.022393,-0.058567 -0.056844,-0.077515 l 0.018948,-0.049954 -0.046509,-0.024116 -0.01378,-0.1343588 -0.043064,-0.067179 -0.00689,-0.056844 -0.024116,-0.048231 v -0.018948 h -0.010335 l -0.00689,-0.075792 q 0,-0.012058 -0.018948,-0.037896 l -0.024116,-0.037896 q -0.00689,-0.010335 -0.029283,-0.025838 -0.020671,-0.015503 -0.065457,-0.036174 l -0.039619,0.020671 -0.024116,0.041341 -0.084405,0.1205784 -0.020671,0.039619 q -0.00861,0.017225 -0.082682,0.091295 l -0.01378,0.056844 -0.07407,0.037896 Q 4.5938974,5.958309 4.5146602,5.9789796 l -0.032729,0.1067981 -0.070624,0.027561 v 0.036174 l -0.010335,0.044786 q 0.062012,0.018948 0.08785,0.036174 l 0.043064,-0.00345 0.070625,0.017226 q 0.020671,0.00689 0.031006,0.00689 0.015503,0 0.049954,-0.00689 0.00345,-0.00345 0.01378,-0.00345 0.00517,0 0.025838,0.00689 0.022393,0.00689 0.041341,0.00689 l 0.046509,-0.010335 0.1378039,-0.010335 0.1119656,-0.015503 q 0.1085206,0.015503 0.1378039,0.015503 0.08096,0 0.08096,-0.036174 0,-0.022393 -0.031006,-0.060289 z m 3.1712127,-0.5288225 -0.044786,0.070625 0.00689,0.055122 0.017226,-0.00689 q 0,0.024116 -0.024116,0.08096 l -0.02067,0.046509 v 0.1808677 l -0.036174,0.08096 0.00689,0.051676 -0.031006,0.1601971 0.01378,0.041341 -0.027561,0.1274687 0.00689,0.056844 -0.025838,0.091295 0.025838,0.08785 -0.056844,0.08785 0.01378,0.049954 -0.031006,0.060289 0.017225,0.034451 0.01378,0.1653647 0.024116,0.053399 q -0.025838,0.017226 -0.037896,0.043064 l -0.032728,-0.00689 -0.017226,-0.1739775 -0.024116,-0.00689 q -0.00345,-0.031006 -0.00517,-0.062012 0,-0.032728 -0.00172,-0.063734 v -0.068902 q 0,-0.037896 -0.010335,-0.056844 l -0.022393,-0.044786 -0.067179,-0.010335 -0.037896,-0.046509 -0.017225,0.022393 -0.032728,-0.039619 -0.056844,0.017226 -0.068902,-0.055122 -0.036174,0.00689 -0.070625,-0.01378 -0.041341,-0.043064 -0.025838,0.00689 L 7.4843346,6.4199521 7.4602189,6.3889463 7.3861493,6.3562178 7.3396405,6.2976512 7.2982993,6.275258 7.2414552,6.2184139 7.0829807,6.149512 6.9692925,6.0048179 6.9210611,6.0013728 6.8952229,5.9617541 Q 6.8469915,5.9410836 6.7832572,5.867014 h 0.017225 q -0.032728,-0.029283 -0.056844,-0.08096 l -0.024116,-0.00861 h -0.00689 q -0.037896,0 -0.049954,0.024116 -0.010335,0.024116 -0.024116,0.1033529 l -0.032728,0.1808677 0.032728,0.1085205 -0.049954,0.1808677 q 0.020671,0.1085205 0.020671,0.1188558 v 0.01378 q 0,0.043064 -0.022393,0.068902 -0.022393,0.025838 -0.022393,0.037896 0,0.00861 0.044786,0.024116 l -0.020671,0.07407 v 0.08785 l -0.017225,0.096463 0.017225,0.037896 -0.017225,0.025838 q -0.00689,0.1050755 -0.046509,0.1653647 h -0.024116 q -0.043064,0 -0.043064,-0.067179 v -0.01378 l 0.043064,-0.1378039 -0.017226,-0.056844 0.024116,-0.07407 -0.024116,-0.027561 0.027561,-0.056844 -0.039619,-0.053399 q 0.00861,-0.041341 0.00861,-0.067179 0,-0.027561 -0.00861,-0.077515 l 0.015503,0.00689 0.01378,-0.034451 -0.029283,-0.053399 0.029283,-0.08096 -0.017226,-0.1050754 0.024116,-0.1136883 -0.020671,-0.077515 0.024116,-0.1688097 -0.00345,-0.1309138 0.017226,-0.1205784 -0.017226,-0.037896 0.00345,-0.1705323 0.039619,-0.010335 q -0.046509,-0.044786 -0.046509,-0.08096 0,-0.020671 0.020671,-0.037896 l 0.063734,0.01378 0.017226,-0.024116 q 0.032728,0.025838 0.032728,0.055122 0,0.020671 -0.018948,0.049954 h 0.049954 l 0.00689,0.08096 0.043064,0.036174 0.00689,0.051676 0.056844,0.036173 0.018948,0.072347 q 0.010335,0.041341 0.036174,0.062012 l 0.1171333,0.084405 v 0.00689 q 0,0.027561 0.036174,0.063734 l 0.08096,0.055122 0.08785,0.1033529 0.2756078,0.229099 h 0.031006 q 0.037896,0.031006 0.048231,0.056844 0.010335,0.025838 0.018948,0.027561 l 0.1119657,0.036174 0.089573,0.07407 0.051677,0.017225 0.099908,0.056844 0.09474,0.027561 q 0.08785,0.08785 0.1481392,0.08785 l 0.053399,-0.01378 h 0.010335 l 0.00689,-0.098185 0.049954,-0.1067981 -0.025838,-0.024116 0.010335,-0.1653647 0.039619,-0.060289 -0.00517,-0.039619 q -0.00172,-0.017226 -0.034451,-0.070625 L 8.2749845,5.9221355 8.2577591,5.7929444 8.29221,5.5414522 l -0.041341,-0.044786 0.048231,-0.1446941 -0.017226,-0.018948 0.024116,-0.031006 -0.00689,-0.024116 0.053399,-0.025838 0.010335,0.025838 0.049954,-0.010335 q -0.010335,0.036174 -0.010335,0.065457 0,0.034451 0.017225,0.062012 0.017226,0.025838 0.017226,0.034451 l -0.024116,0.067179 z M 11.1103,6.1942982 q 0,0.025838 -0.02412,0.036174 l -0.05684,-0.018948 -0.06373,0.049954 -0.07407,-0.010335 q -0.04479,0.031006 -0.09819,0.031006 -0.04134,0 -0.0534,0.018948 -0.04306,-0.018948 -0.08096,-0.018948 -0.03617,0 -0.04651,0.025838 0.0069,0.017225 0.02584,0.031006 l -0.01033,0.036174 0.01033,0.1188558 0.04479,0.067179 0.0086,0.063734 0.07752,0.1136883 -0.01206,0.051676 0.0534,0.049954 0.08096,0.1378039 q 0.06373,0.07407 0.07407,0.1050754 l 0.06373,0.032728 0.02412,0.055122 0.02584,0.018948 -0.04651,0.034451 -0.05684,-0.044786 h -0.03445 l -0.04651,-0.036173 h -0.03445 l -0.03273,-0.060289 -0.03445,-0.017225 q -0.04134,-0.082682 -0.09129,-0.1309138 v -0.034451 l -0.03273,-0.029283 -0.0034,-0.055122 -0.0534,-0.056844 -0.07407,-0.1774226 -0.02412,-0.031006 -0.01206,-0.08785 q -0.0017,-0.01378 -0.04479,-0.08096 v -0.07407 h -0.04134 l -0.04651,0.031006 -0.07063,-0.01378 -0.04823,0.031006 -0.01895,-0.017225 -0.0379,0.024116 -0.01034,-0.024116 q -0.0086,0 -0.03617,0.010335 -0.02584,0.010335 -0.05684,0.010335 l -0.04479,-0.00345 h -0.06029 l -0.060289,0.039619 -0.063734,-0.01378 -0.08785,0.00689 v 0.017225 l -0.031006,-0.017225 -0.043064,0.024116 -0.031006,-0.024116 H 9.6116822 L 9.5548381,6.4130619 9.5083293,6.363108 9.4842136,6.3820561 9.4342597,6.363108 Q 9.375693,6.3889463 9.2723401,6.5439757 L 9.215496,6.557756 Q 9.074247,6.7747972 9.0639117,6.7765197 l -0.031006,0.017226 -0.098185,0.1274687 h -0.018948 l -0.084405,0.1378039 -0.091295,0.056844 -0.070625,-0.018948 0.01378,-0.031006 V 7.015954 l 0.025838,-0.031006 -0.012058,-0.024116 0.063734,-0.00861 0.043064,-0.024116 q 0.056844,-0.024116 0.070624,-0.08785 0.072347,-0.018948 0.084405,-0.08096 0.084405,-0.048231 0.1136882,-0.1584745 l 0.048231,-0.018948 0.1136882,-0.1757 v -0.049954 q -0.024116,-0.018948 -0.036174,-0.051676 l 0.067179,-0.060289 v -0.025838 l 0.08096,0.00861 0.046509,-0.029283 0.010335,0.01378 0.046509,-0.062012 q -0.015503,-0.00345 -0.015503,-0.015503 0,-0.00861 0.049954,-0.041341 l 0.01378,0.02067 q 0.00345,-0.043064 0.036174,-0.1016303 l -0.010335,-0.00689 0.041341,-0.00345 0.01378,-0.046509 q 0.043064,-0.00517 0.043064,-0.036174 v -0.041341 q 0.084405,-0.072347 0.084405,-0.1343588 v -0.00689 l 0.046509,-0.00689 0.010335,-0.049954 0.024116,-0.00689 0.036174,-0.07407 0.024116,0.017225 -0.017225,-0.037896 q 0.051676,-0.00517 0.056844,-0.067179 l 0.024116,0.01378 v -0.070625 h 0.024116 v -0.049954 q 0.00689,-0.00689 0.039619,-0.034451 0.032728,-0.029283 0.041341,-0.077515 l 0.03962,-0.039619 -0.02412,-0.055122 q 0.04823,-0.063734 0.0913,-0.063734 h 0.0069 l 0.02067,-0.032728 0.02412,0.036173 q 0.0086,0.010335 0.03101,0.022393 l 0.05857,0.029283 0.0069,0.089573 q 0.02412,0.020671 0.04479,0.070625 l 0.02928,0.010335 0.0069,0.077515 0.02756,0.1050755 0.04651,0.08096 0.03101,0.1136882 0.0069,0.07407 0.04995,0.067179 -0.01378,0.027561 0.0379,0.043064 v 0.053399 l 0.0086,0.048231 q 0,0.01378 -0.0155,0.036174 0.0534,0.125746 0.124024,0.125746 l 0.06718,-0.01378 h 0.08096 q 0.0379,0.010335 0.06373,0.010335 0.04479,0 0.0689,-0.020671 0.02584,-0.02067 0.03273,-0.02067 0.01033,0 0.06373,0.031006 z m -0.670072,-0.08785 q -0.02239,-0.058567 -0.05684,-0.077515 l 0.01895,-0.049954 -0.04651,-0.024116 -0.01378,-0.1343588 -0.04306,-0.067179 -0.0069,-0.056844 -0.02412,-0.048231 v -0.018948 h -0.01033 l -0.0069,-0.075792 q 0,-0.012058 -0.01895,-0.037896 l -0.02412,-0.037896 q -0.0069,-0.010335 -0.02928,-0.025838 -0.02067,-0.015503 -0.06546,-0.036174 l -0.03962,0.020671 -0.02412,0.041341 -0.084405,0.1205784 -0.020671,0.039619 q -0.00861,0.017225 -0.082682,0.091295 l -0.01378,0.056844 -0.07407,0.037896 Q 9.7477636,5.958309 9.6685263,5.9789796 l -0.032728,0.1067981 -0.070624,0.027561 v 0.036174 l -0.010335,0.044786 q 0.062012,0.018948 0.08785,0.036174 l 0.043064,-0.00345 0.070624,0.017226 q 0.020671,0.00689 0.031006,0.00689 0.015503,0 0.049954,-0.00689 0.00345,-0.00345 0.01378,-0.00345 0.00517,0 0.025838,0.00689 0.022393,0.00689 0.041341,0.00689 l 0.046509,-0.010335 0.1378043,-0.010335 0.111965,-0.015503 q 0.108521,0.015503 0.137804,0.015503 0.08096,0 0.08096,-0.036174 0,-0.022393 -0.03101,-0.060289 z m 2.931778,0.6528461 h 0.03273 q 0.04134,0 0.04134,0.020671 0,0.036174 -0.06718,0.036174 -0.0034,0 -0.02239,0.01378 -0.01895,0.01378 -0.04479,0.017226 l -0.125746,0.017225 h -0.08096 l -0.03445,0.022393 q -0.01895,0.01378 -0.04134,0.015503 l -0.05857,0.00517 -0.02928,0.027561 -0.165365,0.00689 -0.09474,0.046509 q -0.07407,0.00517 -0.09474,0.037896 -0.04479,0 -0.09302,-0.017226 l -0.07407,0.025838 -0.08441,0.00345 -0.07752,0.027561 h -0.186035 l -0.117133,-0.031006 -0.07407,0.00689 -0.02756,-0.025838 -0.06718,-0.00689 -0.106798,-0.1085205 q -0.0689,-0.07407 -0.09474,-0.2118735 -0.01034,-0.053399 -0.04306,-0.1309138 l 0.02928,-0.1205784 -0.01378,-0.1223009 0.02412,-0.017226 0.0034,-0.1705324 0.01895,-0.049954 q 0.0086,-0.024116 0.01895,-0.1154108 l 0.02584,-0.017225 -0.02239,-0.039619 V 5.7033718 q 0.04134,-0.068902 0.03962,-0.098185 l -0.0034,-0.1205784 0.05684,-0.068902 -0.0534,-0.036174 0.02067,-0.063734 0.03962,-0.020671 -0.02067,-0.056844 0.04479,-0.017226 0.01034,-0.032728 0.02584,-0.00689 0.0379,0.00689 0.04306,0.099908 q -0.05684,0.044786 -0.05684,0.070625 0,0.00345 -0.0034,0.00689 0,0.00689 0.01895,0.01378 0.01895,0.00689 0.02239,0.017225 l -0.0379,0.1136882 v 0.1309138 l -0.03617,0.1154107 -0.01033,0.1136882 -0.05512,0.2463245 0.01723,0.024116 -0.01378,0.032728 q -0.0069,0.017226 -0.01895,0.084405 -0.01033,0.065457 -0.01033,0.07407 l 0.01033,0.1050755 -0.01378,0.039619 0.02928,0.1584745 -0.0034,0.01378 0.05512,0.1274686 v 0.039619 l 0.177422,0.1119656 0.137804,0.01378 v 0.010335 l 0.129191,-0.00689 0.134359,-0.024116 h 0.09991 v 0.01378 l 0.0379,-0.034451 0.187758,-0.00345 0.04479,-0.029283 0.130914,-0.00689 0.06029,-0.017225 0.222209,-0.01378 0.09474,-0.029283 q 0.02756,0.00689 0.06718,0.00689 0.03962,0 0.03962,-0.024116 v -0.00689 q 0.03101,0 0.04823,-0.017225 z m 0.616673,-1.4676117 -0.01378,0.00345 -0.02067,0.053399 0.02067,0.010335 -0.01034,0.077515 q -0.01033,0.015503 -0.01033,0.034451 l 0.01033,0.046509 v 0.043064 l -0.01722,0.017225 0.01722,0.020671 -0.02584,0.063734 0.0086,0.060289 -0.05684,0.1119657 0.01378,0.00689 q -0.0069,0.017226 -0.0069,0.043064 l 0.0069,0.053399 v 0.00689 l -0.03962,0.017225 0.03962,0.08785 h -0.02412 l 0.01034,0.032729 -0.02584,0.044786 0.03273,0.060289 -0.0069,0.024116 h -0.01723 q -0.01206,0 -0.01206,0.022393 0,0.039619 0.04306,0.067179 -0.03445,0.015503 -0.0379,0.098185 l -0.0052,0.037896 0.01895,0.056844 -0.01895,0.043064 0.0034,0.1309137 -0.01723,0.091295 0.03617,0.017225 q -0.0069,0.036174 -0.01723,0.053399 -0.0086,0.015503 -0.0086,0.031006 0,0.029283 0.03617,0.07407 l -0.02412,0.00689 0.04479,0.046509 -0.01722,0.027561 0.04995,0.015503 q -0.01034,0.049954 -0.03962,0.084405 -0.03101,-0.010335 -0.03101,-0.046509 l -0.04651,-0.060289 -0.02756,-0.00689 0.01378,-0.060289 -0.05684,-0.063734 0.02412,-0.031006 -0.03445,-0.053399 0.01033,-0.07407 q -0.0069,-0.018948 -0.01378,-0.034451 l -0.01378,-0.029283 0.02756,-0.041341 -0.01378,-0.046509 0.01378,-0.031006 -0.04651,-0.036174 0.03617,-0.051676 -0.0034,-0.2377118 0.02412,-0.1825902 -0.01033,-0.1808676 0.01722,-0.048231 -0.01722,-0.01378 0.01033,-0.043064 v -0.063734 l 0.01378,-0.024116 -0.02412,-0.00689 0.01722,-0.08096 q -0.03962,0 -0.04823,-0.025838 h 0.04823 l 0.0069,-0.056844 -0.02412,-0.00689 0.01722,-0.041341 q 0.02928,-0.024116 0.02928,-0.049954 0,-0.025838 -0.02239,-0.053399 l 0.02239,-0.00689 v -0.031006 h 0.03445 l 0.02067,-0.049954 0.02928,-0.010335 q 0.08441,0 0.09818,0.056844 z m 2.943836,1.6433116 0.0379,-0.031006 0.0534,-0.1102432 0.01723,-0.1154107 0.02067,-0.029283 q 0.03617,-0.067179 0.06718,-0.067179 0.01895,0 0.03445,0.015503 0.0155,0.01378 0.0155,0.020671 l -0.0069,0.077515 -0.03617,0.1119656 -0.05512,0.1378039 q -0.02412,0.020671 -0.0379,0.062012 -0.01206,0.039619 -0.01895,0.051677 l -0.03617,0.010335 -0.01723,0.039619 q -0.0689,0.015503 -0.08441,0.062012 l -0.04306,-0.027561 -0.0379,0.010335 -0.02756,-0.02067 -0.0155,0.037896 -0.02067,-0.017226 -0.04306,0.025838 q -0.03273,-0.025838 -0.05857,-0.025838 -0.02584,0 -0.0534,0.01378 -0.0017,-0.017226 -0.07063,-0.017226 l -0.105075,0.00345 -0.09646,-0.044786 h -0.03445 l -0.01033,0.024116 -0.04651,-0.036174 -0.03962,0.025838 -0.05168,-0.039619 -0.158475,-0.01378 -0.06718,-0.027561 -0.03617,0.017226 -0.11541,-0.032729 v -0.00345 q 0,-0.010335 -0.01895,-0.010335 -0.02412,0 -0.09474,0.018948 l -0.02412,-0.022393 -0.08785,0.00689 -0.04995,-0.031006 -0.16192,-0.020671 h -0.04995 l -0.144694,-0.036174 -0.01378,0.00689 -0.01034,-0.01378 -0.0534,0.01378 -0.04651,-0.01378 -0.02756,0.031006 -0.03445,-0.015503 q -0.0155,-0.00861 -0.08613,-0.015503 l -0.01722,-0.01378 -0.0379,0.01378 -0.02239,-0.020671 -0.02756,0.020671 -0.02928,-0.01378 -0.04134,0.044786 -0.09819,0.012058 -0.08957,0.077515 -0.03101,-0.010335 h -0.03617 q -0.0052,-0.025838 -0.04134,-0.070624 v -0.043064 l 0.01378,-0.031006 q 0.06373,-0.025838 0.07062,-0.049954 l 0.09819,-0.036174 q 0.101631,-0.09474 0.134359,-0.09474 0.03101,-0.031006 0.06718,-0.037896 l 0.01034,-0.032728 h 0.02584 q 0.02412,-0.017225 0.04823,-0.055122 0.02584,-0.039619 0.02928,-0.043064 h 0.02412 l 0.0069,-0.036174 q 0.05684,0 0.07751,-0.031006 0.02067,-0.032729 0.04995,-0.032729 h 0.0069 q 0.01378,-0.00345 0.01378,-0.041341 0.02412,0 0.04651,-0.01378 l 0.05168,-0.067179 q 0.01206,-0.01378 0.03962,-0.027561 l 0.06718,-0.032729 0.0069,-0.056844 q 0.06718,-0.060289 0.08441,-0.060289 h 0.02067 l 0.07407,-0.09474 0.03101,-0.00517 q 0.01206,-0.00172 0.06201,-0.041341 l 0.01378,-0.034451 0.0379,-0.01378 v -0.025838 q 0.01378,-0.01378 0.02928,-0.01378 0.0052,0 0.0155,0.00517 0.01033,0.00517 0.0155,0.00517 0.0086,0 0.01378,-0.017226 0,-0.037896 0.04651,-0.053399 v -0.024116 l 0.02412,0.010335 0.01895,-0.041341 0.03101,-0.00689 0.06373,-0.096463 0.07407,-0.048231 0.02067,-0.063734 q 0.02239,-0.00861 0.08096,-0.08096 h 0.02584 l 0.02412,-0.043064 h 0.01034 l -0.01034,-0.017225 0.03445,-0.01378 -0.0034,-0.039619 0.0034,-0.034451 h -0.105076 l -0.02412,-0.025838 q -0.02067,0.044786 -0.06718,0.049954 l -0.02584,-0.024116 -0.07752,0.010335 -0.03101,-0.010335 -0.02412,0.00345 h -0.05684 l -0.02584,-0.018948 -0.05512,0.049954 -0.02584,-0.031006 -0.01723,-0.00345 -0.04479,0.00345 q -0.02239,0.00345 -0.07063,0.00345 -0.0689,0 -0.106798,-0.00689 l -0.08096,0.031006 -0.02412,-0.020671 -0.03962,0.020671 -0.05684,-0.027561 -0.02412,0.00689 q -0.01033,0.024116 -0.02067,0.024116 -0.0069,0 -0.01723,-0.010335 -0.01033,-0.012058 -0.01895,-0.01378 l -0.02412,0.017225 -0.02412,-0.024116 -0.04995,-0.00345 -0.02756,0.031006 -0.06718,-0.027561 -0.04995,0.020671 h -0.01034 q -0.05857,0 -0.06373,-0.1343588 l 0.04651,-0.024116 q 0.02928,0.00345 0.08441,0.00345 l 0.115411,-0.00689 0.03273,0.01378 0.08441,-0.020671 0.179145,0.020671 0.03962,-0.020671 0.07407,0.00345 q -0.0034,0.00345 -0.0034,0.00689 0,0.00172 0.01033,0.00689 0.01034,0.00345 0.01378,0.01378 l 0.02928,-0.020671 q 0.03273,0.01378 0.06201,0.01378 0.03273,0 0.04651,-0.024116 0.07407,0.01378 0.222209,0.01378 l 0.04995,-0.010335 0.02756,0.01378 q 0.06718,-0.00689 0.09819,-0.00689 l 0.05685,0.00345 0.07407,-0.010335 0.09646,0.010335 0.0913,-0.01378 h 0.01723 l 0.03962,0.00345 q 0.01034,0 0.01378,-0.00689 0.02756,-0.029283 0.05168,-0.029283 0.0052,-0.01378 0.01206,-0.01378 0.01033,0 0.0379,0.00689 0.04306,0.043064 0.0534,0.106798 l -0.01378,0.024116 -0.07924,0.025838 q -0.01722,0.00517 -0.04134,0.031006 l -0.05684,0.00689 q -0.01722,0.022393 -0.01722,0.031006 0,0.012058 0.01722,0.017226 l -0.04134,0.022393 -0.06718,0.067179 -0.07062,0.051677 -0.02067,0.029283 q -0.07235,0.082682 -0.08957,0.1188559 l -0.05512,0.00689 -0.02584,0.060289 -0.05684,0.036174 v 0.020671 h -0.01723 q -0.0034,0.027561 -0.031,0.039619 -0.04995,0.00861 -0.04995,0.037896 v 0.00689 l -0.02067,0.01378 v 0.025838 q -0.07924,0.039619 -0.09129,0.062012 -0.01034,0.022393 -0.01723,0.032728 -0.0069,0.010335 -0.04651,0.020671 l -0.01895,0.046509 q -0.06718,0.025838 -0.09474,0.08096 h -0.05684 q -0.05512,0.017226 -0.07924,0.077515 -0.02412,0.060289 -0.02928,0.062012 l -0.07752,0.025838 v 0.029283 l -0.04651,0.031006 -0.08096,0.036174 -0.09129,0.1291911 -0.127468,0.077515 -0.03101,0.056844 q -0.04479,0.020671 -0.05168,0.036174 -0.0052,0.01378 -0.0052,0.020671 0,0.024116 0.02412,0.024116 h 0.04995 l 0.141249,-0.00345 0.16192,0.010335 q 0.02412,0.036174 0.05684,0.036174 0.0086,0 0.03445,-0.00689 0.04823,0.017226 0.08096,0.017226 h 0.0155 l 0.04479,-0.027561 q 0.01378,0.015503 0.02584,0.051676 h 0.03101 q 0.05684,-0.00689 0.08096,-0.00689 0.08268,0 0.130914,0.043064 l 0.04134,-0.00689 0.06718,0.020671 0.02239,-0.01378 0.03101,0.027561 0.02412,-0.01378 q 0.05168,0.00689 0.111966,0.01378 0.06029,0.00517 0.08268,0.025838 l 0.02756,0.01378 0.241157,0.00345 0.0844,0.024116 0.15503,0.00689 0.04995,0.022393 0.161919,-0.015503 q 0.118856,-0.044786 0.127469,-0.08096 z M 19.431933,5.252064 q -0.0052,0.025838 -0.01722,0.039619 h -0.0379 l -0.02584,0.017226 -0.04823,-0.017226 -0.05684,0.00345 q -0.04134,0 -0.04995,-0.012058 -0.0069,-0.012058 -0.02412,-0.012058 -0.01378,0 -0.04651,0.020671 -0.02239,-0.01378 -0.04479,-0.01378 -0.02239,0 -0.07062,0.018948 -0.04651,0.018948 -0.06718,0.018948 -0.01722,0 -0.04823,-0.00345 -0.03101,-0.00345 -0.04823,-0.00345 -0.02239,0 -0.02756,0.020671 -0.02756,-0.020671 -0.05684,-0.020671 -0.04995,0 -0.101631,0.043064 l -0.03617,-0.018948 -0.03101,0.018948 -0.08096,-0.025838 -0.05684,0.032728 h -0.06373 q -0.05684,0.01378 -0.08957,0.022393 -0.03273,0.00689 -0.08613,0.034451 l -0.03273,-0.022393 -0.06201,0.049954 -0.06374,-0.00345 -0.04651,0.084405 0.01722,0.067179 q -0.03445,0.00861 -0.03445,0.091295 l 0.0034,0.029283 -0.0034,0.07407 0.01034,0.01378 -0.02411,0.020671 0.01378,0.020671 q -0.02584,0.055122 -0.02584,0.096463 0,0.077515 0.09302,0.077515 0.01378,0 0.04306,-0.00861 0.03101,-0.00861 0.06201,0 0.03101,0.00861 0.05684,0.00861 l 0.0534,-0.022393 0.05512,0.018948 0.03617,-0.010335 0.03445,0.00345 0.0534,-0.012058 0.03101,0.00861 h 0.0086 q 0.02067,0 0.06201,-0.022393 0.03101,0.015503 0.07235,0.012058 0.04306,-0.00345 0.06201,-0.00861 l 0.04651,-0.010335 0.07751,0.01378 q 0.01034,0 0.02067,-0.020671 0.08785,0.017226 0.106798,0.017226 l 0.0379,-0.00345 0.120578,0.00689 0.06373,-0.01378 q 0.0052,-0.020671 0.04134,-0.020671 l 0.08096,0.010335 0.03273,-0.00689 0.04479,0.017225 0.04651,-0.010335 -0.01034,0.043064 q -0.06201,0.024116 -0.09129,0.024116 -0.0086,0 -0.0379,-0.00689 -0.02756,-0.00861 -0.05168,-0.010335 l -0.09129,0.044786 -0.07752,-0.00689 -0.04479,0.017226 -0.03273,-0.00689 -0.05684,0.032729 -0.0379,-0.010335 -0.141249,0.00345 q -0.02412,0 -0.04651,0.02067 l -0.04823,-0.01378 -0.02584,0.024116 -0.04479,-0.01378 -0.02584,0.024116 -0.06718,-0.031006 -0.04823,0.031006 -0.05684,-0.01378 q -0.0069,-0.00345 -0.02756,-0.00345 -0.02584,0 -0.07235,0.01378 l -0.04134,0.01378 -0.127468,0.012058 -0.02756,-0.015503 q -0.01895,0.01378 -0.106798,0.029283 l -0.02756,0.067179 0.03273,0.1825901 -0.01895,0.024116 0.02239,0.056844 -0.0034,0.063734 0.01206,0.017225 q 0.0052,0.00689 0.01895,0.103353 l 0.03101,0.034451 -0.01722,0.060289 0.03617,-0.010335 0.06374,0.098185 q 0.132636,0.103353 0.232544,0.103353 l 0.06373,0.010335 q 0.01723,0 0.07407,-0.01378 l 0.01378,-0.018948 h 0.03101 q 0.03617,0 0.04823,0 0.01378,-0.00172 0.07579,-0.041341 0.04823,0 0.05684,-0.01378 l 0.0379,-0.010335 q 0.02067,-0.00517 0.03962,-0.018948 l 0.04823,-0.037896 q 0.02067,-0.029283 0.0534,-0.056844 l 0.04651,-0.00345 0.08785,-0.077515 q 0.106798,-0.031006 0.127469,-0.1136883 l 0.02412,0.01378 0.01034,-0.055121 0.04651,-0.00345 0.0069,-0.053399 h 0.01034 q 0.03273,0 0.04651,0.041341 l -0.120578,0.156752 -0.04306,0.010335 q -0.06201,0.09474 -0.08441,0.1085205 l -0.08785,0.060289 -0.05684,0.053399 -0.02412,-0.00345 -0.04306,0.044786 -0.16192,0.067179 -0.0379,0.049954 -0.05684,-0.017226 -0.01723,0.027561 -0.0155,-0.00345 -0.02756,0.024116 -0.09474,-0.020671 -0.117133,0.053399 -0.08441,-0.032728 -0.144694,-0.07407 q -0.06201,-0.032728 -0.111966,-0.099908 -0.04823,-0.067179 -0.09991,-0.2153186 -0.04995,-0.1498618 -0.04995,-0.1636421 l 0.01206,-0.049954 -0.02584,-0.067179 0.02584,-0.031006 -0.03273,-0.191203 q -0.04651,-0.058567 -0.0534,-0.065457 -0.0069,-0.00861 -0.0069,-0.036174 0,-0.063734 0.02928,-0.077515 0.03101,-0.015503 0.03101,-0.017225 v -0.022393 q 0,-0.024116 0.03273,-0.031006 l 0.01033,-0.049954 -0.01033,-0.020671 v -0.099908 l -0.01206,-0.041341 0.03962,-0.106798 q 0.01723,-0.065457 0.02756,-0.09474 l -0.04479,-0.056844 -0.07751,0.00689 h -0.0069 q -0.01895,0 -0.03445,-0.01378 -0.0155,-0.015503 -0.0155,-0.034451 0,-0.032728 0.04651,-0.084405 0.01722,-0.00689 0.02412,-0.018948 0.06201,-0.024116 0.07062,-0.024116 0.01206,0 0.02412,0.017226 0.01034,-0.024116 0.02928,-0.024116 0.05168,0 0.05168,-0.031006 0,-0.010335 -0.01034,-0.025838 l 0.117134,0.00689 0.02067,0.039619 q 0.05512,-0.039619 0.113688,-0.039619 l 0.02412,0.00345 0.07407,-0.017226 q 0.02756,0 0.07062,-0.024116 v 0.024116 q 0.03101,-0.027561 0.08785,-0.027561 l 0.06029,0.00345 h 0.01034 l 0.335897,-0.032728 0.07751,0.032728 0.02412,-0.043064 q 0.0086,0.025838 0.02756,0.025838 0.0052,0 0.03273,-0.00861 l 0.0379,0.022393 0.02584,-0.022393 0.06373,0.025838 0.04134,-0.010335 0.02067,0.017225 0.113688,-0.010335 0.01722,0.010335 q 0.08441,0.018948 0.08785,0.031006 z m 2.812923,1.5778548 q 0.01378,0.037896 0.01378,0.048231 0,0.015503 -0.03273,0.041341 -0.03101,0.024116 -0.07235,0.058567 l -0.03962,-0.01378 -0.04651,0.070625 q -0.05684,0.00345 -0.108521,0.031006 l -0.10163,-0.024116 -0.05684,0.024116 -0.01723,0.031006 q -0.04995,-0.037896 -0.06373,-0.037896 -0.0069,0 -0.0069,0.010335 l -0.01895,-0.00345 -0.03101,0.031006 -0.03101,-0.037896 -0.02584,0.010335 q -0.02928,-0.024116 -0.05684,-0.024116 h -0.111966 l -0.03273,-0.036174 -0.0379,0.00689 -0.05684,-0.031006 -0.03445,0.017225 -0.02584,-0.041341 h -0.05168 l -0.03273,-0.039619 h -0.04134 q -0.0052,0 -0.02239,-0.025838 -0.0155,-0.025838 -0.04823,-0.044786 L 20.946055,6.7937452 Q 20.853037,6.748959 20.801361,6.6387158 h -0.04134 l -0.05684,-0.070625 -0.103353,-0.08096 -0.11541,-0.1343588 -0.03273,-0.010335 -0.0534,-0.056844 q -0.0086,-0.010335 -0.07235,-0.031006 -0.02412,0.01378 -0.04306,0.01378 -0.0155,0 -0.03445,-0.01378 v 0.00345 q 0,0.00345 -0.0069,0.00345 h -0.03617 l -0.03445,-0.049954 q 0.01895,-0.020671 0.02411,-0.070625 l 0.04306,-0.01378 v -0.020671 l 0.04479,-0.010335 q 0.02239,-0.017225 0.04306,-0.017225 0.01378,0 0.02928,0.00861 0.0155,0.00861 0.01895,0.00861 0.0052,0 0.01206,-0.010335 0.0155,0.063734 0.148139,0.063734 0.115411,0 0.179146,-0.022393 v -0.010335 l 0.265272,-0.010335 q 0.09129,-0.046509 0.192926,-0.046509 l 0.02239,0.00689 0.05857,-0.020671 0.0155,-0.020671 0.04134,0.00345 0.0534,-0.02067 h 0.0379 q 0.02928,0 0.03617,-0.00517 0.0069,-0.00689 0.0069,-0.027561 v -0.01378 q 0.04306,-0.00517 0.04306,-0.01378 0.132636,-0.034451 0.132636,-0.1171333 0,-0.039619 -0.0379,-0.077515 L 21.464542,5.6413601 h -0.02756 q -0.08096,-0.049954 -0.103353,-0.049954 h -0.03445 l -0.07062,-0.031006 h -0.04306 l -0.04479,-0.036174 h -0.08096 l -0.03273,-0.01378 -0.192925,-0.01378 -0.03273,-0.018948 -0.02067,0.012058 -0.03962,-0.012058 -0.0379,0.012058 -0.103353,-0.012058 -0.105075,0.018948 -0.05684,-0.018948 -0.06373,0.00689 -0.05512,-0.00689 -0.04306,0.018948 -0.03101,-0.012058 -0.06373,0.039619 -0.04995,-0.00689 q -0.02412,0.051677 -0.0534,0.08785 l 0.02239,0.049954 -0.01034,0.2049834 0.02412,0.1756999 q -0.0379,0.122301 -0.03962,0.1515843 l -0.02412,0.4513078 0.02756,0.2583824 -0.02067,0.1378039 v 0.034451 q 0,0.027561 -0.06718,0.027561 h -0.01378 l 0.01722,-0.1360813 -0.01722,-0.053399 -0.03101,-0.1446941 0.02067,-0.01378 q -0.04306,-0.053399 -0.04306,-0.070625 0,-0.032729 0.03962,-0.070625 l -0.02928,-0.056844 h -0.0034 q -0.0069,0 -0.0069,-0.00345 0,-0.018948 0.04306,-0.098185 -0.02412,-0.025838 -0.02412,-0.067179 l 0.01034,-0.056844 v -0.027561 q 0.02412,-0.044786 0.02412,-0.07407 0,-0.032729 -0.02412,-0.082682 l 0.02412,-0.058567 -0.01034,-0.053399 0.02067,-0.017225 q -0.01034,-0.015503 -0.01034,-0.036174 0,-0.025838 0.02411,-0.084405 l -0.03445,0.00689 -0.02067,-0.09474 0.01722,-0.067179 -0.01722,-0.1446941 0.01722,-0.017226 q -0.05512,-0.056844 -0.0844,-0.056844 h -0.01034 l -0.02584,0.024116 -0.08096,-0.00689 -0.0534,0.067179 q -0.03617,-0.029283 -0.06718,-0.034451 -0.02756,-0.036174 -0.02756,-0.056844 0,-0.017225 0.0069,-0.032728 0.0086,-0.017226 0.02756,-0.031006 l 0.04651,-0.031006 0.106798,-0.012058 0.144694,-0.00689 0.03101,-0.024116 v -0.010335 q 0,-0.053399 0.08096,-0.053399 h 0.04306 q 0.01895,0.07407 0.06373,0.07407 0.01034,0 0.07407,-0.031006 l 0.08785,0.020671 0.137804,-0.020671 0.18259,0.020671 0.258382,0.00689 0.129192,0.024116 h 0.09991 l 0.0379,0.032728 q 0.0052,-0.020671 0.02239,-0.020671 0.01378,0 0.03445,0.020671 0,0.024116 0.01378,0.041341 l 0.03617,0.00689 v -0.044786 l 0.141249,0.056844 0.04823,0.037896 0.0069,-0.010335 q 0.03101,0.018948 0.09302,0.024116 l 0.02411,0.029283 0.03101,0.00689 q 0.05684,0.08785 0.08613,0.1309138 0.03101,0.043064 0.03101,0.077515 0,0.063734 -0.05512,0.1119656 -0.0534,0.048231 -0.117133,0.1205784 l -0.03617,0.00172 -0.02756,0.00172 q -0.01033,0 -0.06029,0.024116 l -0.01378,0.029283 h -0.09991 l -0.02756,0.024116 q -0.0069,0.00689 -0.03273,0.015503 l -0.05168,0.015503 q -0.08957,0 -0.158474,0.07407 l -0.05684,-0.037896 -0.04995,0.024116 q -0.0155,-0.010335 -0.02756,-0.010335 -0.02067,0 -0.0534,0.031006 l -0.04823,-0.020671 -0.04651,0.020671 -0.01723,-0.020671 -0.06373,0.036174 -0.08441,-0.010335 q -0.02584,0 -0.0534,0.00689 l 0.03445,0.048231 0.08613,0.07407 0.02412,0.043064 0.137804,0.1050754 0.03101,0.056844 0.02239,0.025838 q 0.01034,0.010335 0.04479,0.09474 l 0.09474,0.00345 0.106798,0.1085205 0.05684,0.025838 0.07751,0.048231 0.07407,0.022393 0.105076,0.041341 0.03962,-0.00689 0.01723,0.01378 0.0069,-0.00689 0.01378,0.024116 0.04995,-0.010335 0.01033,0.036174 0.03962,-0.025838 0.04134,0.012058 0.120579,-0.012058 0.04823,0.012058 0.170532,-0.029283 0.125746,-0.034451 0.0086,0.020671 0.02412,-0.043064 h 0.0534 z"
       id="text1"
       style="font-size:3.52778px;font-family:'Bradley Hand ITC';-inkscape-font-specification:'Bradley Hand ITC, Normal';opacity:0.5;fill:#ffaa01;fill-rule:evenodd;stroke-width:0.165365"
       aria-label=" ANALIZER" />
    <path
       d="m 7.6885717,72.129386 h 0.093018 q 0.044786,-0.01378 0.055122,-0.01378 0.032728,0 0.032728,0.03273 0,0.02411 -0.036173,0.02411 h -0.01378 l -0.049954,0.02756 -0.062012,-0.02067 -0.089573,0.04995 -0.037896,-0.01895 q -0.024116,-0.01378 -0.056844,-0.01378 -0.01378,0 -0.043064,0.0069 -0.029283,0.0069 -0.044786,0.0069 h -0.00689 l -0.043064,-0.0069 -0.07407,0.02584 -0.031006,-0.0034 -0.01378,0.01034 -0.1636421,0.0034 -0.041341,-0.0069 -0.01378,0.02412 -0.056844,-0.01723 -0.037896,0.01895 q -0.018948,0.0086 -0.072347,0.0086 l -0.048231,-0.01034 q -0.036173,0 -0.068902,0.0086 -0.031006,0.0086 -0.1119656,0.0155 l -0.031006,0.03273 -0.020671,-0.0069 q -0.012058,0.0155 -0.012058,0.04823 0,0.04306 0.053399,0.163642 l -0.027561,0.08096 0.027561,0.02067 -0.027561,0.04306 q 0.027561,0.0052 0.027561,0.0379 l -0.017226,0.07062 -0.010335,0.141249 0.00689,0.0534 0.1274686,0.01723 0.09474,-0.02412 0.031006,0.01723 q 0.010335,0.0069 0.08096,0.0069 0.034451,0 0.053399,-0.02412 l 0.067179,-0.0155 0.08096,0.02928 q 0.084405,-0.01723 0.098185,-0.01723 0.020671,0 0.056844,-0.01206 l 0.043064,0.0155 0.056844,-0.0155 0.031006,0.01895 q 0.08096,-0.0034 0.093018,-0.0069 0.01378,-0.0034 0.027561,-0.0034 0.010335,0 0.031006,0.0034 0.020671,0.0034 0.027561,0.0034 0.02067,0 0.036174,-0.02239 l 0.08785,-0.01034 0.036174,0.01034 q 0.01378,-0.0069 0.024116,-0.0069 l 0.037896,0.01378 h 0.018948 l -0.00689,0.01895 q -0.039619,0.0017 -0.099908,0.04134 h -0.048231 l -0.032728,0.02239 -0.08096,-0.0086 -0.068902,0.02412 q -0.079237,0.02239 -0.106798,0.02239 l -0.056844,-0.01723 -0.01378,0.01723 -0.106798,-0.01378 -0.041341,0.02067 -0.063734,-0.0069 -0.049954,0.01206 q -0.051677,0.01206 -0.08096,0.01206 h -0.024116 q -0.022393,0 -0.056844,0.01895 l -0.039619,-0.02584 -0.017225,-0.0034 q -0.020671,0 -0.1016304,0.03617 l -0.067179,-0.01034 -0.027561,0.01034 -0.049954,-0.01034 q -0.022393,0 -0.043064,0.203261 0,0.05857 -0.00689,0.106798 0.02067,0.03962 0.01378,0.05684 l -0.037896,0.111966 0.020671,0.04306 -0.024116,0.04479 0.010335,0.05684 -0.01378,0.02756 q 0.00345,0.0069 0.00345,0.02584 0,0.04479 -0.027561,0.149862 -0.027561,0.105075 -0.049954,0.213596 l -0.039619,-0.02239 h -0.024116 l 0.00689,-0.04134 v -0.03273 l 0.017226,-0.01722 0.00344,-0.04306 q 0,-0.02067 0.025838,-0.07579 l -0.025838,-0.01895 v -0.0379 l -0.017225,-0.01723 0.027561,-0.0534 -0.031006,-0.01033 q 0.00689,-0.03101 0.018948,-0.06201 0.012058,-0.03101 0.012058,-0.0379 v -0.0069 l -0.01378,-0.01723 0.00344,-0.02411 -0.010335,-0.0534 0.020671,-0.05684 -0.010335,-0.137804 0.025838,-0.137804 -0.015503,-0.05512 v -0.06373 q 0,-0.02756 -0.027561,-0.03962 l -0.09474,0.03962 -0.070625,-0.03962 -0.067179,0.01034 q -0.00689,0.0034 -0.020671,0.0034 -0.025838,0 -0.025838,-0.04823 0,-0.04651 0.017225,-0.06718 0.017226,-0.02067 0.070625,-0.02067 0.046509,0 0.082682,0.0034 l 0.1050755,0.01034 h 0.024116 q 0.043064,0 0.056844,-0.06029 l -0.017225,-0.04651 v -0.165365 l -0.017226,-0.0034 0.01378,-0.191203 -0.039619,-0.105076 -0.00344,-0.07062 -0.098185,-0.04651 -0.08096,0.0534 -0.032729,-0.04479 q -0.031006,-0.0069 -0.037896,-0.03273 0.017226,-0.02067 0.017226,-0.0913 0.053399,0 0.089573,-0.02584 0.037896,-0.02756 0.062012,-0.02756 l 0.098185,0.01034 q 0.010335,0 0.067179,-0.0034 l 0.1739775,-0.01034 0.1188558,0.01723 0.1205785,-0.0069 q 0.015503,-0.0069 0.029283,-0.0155 0.015503,-0.0086 0.017226,-0.0086 0.00345,0 0.018948,0.0069 0.017225,0.0069 0.018948,0.0069 h 0.00689 q 0.00861,0 0.1343588,-0.02067 l 0.00345,0.02067 q 0.012058,-0.01722 0.024116,-0.01722 0.017225,0 0.039619,0.02756 l 0.024116,-0.01034 0.093018,-0.01033 h 0.00689 l 0.2067059,0.02756 q 0.049954,-0.01378 0.099908,-0.01378 0.020671,0 0.041341,0.01378 z m 3.0334083,1.870688 q -0.0086,0.01033 -0.05168,0.02412 l -0.07407,-0.04995 -0.09646,-0.118856 -0.02756,-0.07062 q -0.01034,-0.06718 -0.02756,-0.113688 -0.03962,-0.04479 -0.03962,-0.192926 0,-0.02411 0.0069,-0.03617 0.0086,-0.01206 0.01895,-0.115411 l -0.03617,-0.07407 0.01033,-0.03617 -0.01033,-0.06718 0.0034,-0.07752 -0.02412,-0.02412 0.02067,-0.0534 -0.02067,-0.03101 0.02067,-0.03273 -0.02412,-0.07407 v -0.111965 l -0.02928,-0.06718 q -0.0017,-0.04479 -0.0052,-0.07751 -0.0017,-0.03273 -0.06546,-0.07407 l -0.04479,0.05512 -0.03962,0.01895 -0.118855,0.165364 -0.1033533,0.124024 -0.034451,0.07407 -0.099908,0.111966 -0.1326362,0.09991 -0.012058,0.05857 -0.070624,0.02584 -0.010335,0.04823 -0.08096,0.03962 -0.027561,0.06718 -0.056844,0.02067 -0.08096,0.144694 q -0.048231,0 -0.056844,0.08785 -0.01378,0.0034 -0.024116,0.0034 -0.01378,-0.03101 -0.056844,-0.09129 l 0.00689,-0.04651 -0.024116,-0.03101 0.024116,-0.03101 -0.022393,-0.02584 q -0.00861,-0.01033 -0.027561,-0.07407 l -0.048231,-0.04479 q -0.01378,-0.0052 -0.037896,-0.03962 -0.022393,-0.03617 -0.034451,-0.0534 -0.012058,-0.01723 -0.031006,-0.08441 l -0.037896,-0.04479 -0.067179,-0.134358 -0.070625,-0.08096 -0.024116,-0.04995 -0.067179,-0.07407 -0.070625,-0.110243 q -0.060289,-0.0913 -0.09474,-0.0913 -0.024116,0 -0.046509,0.0086 -0.02067,0.0086 -0.024116,0.0086 h -0.00517 v 0.04306 q 0,0.117134 -0.031006,0.1757 l -0.07407,0.137804 0.017225,0.08957 -0.024116,0.06201 -0.070624,0.237712 -0.027561,0.07752 -0.012058,0.05168 -0.044786,0.113689 -0.056844,0.09819 0.00689,0.07752 -0.060289,0.144694 q 0,0.03101 0.032728,0.04651 -0.068902,0.0844 -0.091295,0.0844 -0.00861,0 -0.027561,-0.02756 -0.018948,-0.02584 -0.018948,-0.06373 0,-0.0069 0.01378,-0.04306 0.01378,-0.0379 0.024116,-0.08957 0.010335,-0.05168 0.029283,-0.07407 0.020671,-0.02411 0.020671,-0.02584 v -0.08613 q 0,-0.07407 0.070625,-0.108521 v -0.05684 l 0.020671,-0.08096 q -0.00345,-0.0069 -0.00345,-0.02067 0,-0.01723 0.018948,-0.07063 0.024116,-0.02928 0.024116,-0.06373 v -0.07752 l 0.031006,-0.05684 0.063734,-0.211873 -0.017226,-0.09474 0.031006,-0.02411 0.012058,-0.04306 0.00345,-0.151584 q 0.017225,-0.09474 0.017225,-0.134359 0,-0.0379 -0.046509,-0.130914 l 0.029283,-0.05857 -0.015503,-0.02584 q 0.015503,-0.0069 0.015503,-0.03101 0.051676,0 0.065457,-0.02411 l 0.032728,0.0034 0.041341,0.03101 v 0.03101 l 0.039619,0.02584 0.010335,0.08096 0.032728,0.02756 0.01378,0.04995 h 0.017225 q -0.00689,0.01378 -0.00689,0.02412 0,0.03101 0.056844,0.03617 0.022393,0.01034 0.048231,0.0379 l 0.00689,0.04651 0.039619,0.04134 0.024116,0.08268 0.1584745,0.16881 0.029283,0.09474 0.053399,0.04306 0.048231,0.137803 0.1205785,0.215319 q 0.037896,0.06373 0.091295,0.111966 l 0.00689,-0.04651 h 0.063734 l 0.039619,-0.08785 0.07407,-0.05168 q 0.018948,-0.02756 0.063734,-0.07062 v -0.02928 q 0.037896,-0.02584 0.077515,-0.04651 0.041341,-0.02239 0.041341,-0.02756 0,-0.0034 -0.00345,-0.0034 0,-0.02412 0.020671,-0.05684 h 0.036174 l 0.031006,-0.04479 q 0.012058,0.01723 0.018948,0.01723 0.00345,0 0.00345,-0.01034 0,-0.0034 -0.00861,-0.06373 0.077515,-0.105075 0.1378039,-0.105075 v -0.04306 q 0,-0.03617 0.060289,-0.0534 l 0.02067,0.0069 0.00861,-0.02067 0.07407,-0.117133 0.0069,-0.02412 h 0.02412 q 0.05168,-0.05512 0.07752,-0.130914 0.02239,-0.01722 0.0534,-0.01722 0.01206,0 0.01723,0.01033 l 0.02412,-0.05168 -0.01378,-0.106798 -0.02067,-0.04995 q 0.0379,-0.05512 0.04995,-0.111966 0.0379,0.0052 0.05512,0.01378 0.0086,0.01206 0.04651,0.01723 l 0.0069,0.05684 q 0.05857,0.04995 0.06029,0.05512 0.0034,0.0052 0.0034,0.02239 l -0.0034,0.02928 v 0.09474 l 0.02067,0.03101 -0.02067,0.01895 0.02067,0.0069 -0.0069,0.0379 0.01378,0.01723 0.01034,0.07407 0.01895,0.0155 -0.03617,0.04823 0.01722,0.0069 -0.01034,0.07407 0.02584,0.06373 -0.0086,0.08096 0.03273,0.127468 q 0.0086,0.0379 0.01722,0.105076 -0.02067,0.04306 -0.04134,0.06373 l 0.02067,0.04306 q 0.01378,0.0086 0.01378,0.01722 0,0.0086 -0.01378,0.03445 -0.01206,0.02412 -0.01723,0.04306 l 0.02756,0.02584 -0.01033,0.192926 0.03445,0.120578 v 0.141249 l 0.02584,0.02756 q 0.02067,0.05168 0.03445,0.07062 0.01378,0.01895 0.0534,0.06201 0.04134,0.04134 0.04479,0.06201 z m 3.398589,-1.005969 -0.03273,0.07751 -0.01033,0.106798 -0.03101,0.03101 -0.03617,0.113688 q -0.0052,0.02239 -0.01033,0.03273 -0.0052,0.01033 -0.02239,0.01722 l -0.0379,0.0155 -0.208428,0.167087 -0.04823,0.02412 q -0.02239,0.01033 -0.07062,0.05684 v -0.02067 l -0.144694,0.111966 -0.06373,0.02756 -0.151585,0.08268 q -0.03273,-0.0155 -0.06373,-0.0155 -0.02412,0 -0.0379,0.01723 -0.01206,0.01722 -0.02584,0.02239 l -0.03101,-0.0069 -0.05684,0.0534 -0.02928,-0.0155 -0.01378,0.01895 h -0.06029 l -0.03101,0.03101 -0.105076,-0.0069 -0.170532,0.03101 q -0.01033,-0.0034 -0.03101,-0.0034 l -0.0534,0.0069 -0.06029,-0.01033 -0.01378,-0.01378 -0.14814,-0.02412 -0.07062,-0.03617 h -0.03101 v -0.06718 l -0.04995,0.01895 -0.02412,-0.03445 q -0.0155,-0.01895 -0.03445,-0.02928 l -0.05512,-0.02584 q -0.02756,-0.07752 -0.03101,-0.179145 l -0.01723,-0.02412 -0.0069,-0.141249 0.04823,-0.151584 -0.0069,-0.07407 0.03273,-0.02928 -0.02584,-0.06029 0.06029,-0.04823 v -0.04995 l 0.02067,-0.04651 v -0.0379 l 0.02584,-0.04306 -0.01034,-0.01378 0.01723,-0.01033 0.07407,-0.16881 0.137804,-0.218764 q 0.03101,-0.01034 0.04479,-0.03617 0.01378,-0.02756 0.07407,-0.07063 l -0.0069,-0.03101 h 0.04306 l -0.01034,-0.02067 q 0.03962,-0.04134 0.108521,-0.06373 l 0.02584,-0.02928 h -0.0034 q 0,-0.0017 0.06718,-0.01034 l 0.161919,-0.02067 0.101631,0.01378 0.07751,-0.0034 h 0.0913 q 0.03617,0.0069 0.04995,0.0069 0.04823,0 0.07407,-0.03101 0.01722,0.01722 0.03962,0.01722 0.01033,0 0.01722,-0.0034 0.0017,0.03445 0.03445,0.03445 0.01378,0.0155 0.07752,0.02239 l 0.02584,0.02412 0.05168,0.0069 h 0.06718 l 0.09646,0.04995 h -0.02239 l 0.06546,0.04651 q 0.01206,0.0086 0.03445,0.04823 l 0.05168,0.02412 0.02584,0.04306 0.06029,0.02412 0.117133,0.194648 q 0.01206,0.01895 0.04134,0.09819 l 0.04651,0.125746 q 0.01723,0.04479 0.01723,0.05857 z m -0.113688,-0.0913 -0.03101,-0.08096 0.0034,-0.02584 q 0,-0.01723 -0.0086,-0.0379 -0.0086,-0.02067 -0.07235,-0.06029 l -0.02584,-0.06718 -0.02067,-0.01033 -0.01033,-0.03962 -0.09991,-0.105076 -0.08785,-0.07407 -0.02756,0.01034 -0.127468,-0.08096 q -0.01723,-0.01033 -0.07407,-0.01895 -0.05512,-0.0086 -0.08441,-0.02756 0,0.0034 -0.01033,0.0034 -0.0069,0 -0.0534,-0.0069 l -0.01723,0.01206 -0.0534,-0.01895 -0.03445,0.01895 q -0.04651,-0.0155 -0.06373,-0.0155 -0.01034,0 -0.03101,0.0086 -0.01895,0.0069 -0.02928,0.0069 -0.01723,0 -0.02412,-0.0086 -0.03617,0.01895 -0.05857,0.04479 -0.02067,0.02412 -0.0689,0.04479 l -0.04995,-0.01206 -0.04823,0.03273 -0.05684,-0.0069 -0.02067,0.0086 q -0.01034,0.0052 -0.01895,0.01378 -0.0086,0.0069 -0.02239,0.01723 -0.01206,0.01033 -0.03101,0.02412 -0.01723,0.01206 -0.03962,0.02756 -0.02067,0.0155 -0.04651,0.03101 -0.01206,0.0086 -0.04651,0.07062 l 0.0034,0.04995 -0.06373,0.02756 q -0.01034,0.0052 -0.04306,0.04306 -0.02584,0.05857 -0.06373,0.09474 v 0.04306 q -0.04134,0.01722 -0.04823,0.04306 l -0.03273,0.10163 -0.05857,0.0379 q -0.01206,0.215319 -0.0379,0.24977 -0.02412,0.03445 -0.03445,0.06373 -0.0086,0.02756 -0.01378,0.06201 -0.0034,0.03273 -0.02412,0.09474 l 0.02067,0.04134 0.01033,0.06373 0.03273,0.04306 q 0.0069,0.01033 0.01033,0.02584 l 0.0069,0.04134 q 0.06718,0.07579 0.167088,0.106799 0.09991,0.03101 0.11541,0.02756 l 0.113689,-0.02928 0.02412,0.02584 h 0.05684 v 0.02412 h 0.05512 l 0.0155,-0.04306 0.05512,-0.0069 0.141249,0.01723 q 0.01895,-0.03445 0.04306,-0.03445 l 0.01378,0.0034 q 0.07751,-0.04995 0.113688,-0.04995 h 0.01378 l 0.07062,-0.04479 q 0.01378,-0.0069 0.07407,-0.01033 l 0.04479,-0.03962 q 0.127468,-0.0034 0.146416,-0.01722 0.01895,-0.01378 0.03273,-0.02928 0.0155,-0.0155 0.0689,-0.02756 l 0.02412,-0.06718 0.01034,0.0034 0.0069,-0.02412 q 0.04134,-0.01206 0.06718,-0.04651 l 0.03273,0.01033 0.01722,-0.03445 0.05684,-0.04306 0.09474,-0.105076 0.05685,-0.02067 0.02756,-0.06029 0.04651,-0.03273 -0.01033,-0.06373 0.02412,-0.05512 -0.01378,-0.103353 z m 2.83876,1.071426 -0.01034,0.08268 -0.09129,0.03101 -0.01034,0.03445 -0.04995,-0.01723 -0.06029,0.03962 -0.0379,0.0034 q -0.08441,0 -0.117134,-0.0379 -0.03273,-0.03617 -0.0379,-0.03617 l -0.01895,0.01378 q -0.07407,-0.03962 -0.118856,-0.120579 l 0.01378,-0.0069 -0.07062,-0.08096 -0.02412,-0.09474 -0.04306,-0.06718 -0.02412,-0.09129 -0.03273,-0.06718 -0.0534,-0.325561 -0.0034,-0.137804 q -0.02412,-0.05168 -0.03101,-0.101631 -0.0034,-0.0034 -0.01378,-0.0034 -0.0155,0 -0.01722,0.0034 l -0.07407,0.101631 -0.07062,0.0534 q -0.0017,0.01895 -0.06373,0.08441 l -0.03445,0.02239 q -0.0155,0.01033 -0.07235,0.07062 0,0.03445 -0.0379,0.04479 l -0.04306,0.04995 -0.05684,0.02412 -0.04823,0.06718 -0.272163,0.211874 -0.120578,0.07407 -0.04306,0.03617 q -0.02756,0.02067 -0.04651,0.02584 l -0.05857,0.01895 -0.0069,0.03962 -0.01378,0.0034 0.0069,0.01378 h -0.08096 l -0.02412,0.01034 0.01722,0.01378 -0.07407,0.0069 q -0.05512,-0.06373 -0.07407,-0.07407 v -0.06373 l -0.03101,-0.03101 -0.03617,-0.215319 -0.01034,-0.02756 -0.01033,-0.141249 0.02067,-0.07062 -0.01034,-0.0534 0.01034,-0.05684 -0.01378,-0.182591 -0.01378,-0.03273 q 0.01034,-0.0155 0.03101,-0.02928 0.02067,-0.0155 0.02067,-0.04479 l -0.02412,-0.03101 0.01378,-0.07407 -0.02756,-0.05684 v -0.0379 l 0.02756,-0.04651 -0.01378,-0.06718 0.02412,-0.105075 -0.01378,-0.137804 0.01378,-0.08096 -0.01378,-0.01378 h 0.02584 q 0,-0.04306 0.01723,-0.04306 h 0.01033 q 0,-0.0034 -0.01033,-0.01378 0.105075,0.01723 0.127468,0.118856 l -0.02584,0.03962 -0.04134,0.211874 q -0.0069,0.04134 -0.0069,0.06029 0,0.03273 0.03445,0.108521 -0.04651,0.222208 -0.04651,0.335897 0,0.03101 0.0017,0.04823 0.0017,0.01722 0.02756,0.04995 -0.01206,0.04823 -0.01378,0.155029 l -0.02584,0.03962 0.03962,0.03101 -0.03273,0.02411 q -0.01034,0.02584 -0.01034,0.04995 0,0.04306 0.01895,0.08096 0.01895,0.0379 0.02928,0.09819 0.01033,0.05857 0.03617,0.08613 h 0.05684 l 0.08096,0.0034 0.0069,-0.02239 q 0.02239,-0.0069 0.02584,-0.0069 0.0086,0 0.01723,0.0069 v -0.0034 q 0,-0.01723 0.02412,-0.02412 l 0.0069,-0.04995 0.06373,0.0155 0.02584,-0.0534 0.05512,-0.02412 q 0.01206,-0.03273 0.03962,-0.03273 0.01033,0 0.03101,0.0069 l 0.0069,-0.03445 q 0.06546,-0.04479 0.09991,-0.04995 v -0.02756 l 0.0379,-0.0069 0.01722,-0.01895 q 0.03101,0 0.04134,-0.0086 0.01034,-0.01034 0.02239,-0.06546 l 0.09991,-0.05168 0.01378,-0.04306 0.02412,0.0069 0.02584,-0.06029 0.06201,-0.02756 0.01206,-0.02412 0.0379,-0.02928 v -0.04479 l 0.03101,-0.0155 0.03617,-0.04823 0.05684,-0.02584 0.0069,-0.03101 h 0.02067 l -0.01378,-0.01378 q 0.02239,-0.03962 0.06029,-0.03962 h 0.01033 v -0.04134 l 0.02412,-0.01034 0.07751,-0.153306 q 0.01034,-0.0379 0.02928,-0.09474 l 0.01378,-0.08096 0.02067,-0.04306 q 0.01033,-0.02067 0.02067,-0.08096 l 0.0052,-0.06201 q 0.0034,-0.03273 0.02067,-0.07924 l 0.03445,-0.02756 0.0534,0.02756 q 0.02584,0.03445 0.07407,0.07063 l -0.01723,0.03273 0.0069,0.06373 q 0,0.04134 -0.04995,0.04134 l -0.01378,0.01378 v 0.03273 l -0.02411,0.04134 v 0.06373 l -0.02584,0.06718 0.0069,0.08785 q -0.03445,0.04823 -0.03445,0.06029 0,0.02239 0.02067,0.04134 0.02067,0.01722 0.02584,0.02928 l -0.02239,0.0069 -0.02067,0.04651 0.02067,0.05684 -0.01034,0.108521 0.03273,0.0534 h -0.01206 q -0.02412,0 -0.01723,0.02239 0.01723,0.06201 0.01723,0.129191 0.02584,0.02412 0.02584,0.04306 0,0.0086 -0.01378,0.01722 l 0.02412,0.07752 q 0.02412,0.113688 0.08785,0.282498 l 0.03962,0.05512 q 0.02067,0.05168 0.04823,0.07924 l 0.09991,0.09474 0.129191,0.02756 0.0155,-0.02756 0.03445,0.01722 q 0.02412,-0.02411 0.04306,-0.02756 0.0155,-0.02584 0.04823,-0.02584 z m 2.239314,-1.738052 -0.01723,0.0379 -0.04479,0.0069 h -0.106798 l -0.04995,0.01206 -0.04134,-0.01206 -0.218764,0.01895 -0.07407,-0.01895 q -0.09129,0.03617 -0.130914,0.03617 h -0.105076 l -0.06373,-0.02412 q 0,0.01722 -0.02584,0.02412 -0.04823,0 -0.09474,0.01378 -0.04479,0.01378 -0.08441,0.01378 l -0.07062,-0.02756 -0.06029,0.02756 -0.0069,0.02239 H 17.8585 l -0.01895,0.03445 -0.01378,0.229099 0.01378,0.03273 -0.0069,0.0379 0.0034,0.10163 -0.01033,0.103353 v 0.03101 q 0,0.02239 -0.01034,0.03445 -0.0086,0.01033 -0.01378,0.05512 l 0.02756,0.04479 -0.0069,0.05684 -0.02412,0.01723 q 0,0.02067 0.02067,0.0534 l -0.02067,0.03445 v 0.03962 l -0.02756,0.04134 0.01723,0.09991 -0.0069,0.144694 -0.02584,0.0913 q 0.0069,0.01378 0.0069,0.02067 0,0.01034 -0.0069,0.02412 -0.0052,0.01206 -0.0017,0.02584 0.0052,0.01206 0.0052,0.02067 0,0.01034 -0.01722,0.04651 -0.01723,0.03445 -0.01206,0.04306 0.0017,0.0034 0.01206,0.05512 -0.01723,0.04651 -0.01723,0.07062 0,0.02412 0.0069,0.07752 -0.02067,0 -0.0379,-0.0052 -0.0155,-0.0052 -0.01895,-0.0052 -0.02756,0 -0.02756,-0.10163 l 0.0069,-0.0534 q 0,-0.02928 -0.0069,-0.0844 -0.0069,-0.05512 -0.0069,-0.08096 l 0.02067,-0.248047 q -0.02756,-0.04651 -0.02756,-0.05168 0,-0.01895 0.01723,-0.03273 -0.01378,-0.01722 -0.01378,-0.031 0,-0.01034 0.02067,-0.02067 -0.01378,-0.03445 -0.01378,-0.04651 0,-0.01895 0.01206,-0.04995 0.01206,-0.03273 0.01206,-0.0379 l -0.0034,-0.05684 q 0,-0.01033 0.03273,-0.07751 -0.02928,0 -0.02928,-0.04651 0,-0.08096 0.02067,-0.0913 v -0.144694 l -0.02067,-0.07062 0.02067,-0.148139 -0.02067,-0.105076 0.02067,-0.08268 q -0.01378,-0.04823 -0.04823,-0.04823 -0.01895,0 -0.03273,0.01723 l -0.04995,0.0052 q -0.02756,0.0017 -0.05512,0.01895 l -0.04306,-0.0034 -0.04134,0.0034 v 0.01206 h -0.02928 q -0.05857,0 -0.09474,-0.02239 l -0.0069,0.02239 -0.07407,-0.02239 -0.204983,-0.0069 -0.08096,0.02412 q -0.0913,-0.07924 -0.0913,-0.105076 0,-0.0069 0.01378,-0.05684 h 0.05684 l 0.24977,0.04995 0.06029,-0.02067 0.165365,0.0069 0.155029,0.01378 0.103353,-0.03962 h 0.02756 l 0.02928,-0.08096 0.04823,0.0155 0.01034,0.03445 0.02239,-0.01034 q 0.02756,0.03617 0.08096,0.06029 l 0.05684,-0.01895 q 0.05684,0 0.09818,0.04651 l 0.02067,-0.02756 0.130914,-0.02584 0.08096,0.0069 q 0.03445,0.0155 0.06373,0.0155 h 0.01722 q 0.03273,-0.01206 0.0534,-0.01206 l 0.04995,0.0086 q 0.0155,0 0.02067,-0.01206 l 0.07062,-0.01034 0.08096,0.01895 q 0.01723,0.01723 0.04823,0.0069 0.03273,-0.01206 0.04306,-0.01206 l 0.06373,0.01206 0.1757,-0.0034 0.07751,0.01378 z"
       id="text5"
       style="font-size:3.52778px;font-family:'Bradley Hand ITC';-inkscape-font-specification:'Bradley Hand ITC, Normal';opacity:0.5;fill:#ffaa01;fill-rule:evenodd;stroke-width:0.165365"
       aria-label="FM OUT " />
    <path
       d="m 8.1423777,58.143649 q 0,0.02584 -0.024116,0.03617 l -0.056844,-0.01895 -0.063734,0.04995 -0.07407,-0.01033 q -0.044786,0.03101 -0.098185,0.03101 -0.041341,0 -0.053399,0.01895 -0.043064,-0.01895 -0.08096,-0.01895 -0.036173,0 -0.046509,0.02584 0.00689,0.01723 0.025838,0.03101 l -0.010335,0.03617 0.010335,0.118856 0.044786,0.06718 0.00861,0.06373 0.077515,0.113689 -0.012058,0.05168 0.053399,0.04995 0.08096,0.137804 q 0.063734,0.07407 0.07407,0.105075 l 0.063734,0.03273 0.024116,0.05512 0.025838,0.01895 -0.046509,0.03445 -0.056844,-0.04479 H 7.973568 l -0.046509,-0.03617 h -0.034451 l -0.032729,-0.06029 -0.034451,-0.01722 q -0.041341,-0.08268 -0.091295,-0.130914 v -0.03445 l -0.032729,-0.02928 -0.00345,-0.05512 -0.053399,-0.05684 -0.07407,-0.177422 -0.024116,-0.03101 -0.012058,-0.08785 q -0.00172,-0.01378 -0.044786,-0.08096 v -0.07407 h -0.041341 l -0.046509,0.03101 -0.070625,-0.01378 -0.048231,0.03101 -0.018948,-0.01723 -0.037896,0.02412 -0.010335,-0.02412 q -0.00861,0 -0.036174,0.01034 -0.025838,0.01034 -0.056844,0.01034 l -0.044786,-0.0034 h -0.060289 l -0.060289,0.03962 -0.063734,-0.01378 -0.08785,0.0069 v 0.01723 l -0.031006,-0.01723 -0.043064,0.02412 -0.031006,-0.02412 h -0.056844 l -0.056844,0.02412 -0.046509,-0.04995 -0.024116,0.01895 -0.049954,-0.01895 q -0.058567,0.02584 -0.1619196,0.180867 l -0.056844,0.01378 q -0.141249,0.217041 -0.1515843,0.218764 l -0.031006,0.01723 -0.098185,0.127469 h -0.018948 l -0.084405,0.137804 -0.091295,0.05684 -0.070625,-0.01895 0.01378,-0.03101 v -0.04995 l 0.025838,-0.03101 -0.012058,-0.02412 0.063734,-0.0086 0.043064,-0.02412 q 0.056844,-0.02412 0.070625,-0.08785 0.072347,-0.01895 0.084405,-0.08096 0.084405,-0.04823 0.1136882,-0.158474 l 0.048231,-0.01895 0.1136882,-0.1757 v -0.04995 q -0.024116,-0.01895 -0.036174,-0.05168 l 0.067179,-0.06029 v -0.02584 l 0.08096,0.0086 0.046509,-0.02928 0.010335,0.01378 0.046509,-0.06201 q -0.015503,-0.0034 -0.015503,-0.0155 0,-0.0086 0.049954,-0.04134 l 0.01378,0.02067 q 0.00345,-0.04306 0.036174,-0.10163 l -0.010335,-0.0069 0.041341,-0.0034 0.01378,-0.04651 q 0.043064,-0.0052 0.043064,-0.03617 V 57.8267 q 0.084405,-0.07235 0.084405,-0.134359 v -0.0069 l 0.046509,-0.0069 0.010335,-0.04995 0.024116,-0.0069 0.036174,-0.07407 0.024116,0.01723 -0.017225,-0.0379 q 0.051677,-0.0052 0.056844,-0.06718 l 0.024116,0.01378 v -0.07063 h 0.024116 v -0.04995 q 0.00689,-0.0069 0.039619,-0.03445 0.032729,-0.02928 0.041341,-0.07751 l 0.039619,-0.03962 -0.024116,-0.05512 q 0.048231,-0.06373 0.091295,-0.06373 h 0.00689 l 0.020671,-0.03273 0.024116,0.03617 q 0.00861,0.01033 0.031006,0.02239 l 0.058567,0.02928 0.00689,0.08957 q 0.024116,0.02067 0.044786,0.07062 l 0.029283,0.01034 0.00689,0.07751 0.027561,0.105075 0.046509,0.08096 0.031006,0.113688 0.00689,0.07407 0.049954,0.06718 -0.01378,0.02756 0.037896,0.04306 v 0.0534 l 0.00861,0.04823 q 0,0.01378 -0.015503,0.03617 0.053399,0.125747 0.1240235,0.125747 l 0.067179,-0.01378 h 0.08096 q 0.037896,0.01033 0.063734,0.01033 0.044786,0 0.068902,-0.02067 0.025838,-0.02067 0.032728,-0.02067 0.010335,0 0.063734,0.03101 z m -0.6700715,-0.08785 q -0.022393,-0.05857 -0.056844,-0.07751 l 0.018948,-0.04995 -0.046509,-0.02412 -0.01378,-0.134359 -0.043064,-0.06718 -0.00689,-0.05685 -0.024116,-0.04823 v -0.01895 h -0.010335 l -0.00689,-0.07579 q 0,-0.01206 -0.018948,-0.0379 l -0.024116,-0.0379 q -0.00689,-0.01034 -0.029283,-0.02584 -0.020671,-0.0155 -0.065457,-0.03617 l -0.039619,0.02067 -0.024116,0.04134 -0.084405,0.120578 -0.020671,0.03962 q -0.00861,0.01723 -0.082682,0.0913 l -0.01378,0.05684 -0.07407,0.0379 Q 6.7798416,57.90766 6.7006043,57.92833 l -0.032728,0.106798 -0.070625,0.02756 v 0.03617 l -0.010335,0.04479 q 0.062012,0.01895 0.08785,0.03617 l 0.043064,-0.0034 0.070625,0.01723 q 0.020671,0.0069 0.031006,0.0069 0.015503,0 0.049954,-0.0069 0.00345,-0.0034 0.01378,-0.0034 0.00517,0 0.025838,0.0069 0.022393,0.0069 0.041341,0.0069 l 0.046509,-0.01033 0.1378039,-0.01034 0.1119656,-0.0155 q 0.1085206,0.0155 0.1378039,0.0155 0.08096,0 0.08096,-0.03617 0,-0.02239 -0.031006,-0.06029 z m 3.6121848,1.016304 q -0.0086,0.01034 -0.05168,0.02412 l -0.07407,-0.04995 -0.09646,-0.118856 -0.02756,-0.07062 q -0.01034,-0.06718 -0.02756,-0.113688 -0.03962,-0.04479 -0.03962,-0.192925 0,-0.02412 0.0069,-0.03617 0.0086,-0.01206 0.01895,-0.115411 l -0.03617,-0.07407 0.01034,-0.03617 -0.01034,-0.06718 0.0034,-0.07751 -0.02412,-0.02412 0.02067,-0.0534 -0.02067,-0.03101 0.02067,-0.03273 -0.02412,-0.07407 v -0.111965 l -0.02928,-0.06718 q -0.0017,-0.04479 -0.0052,-0.07751 -0.0017,-0.03273 -0.06546,-0.07407 l -0.04479,0.05512 -0.03962,0.01895 -0.118856,0.165364 -0.103353,0.124024 -0.03445,0.07407 -0.09991,0.111966 -0.132636,0.09991 -0.01206,0.05857 -0.070625,0.02584 -0.010335,0.04823 -0.08096,0.03962 -0.027561,0.06718 -0.056844,0.02067 -0.08096,0.144694 q -0.048231,0 -0.056844,0.08785 -0.01378,0.0034 -0.024116,0.0034 -0.01378,-0.03101 -0.056844,-0.0913 l 0.00689,-0.04651 -0.024116,-0.03101 0.024116,-0.03101 -0.022393,-0.02584 q -0.00861,-0.01034 -0.027561,-0.07407 l -0.048231,-0.04479 q -0.01378,-0.0052 -0.037896,-0.03962 -0.022393,-0.03617 -0.034451,-0.0534 -0.012058,-0.01723 -0.031006,-0.0844 l -0.037896,-0.04479 -0.067179,-0.134358 -0.070625,-0.08096 -0.024116,-0.04995 -0.067179,-0.07407 -0.070624,-0.110243 q -0.060289,-0.0913 -0.09474,-0.0913 -0.024116,0 -0.046509,0.0086 -0.020671,0.0086 -0.024116,0.0086 h -0.00517 v 0.04306 q 0,0.117134 -0.031006,0.1757 l -0.07407,0.137804 0.017226,0.08957 -0.024116,0.06201 -0.070624,0.237711 -0.027561,0.07751 -0.012058,0.05168 -0.044786,0.113689 -0.056844,0.09819 0.00689,0.07751 -0.060289,0.144694 q 0,0.03101 0.032728,0.04651 -0.068902,0.0844 -0.091295,0.0844 -0.00861,0 -0.027561,-0.02756 -0.018948,-0.02584 -0.018948,-0.06374 0,-0.0069 0.01378,-0.04306 0.01378,-0.0379 0.024116,-0.08957 0.010335,-0.05168 0.029283,-0.07407 0.020671,-0.02412 0.020671,-0.02584 v -0.08613 q 0,-0.07407 0.070625,-0.108521 v -0.05684 l 0.020671,-0.08096 q -0.00345,-0.0069 -0.00345,-0.02067 0,-0.01723 0.018948,-0.07062 0.024116,-0.02928 0.024116,-0.06373 v -0.07751 l 0.031006,-0.05684 0.063734,-0.211873 -0.017226,-0.09474 0.031006,-0.02412 0.012058,-0.04306 0.00345,-0.151584 q 0.017226,-0.09474 0.017226,-0.134359 0,-0.0379 -0.046509,-0.130914 l 0.029283,-0.05857 -0.015503,-0.02584 q 0.015503,-0.0069 0.015503,-0.03101 0.051676,0 0.065457,-0.02412 l 0.032728,0.0034 0.041341,0.03101 v 0.03101 l 0.039619,0.02584 0.010335,0.08096 0.032728,0.02756 0.01378,0.04995 h 0.017225 q -0.00689,0.01378 -0.00689,0.02412 0,0.03101 0.056844,0.03617 0.022393,0.01033 0.048231,0.0379 l 0.00689,0.04651 0.039619,0.04134 0.024116,0.08268 0.1584745,0.16881 0.029283,0.09474 0.053399,0.04306 0.048231,0.137804 0.1205784,0.215318 q 0.037896,0.06373 0.091295,0.111966 l 0.00689,-0.04651 h 0.063734 l 0.039619,-0.08785 0.07407,-0.05168 q 0.018948,-0.02756 0.063734,-0.07062 v -0.02928 q 0.037896,-0.02584 0.077515,-0.04651 0.041341,-0.02239 0.041341,-0.02756 0,-0.0034 -0.0034,-0.0034 0,-0.02412 0.02067,-0.05684 h 0.03617 l 0.03101,-0.04479 q 0.01206,0.01722 0.01895,0.01722 0.0034,0 0.0034,-0.01033 0,-0.0034 -0.0086,-0.06373 0.07751,-0.105076 0.137804,-0.105076 v -0.04306 q 0,-0.03617 0.06029,-0.0534 l 0.02067,0.0069 0.0086,-0.02067 0.07407,-0.117133 0.0069,-0.02412 h 0.02412 q 0.05168,-0.05512 0.07751,-0.130914 0.02239,-0.01722 0.0534,-0.01722 0.01206,0 0.01723,0.01033 l 0.02412,-0.05168 -0.01378,-0.106798 -0.02067,-0.04995 q 0.0379,-0.05512 0.04995,-0.111966 0.0379,0.0052 0.05512,0.01378 0.0086,0.01206 0.04651,0.01723 l 0.0069,0.05684 q 0.05857,0.04995 0.06029,0.05512 0.0034,0.0052 0.0034,0.02239 l -0.0034,0.02928 v 0.09474 l 0.02067,0.03101 -0.02067,0.01895 0.02067,0.0069 -0.0069,0.0379 0.01378,0.01723 0.01033,0.07407 0.01895,0.0155 -0.03617,0.04823 0.01722,0.0069 -0.01033,0.07407 0.02584,0.06373 -0.0086,0.08096 0.03273,0.127468 q 0.0086,0.0379 0.01722,0.105076 -0.02067,0.04306 -0.04134,0.06373 l 0.02067,0.04306 q 0.01378,0.0086 0.01378,0.01722 0,0.0086 -0.01378,0.03445 -0.01206,0.02412 -0.01723,0.04306 l 0.02756,0.02584 -0.01034,0.192926 0.03445,0.120578 v 0.141249 l 0.02584,0.02756 q 0.02067,0.05168 0.03445,0.07062 0.01378,0.01895 0.0534,0.06201 0.04134,0.04134 0.04479,0.06201 z m 3.398589,-1.005969 -0.03273,0.07752 -0.01034,0.106798 -0.03101,0.03101 -0.03617,0.113688 q -0.0052,0.02239 -0.01034,0.03273 -0.0052,0.01034 -0.02239,0.01723 l -0.0379,0.0155 -0.208428,0.167087 -0.04823,0.02412 q -0.02239,0.01033 -0.07062,0.05684 v -0.02067 l -0.144694,0.111965 -0.06373,0.02756 -0.151585,0.08268 q -0.03273,-0.0155 -0.06373,-0.0155 -0.02412,0 -0.0379,0.01723 -0.01206,0.01722 -0.02584,0.02239 l -0.03101,-0.0069 -0.05684,0.0534 -0.02928,-0.0155 -0.01378,0.01895 h -0.06029 l -0.03101,0.03101 -0.105075,-0.0069 -0.170533,0.03101 q -0.01033,-0.0034 -0.03101,-0.0034 l -0.0534,0.0069 -0.06029,-0.01034 -0.01378,-0.01378 -0.148139,-0.02412 -0.07062,-0.03617 h -0.03101 v -0.06718 l -0.04995,0.01895 -0.02412,-0.03445 q -0.0155,-0.01895 -0.03445,-0.02928 l -0.05512,-0.02584 q -0.02756,-0.07751 -0.03101,-0.179145 l -0.01722,-0.02412 -0.0069,-0.141249 0.04823,-0.151584 -0.0069,-0.07407 0.03273,-0.02928 -0.02584,-0.06029 0.06029,-0.04823 v -0.04995 l 0.02067,-0.04651 v -0.0379 l 0.02584,-0.04306 -0.01033,-0.01378 0.01722,-0.01033 0.07407,-0.16881 0.137804,-0.218764 q 0.03101,-0.01033 0.04479,-0.03617 0.01378,-0.02756 0.07407,-0.07062 l -0.0069,-0.03101 h 0.04306 l -0.01033,-0.02067 q 0.03962,-0.04134 0.10852,-0.06373 l 0.02584,-0.02928 h -0.0034 q 0,-0.0017 0.06718,-0.01033 l 0.161919,-0.02067 0.101631,0.01378 0.07751,-0.0034 h 0.0913 q 0.03617,0.0069 0.04995,0.0069 0.04823,0 0.07407,-0.03101 0.01723,0.01723 0.03962,0.01723 0.01033,0 0.01722,-0.0034 0.0017,0.03445 0.03445,0.03445 0.01378,0.0155 0.07752,0.02239 l 0.02584,0.02412 0.05168,0.0069 h 0.06718 l 0.09646,0.04995 h -0.02239 l 0.06546,0.04651 q 0.01206,0.0086 0.03445,0.04823 l 0.05168,0.02411 0.02584,0.04306 0.06029,0.02412 0.117134,0.194648 q 0.01206,0.01895 0.04134,0.09819 l 0.04651,0.125746 q 0.01722,0.04479 0.01722,0.05857 z m -0.113688,-0.09129 -0.03101,-0.08096 0.0034,-0.02584 q 0,-0.01722 -0.0086,-0.0379 -0.0086,-0.02067 -0.07235,-0.06029 l -0.02584,-0.06718 -0.02067,-0.01034 -0.01033,-0.03962 -0.09991,-0.105076 -0.08785,-0.07407 -0.02756,0.01033 -0.127469,-0.08096 q -0.01723,-0.01033 -0.07407,-0.01895 -0.05512,-0.0086 -0.08441,-0.02756 0,0.0034 -0.01033,0.0034 -0.0069,0 -0.0534,-0.0069 l -0.01722,0.01206 -0.0534,-0.01895 -0.03445,0.01895 q -0.04651,-0.0155 -0.06373,-0.0155 -0.01034,0 -0.03101,0.0086 -0.01895,0.0069 -0.02928,0.0069 -0.01722,0 -0.02412,-0.0086 -0.03617,0.01895 -0.05857,0.04479 -0.02067,0.02411 -0.0689,0.04479 l -0.04995,-0.01206 -0.04823,0.03273 -0.05685,-0.0069 -0.02067,0.0086 q -0.01034,0.0052 -0.01895,0.01378 -0.0086,0.0069 -0.02239,0.01723 -0.01206,0.01034 -0.03101,0.02412 -0.01723,0.01206 -0.03962,0.02756 -0.02067,0.0155 -0.04651,0.03101 -0.01206,0.0086 -0.04651,0.07062 l 0.0034,0.04995 -0.06373,0.02756 q -0.01033,0.0052 -0.04306,0.04306 -0.02584,0.05857 -0.06373,0.09474 v 0.04306 q -0.04134,0.01723 -0.04823,0.04306 l -0.03273,0.10163 -0.05857,0.0379 q -0.01206,0.215319 -0.0379,0.24977 -0.02412,0.03445 -0.03445,0.06373 -0.0086,0.02756 -0.01378,0.06201 -0.0034,0.03273 -0.02412,0.09474 l 0.02067,0.04134 0.01034,0.06373 0.03273,0.04306 q 0.0069,0.01033 0.01033,0.02584 l 0.0069,0.04134 q 0.06718,0.07579 0.167087,0.106798 0.09991,0.03101 0.115411,0.02756 l 0.113688,-0.02928 0.02412,0.02584 h 0.05685 v 0.02412 h 0.05512 l 0.0155,-0.04306 0.05512,-0.0069 0.141249,0.01723 q 0.01895,-0.03445 0.04306,-0.03445 l 0.01378,0.0034 q 0.07751,-0.04995 0.113688,-0.04995 h 0.01378 l 0.07062,-0.04479 q 0.01378,-0.0069 0.07407,-0.01033 l 0.04479,-0.03962 q 0.127468,-0.0034 0.146416,-0.01723 0.01895,-0.01378 0.03273,-0.02928 0.0155,-0.0155 0.0689,-0.02756 l 0.02411,-0.06718 0.01034,0.0034 0.0069,-0.02412 q 0.04134,-0.01206 0.06718,-0.04651 l 0.03273,0.01033 0.01723,-0.03445 0.05684,-0.04306 0.09474,-0.105076 0.05684,-0.02067 0.02756,-0.06029 0.04651,-0.03273 -0.01033,-0.06373 0.02412,-0.05512 -0.01378,-0.103353 z m 2.838761,1.071426 -0.01034,0.08268 -0.0913,0.03101 -0.01033,0.03445 -0.04995,-0.01723 -0.06029,0.03962 -0.0379,0.0034 q -0.08441,0 -0.117134,-0.0379 -0.03273,-0.03617 -0.0379,-0.03617 l -0.01895,0.01378 q -0.07407,-0.03962 -0.118856,-0.120579 l 0.01378,-0.0069 -0.07062,-0.08096 -0.02411,-0.09474 -0.04306,-0.06718 -0.02412,-0.0913 -0.03273,-0.06718 -0.0534,-0.325561 -0.0034,-0.137804 q -0.02412,-0.05168 -0.03101,-0.101631 -0.0034,-0.0034 -0.01378,-0.0034 -0.0155,0 -0.01722,0.0034 l -0.07407,0.101631 -0.07062,0.0534 q -0.0017,0.01895 -0.06374,0.0844 l -0.03445,0.02239 q -0.0155,0.01033 -0.07235,0.07062 0,0.03445 -0.0379,0.04479 l -0.04306,0.04995 -0.05684,0.02412 -0.04823,0.06718 -0.272163,0.211873 -0.120578,0.07407 -0.04306,0.03617 q -0.02756,0.02067 -0.04651,0.02584 l -0.05857,0.01895 -0.0069,0.03962 -0.01378,0.0034 0.0069,0.01378 h -0.08096 l -0.02412,0.01033 0.01722,0.01378 -0.07407,0.0069 q -0.05512,-0.06373 -0.07407,-0.07407 v -0.06373 l -0.03101,-0.03101 -0.03617,-0.215319 -0.01033,-0.02756 -0.01034,-0.141249 0.02067,-0.07062 -0.01033,-0.0534 0.01033,-0.05684 -0.01378,-0.182591 -0.01378,-0.03273 q 0.01034,-0.0155 0.03101,-0.02928 0.02067,-0.0155 0.02067,-0.04479 l -0.02412,-0.03101 0.01378,-0.07407 -0.02756,-0.05684 v -0.0379 l 0.02756,-0.04651 -0.01378,-0.06718 0.02412,-0.105076 -0.01378,-0.137804 0.01378,-0.08096 -0.01378,-0.01378 h 0.02584 q 0,-0.04306 0.01723,-0.04306 h 0.01033 q 0,-0.0034 -0.01033,-0.01378 0.105075,0.01722 0.127468,0.118856 l -0.02584,0.03962 -0.04134,0.211874 q -0.0069,0.04134 -0.0069,0.06029 0,0.03273 0.03445,0.108521 -0.04651,0.222208 -0.04651,0.335897 0,0.03101 0.0017,0.04823 0.0017,0.01723 0.02756,0.04995 -0.01206,0.04823 -0.01378,0.155029 l -0.02584,0.03962 0.03962,0.03101 -0.03273,0.02412 q -0.01033,0.02584 -0.01033,0.04995 0,0.04306 0.01895,0.08096 0.01895,0.0379 0.02928,0.09819 0.01033,0.05857 0.03617,0.08613 h 0.05684 l 0.08096,0.0034 0.0069,-0.02239 q 0.02239,-0.0069 0.02584,-0.0069 0.0086,0 0.01722,0.0069 v -0.0034 q 0,-0.01723 0.02412,-0.02412 l 0.0069,-0.04995 0.06373,0.0155 0.02584,-0.0534 0.05512,-0.02412 q 0.01206,-0.03273 0.03962,-0.03273 0.01034,0 0.03101,0.0069 l 0.0069,-0.03445 q 0.06546,-0.04479 0.09991,-0.04995 v -0.02756 l 0.0379,-0.0069 0.01722,-0.01895 q 0.03101,0 0.04134,-0.0086 0.01033,-0.01034 0.02239,-0.06546 l 0.09991,-0.05168 0.01378,-0.04306 0.02412,0.0069 0.02584,-0.06029 0.06201,-0.02756 0.01206,-0.02412 0.0379,-0.02928 v -0.04479 l 0.03101,-0.0155 0.03617,-0.04823 0.05684,-0.02584 0.0069,-0.03101 h 0.02067 l -0.01378,-0.01378 q 0.02239,-0.03962 0.06029,-0.03962 h 0.01034 v -0.04134 l 0.02412,-0.01033 0.07751,-0.153307 q 0.01034,-0.0379 0.02928,-0.09474 l 0.01378,-0.08096 0.02067,-0.04306 q 0.01034,-0.02067 0.02067,-0.08096 l 0.0052,-0.06201 q 0.0034,-0.03273 0.02067,-0.07924 l 0.03445,-0.02756 0.0534,0.02756 q 0.02584,0.03445 0.07407,0.07062 l -0.01722,0.03273 0.0069,0.06373 q 0,0.04134 -0.04995,0.04134 l -0.01378,0.01378 v 0.03273 l -0.02412,0.04134 v 0.06373 l -0.02584,0.06718 0.0069,0.08785 q -0.03445,0.04823 -0.03445,0.06029 0,0.02239 0.02067,0.04134 0.02067,0.01722 0.02584,0.02928 l -0.02239,0.0069 -0.02067,0.04651 0.02067,0.05684 -0.01033,0.108521 0.03273,0.0534 h -0.01206 q -0.02412,0 -0.01723,0.02239 0.01723,0.06201 0.01723,0.129191 0.02584,0.02412 0.02584,0.04306 0,0.0086 -0.01378,0.01722 l 0.02411,0.07752 q 0.02412,0.113688 0.08785,0.282498 l 0.03962,0.05512 q 0.02067,0.05168 0.04823,0.07924 l 0.09991,0.09474 0.129191,0.02756 0.0155,-0.02756 0.03445,0.01723 q 0.02412,-0.02412 0.04306,-0.02756 0.0155,-0.02584 0.04823,-0.02584 z m 2.239313,-1.738052 -0.01723,0.0379 -0.04479,0.0069 h -0.106798 l -0.04995,0.01206 -0.04134,-0.01206 -0.218764,0.01895 -0.07407,-0.01895 q -0.0913,0.03617 -0.130914,0.03617 h -0.105075 l -0.06374,-0.02412 q 0,0.01722 -0.02584,0.02412 -0.04823,0 -0.09474,0.01378 -0.04479,0.01378 -0.08441,0.01378 l -0.07062,-0.02756 -0.06029,0.02756 -0.0069,0.02239 h -0.03101 l -0.01895,0.03445 -0.01378,0.229099 0.01378,0.03273 -0.0069,0.0379 0.0034,0.10163 -0.01034,0.103353 v 0.03101 q 0,0.02239 -0.01034,0.03445 -0.0086,0.01034 -0.01378,0.05512 l 0.02756,0.04479 -0.0069,0.05684 -0.02412,0.01723 q 0,0.02067 0.02067,0.0534 l -0.02067,0.03445 v 0.03962 l -0.02756,0.04134 0.01723,0.09991 -0.0069,0.144694 -0.02584,0.0913 q 0.0069,0.01378 0.0069,0.02067 0,0.01033 -0.0069,0.02412 -0.0052,0.01206 -0.0017,0.02584 0.0052,0.01206 0.0052,0.02067 0,0.01033 -0.01722,0.04651 -0.01723,0.03445 -0.01206,0.04306 0.0017,0.0034 0.01206,0.05512 -0.01723,0.04651 -0.01723,0.07062 0,0.02412 0.0069,0.07752 -0.02067,0 -0.0379,-0.0052 -0.0155,-0.0052 -0.01895,-0.0052 -0.02756,0 -0.02756,-0.101631 l 0.0069,-0.0534 q 0,-0.02928 -0.0069,-0.08441 -0.0069,-0.05512 -0.0069,-0.08096 l 0.02067,-0.248047 q -0.02756,-0.04651 -0.02756,-0.05168 0,-0.01895 0.01723,-0.03273 -0.01378,-0.01723 -0.01378,-0.03101 0,-0.01034 0.02067,-0.02067 -0.01378,-0.03445 -0.01378,-0.04651 0,-0.01895 0.01206,-0.04995 0.01206,-0.03273 0.01206,-0.0379 l -0.0034,-0.05684 q 0,-0.01034 0.03273,-0.07751 -0.02928,0 -0.02928,-0.04651 0,-0.08096 0.02067,-0.0913 V 57.84048 l -0.02067,-0.07062 0.02067,-0.148139 -0.02067,-0.105076 0.02067,-0.08268 q -0.01378,-0.04823 -0.04823,-0.04823 -0.01895,0 -0.03273,0.01722 l -0.04995,0.0052 q -0.02756,0.0017 -0.05512,0.01895 l -0.04306,-0.0034 -0.04134,0.0034 v 0.01206 h -0.02928 q -0.05857,0 -0.09474,-0.02239 l -0.0069,0.02239 -0.07407,-0.02239 -0.204983,-0.0069 -0.08096,0.02412 q -0.09129,-0.07924 -0.09129,-0.105076 0,-0.0069 0.01378,-0.05684 h 0.05684 l 0.249769,0.04995 0.06029,-0.02067 0.165365,0.0069 0.15503,0.01378 0.103352,-0.03962 h 0.02756 l 0.02928,-0.08096 0.04823,0.0155 0.01033,0.03445 0.02239,-0.01034 q 0.02756,0.03617 0.08096,0.06029 l 0.05684,-0.01895 q 0.05684,0 0.09819,0.04651 l 0.02067,-0.02756 0.130914,-0.02584 0.08096,0.0069 q 0.03445,0.0155 0.06373,0.0155 h 0.01722 q 0.03273,-0.01206 0.0534,-0.01206 l 0.04995,0.0086 q 0.0155,0 0.02067,-0.01206 l 0.07062,-0.01034 0.08096,0.01895 q 0.01723,0.01723 0.04823,0.0069 0.03273,-0.01206 0.04306,-0.01206 l 0.06374,0.01206 0.1757,-0.0034 0.07751,0.01378 z"
       id="text4"
       style="font-size:3.52778px;font-family:'Bradley Hand ITC';-inkscape-font-specification:'Bradley Hand ITC, Normal';opacity:0.5;fill:#ffaa01;fill-rule:evenodd;stroke-width:0.165365"
       aria-label="AM OUT" />
    <path
       d="m 11.248067,42.014501 -0.01378,0.0034 -0.02067,0.0534 0.02067,0.01034 -0.01034,0.07751 q -0.01033,0.0155 -0.01033,0.03445 l 0.01033,0.04651 v 0.04306 l -0.01723,0.01723 0.01723,0.02067 -0.02584,0.06373 0.0086,0.06029 -0.05684,0.111965 0.01378,0.0069 q -0.0069,0.01723 -0.0069,0.04306 l 0.0069,0.0534 v 0.0069 l -0.03962,0.01723 0.03962,0.08785 h -0.02412 l 0.01034,0.03273 -0.02584,0.04479 0.03273,0.06029 -0.0069,0.02412 h -0.01722 q -0.01206,0 -0.01206,0.02239 0,0.03962 0.04306,0.06718 -0.03445,0.0155 -0.0379,0.09819 l -0.0052,0.0379 0.01895,0.05685 -0.01895,0.04306 0.0034,0.130914 -0.01722,0.09129 0.03617,0.01723 q -0.0069,0.03617 -0.01722,0.0534 -0.0086,0.0155 -0.0086,0.03101 0,0.02928 0.03617,0.07407 l -0.02412,0.0069 0.04479,0.04651 -0.01722,0.02756 0.04995,0.0155 q -0.01034,0.04995 -0.03962,0.08441 -0.03101,-0.01034 -0.03101,-0.04651 l -0.04651,-0.06029 -0.02756,-0.0069 0.01378,-0.06029 -0.05684,-0.06373 0.02412,-0.03101 -0.03445,-0.0534 0.01034,-0.07407 q -0.0069,-0.01895 -0.01378,-0.03445 l -0.01378,-0.02928 0.02756,-0.04134 -0.01378,-0.04651 0.01378,-0.03101 -0.04651,-0.03617 0.03617,-0.05168 -0.0034,-0.237711 0.02412,-0.182591 -0.01034,-0.180867 0.01723,-0.04823 -0.01723,-0.01378 0.01034,-0.04306 v -0.06373 l 0.01378,-0.02412 -0.02412,-0.0069 0.01723,-0.08096 q -0.03962,0 -0.04823,-0.02584 h 0.04823 l 0.0069,-0.05684 -0.02412,-0.0069 0.01723,-0.04134 q 0.02928,-0.02412 0.02928,-0.04995 0,-0.02584 -0.02239,-0.0534 l 0.02239,-0.0069 v -0.03101 h 0.03445 l 0.02067,-0.04995 0.02928,-0.01034 q 0.08441,0 0.09819,0.05684 z m 2.713014,0.285944 -0.04479,0.07062 0.0069,0.05512 0.01722,-0.0069 q 0,0.02412 -0.02412,0.08096 l -0.02067,0.04651 v 0.180868 l -0.03617,0.08096 0.0069,0.05168 -0.03101,0.160197 0.01378,0.04134 -0.02756,0.127469 0.0069,0.05684 -0.02584,0.09129 0.02584,0.08785 -0.05684,0.08785 0.01378,0.04995 -0.03101,0.06029 0.01723,0.03445 0.01378,0.165365 0.02412,0.0534 q -0.02584,0.01723 -0.0379,0.04306 l -0.03273,-0.0069 -0.01722,-0.173977 -0.02412,-0.0069 q -0.0034,-0.03101 -0.0052,-0.06201 0,-0.03273 -0.0017,-0.06373 v -0.0689 q 0,-0.0379 -0.01033,-0.05684 l -0.02239,-0.04479 -0.06718,-0.01033 -0.0379,-0.04651 -0.01722,0.02239 -0.03273,-0.03962 -0.05684,0.01722 -0.0689,-0.05512 -0.03617,0.0069 -0.07062,-0.01378 -0.04134,-0.04306 -0.02584,0.0069 -0.215319,-0.137804 -0.02412,-0.03101 -0.07407,-0.03273 -0.04651,-0.05857 -0.04134,-0.02239 -0.05684,-0.05684 -0.158475,-0.0689 -0.113688,-0.144694 -0.04823,-0.0034 -0.02584,-0.03962 q -0.04823,-0.02067 -0.111965,-0.09474 h 0.01722 q -0.03273,-0.02928 -0.05684,-0.08096 l -0.02412,-0.0086 h -0.0069 q -0.0379,0 -0.04995,0.02412 -0.01034,0.02412 -0.02412,0.103353 l -0.03273,0.180868 0.03273,0.10852 -0.04995,0.180868 q 0.02067,0.10852 0.02067,0.118856 v 0.01378 q 0,0.04306 -0.02239,0.0689 -0.02239,0.02584 -0.02239,0.0379 0,0.0086 0.04479,0.02412 l -0.02067,0.07407 v 0.08785 l -0.01723,0.09646 0.01723,0.0379 -0.01723,0.02584 q -0.0069,0.105076 -0.04651,0.165365 h -0.02412 q -0.04306,0 -0.04306,-0.06718 v -0.01378 l 0.04306,-0.137804 -0.01723,-0.05684 0.02412,-0.07407 -0.02412,-0.02756 0.02756,-0.05684 -0.03962,-0.0534 q 0.0086,-0.04134 0.0086,-0.06718 0,-0.02756 -0.0086,-0.07751 l 0.0155,0.0069 0.01378,-0.03445 -0.02928,-0.0534 0.02928,-0.08096 -0.01723,-0.105075 0.02412,-0.113689 -0.02067,-0.07751 0.02412,-0.16881 -0.0034,-0.130914 0.01722,-0.120578 -0.01722,-0.0379 0.0034,-0.170533 0.03962,-0.01033 q -0.04651,-0.04479 -0.04651,-0.08096 0,-0.02067 0.02067,-0.0379 l 0.06374,0.01378 0.01722,-0.02412 q 0.03273,0.02584 0.03273,0.05512 0,0.02067 -0.01895,0.04995 h 0.04995 l 0.0069,0.08096 0.04306,0.03617 0.0069,0.05168 0.05684,0.03617 0.01895,0.07235 q 0.01033,0.04134 0.03617,0.06201 l 0.117133,0.0844 v 0.0069 q 0,0.02756 0.03617,0.06374 l 0.08096,0.05512 0.08785,0.103353 0.275608,0.229099 h 0.03101 q 0.0379,0.03101 0.04823,0.05684 0.01034,0.02584 0.01895,0.02756 l 0.111966,0.03617 0.08957,0.07407 0.05168,0.01723 0.09991,0.05684 0.09474,0.02756 q 0.08785,0.08785 0.148139,0.08785 l 0.0534,-0.01378 h 0.01033 l 0.0069,-0.09819 0.04995,-0.106798 -0.02584,-0.02412 0.01034,-0.165364 0.03962,-0.06029 -0.0052,-0.03962 q -0.0017,-0.01723 -0.03445,-0.07062 l 0.03962,-0.137804 -0.01723,-0.129191 0.03445,-0.251492 -0.04134,-0.04479 0.04823,-0.144694 -0.01723,-0.01895 0.02412,-0.03101 -0.0069,-0.02412 0.0534,-0.02584 0.01033,0.02584 0.04995,-0.01033 q -0.01033,0.03617 -0.01033,0.06546 0,0.03445 0.01722,0.06201 0.01722,0.02584 0.01722,0.03445 l -0.02412,0.06718 z"
       id="text3"
       style="font-size:3.52778px;font-family:'Bradley Hand ITC';-inkscape-font-specification:'Bradley Hand ITC, Normal';opacity:0.5;fill:#ffaa01;fill-rule:evenodd;stroke-width:0.165365"
       inkscape:transform-center-x="0.099519827"
       inkscape:transform-center-y="-0.79615862"
       aria-label="IN" />
    <circle
       style="opacity:0.5;fill:url(#linearGradient7);fill-opacity:1;fill-rule:evenodd;stroke-width:0.165365"
       id="path5"
       cx="12.589258"
       cy="37.668255"
       r="3.75" />
  </g>
  <g
     inkscape:groupmode="layer"
     id="layer2"
     inkscape:label="components">
    <circle
       style="opacity:1;fill:#00ff00;fill-opacity:1;fill-rule:evenodd;stroke-width:0.165365"
       id="path1"
       cx="12.539498"
       cy="37.668255"
       r="2.5"
       inkscape:label="IN" />
    <circle
       style="opacity:1;fill:#0000ff;fill-opacity:1;fill-rule:evenodd;stroke-width:0.165365"
       id="path2"
       cx="12.489738"
       cy="67.474442"
       r="2.5"
       inkscape:label="FM_OUT" />
    <circle
       style="opacity:1;fill:#0000ff;fill-opacity:1;fill-rule:evenodd;stroke-width:0.165365"
       id="path3"
       cx="12.439978"
       cy="52.446945"
       r="2.5"
       inkscape:label="AM_OUT" />
  </g>
</svg>
