<?xml version="1.0" encoding="UTF-8" standalone="no"?>
<!-- Created with Inkscape (http://www.inkscape.org/) -->

<svg
   width="40.467999mm"
   height="128.5mm"
   viewBox="0 0 25.292499 80.3125"
   version="1.1"
   id="svg1"
   sodipodi:docname="OctIFer.svg"
   inkscape:version="1.4 (86a8ad7, 2024-10-11)"
   xmlns:inkscape="http://www.inkscape.org/namespaces/inkscape"
   xmlns:sodipodi="http://sodipodi.sourceforge.net/DTD/sodipodi-0.dtd"
   xmlns:xlink="http://www.w3.org/1999/xlink"
   xmlns="http://www.w3.org/2000/svg"
   xmlns:svg="http://www.w3.org/2000/svg">
  <sodipodi:namedview
     id="namedview1"
     pagecolor="#ffffff"
     bordercolor="#000000"
     borderopacity="0.25"
     inkscape:showpageshadow="2"
     inkscape:pageopacity="0.0"
     inkscape:pagecheckerboard="0"
     inkscape:deskcolor="#d1d1d1"
     inkscape:document-units="mm"
     showgrid="true"
     inkscape:zoom="4.6997838"
     inkscape:cx="76.173717"
     inkscape:cy="39.469901"
     inkscape:window-width="1920"
     inkscape:window-height="1009"
     inkscape:window-x="-8"
     inkscape:window-y="-8"
     inkscape:window-maximized="1"
     inkscape:current-layer="layer1">
    <inkscape:grid
       id="grid1"
       units="mm"
       originx="0"
       originy="0"
       spacingx="0.99999995"
       spacingy="1"
       empcolor="#0099e5"
       empopacity="0.30196078"
       color="#0099e5"
       opacity="0.14901961"
       empspacing="5"
       enabled="true"
       visible="true" />
  </sodipodi:namedview>
  <defs
     id="defs1">
    <inkscape:path-effect
       effect="bspline"
       id="path-effect103-5"
       is_visible="true"
       lpeversion="1.3"
       weight="33.333333"
       steps="2"
       helper_size="0"
       apply_no_weight="true"
       apply_with_weight="true"
       only_selected="false"
       uniform="false" />
    <inkscape:path-effect
       effect="bspline"
       id="path-effect103-5-3"
       is_visible="true"
       lpeversion="1.3"
       weight="33.333333"
       steps="2"
       helper_size="0"
       apply_no_weight="true"
       apply_with_weight="true"
       only_selected="false"
       uniform="false" />
    <linearGradient
       inkscape:collect="always"
       xlink:href="#linearGradient16"
       id="linearGradient7-7"
       x1="8.8392582"
       y1="37.668255"
       x2="16.339258"
       y2="37.668255"
       gradientUnits="userSpaceOnUse"
       gradientTransform="matrix(1,0,0,1.0265386,-7.5725986,13.773034)" />
    <linearGradient
       id="linearGradient16"
       inkscape:collect="always">
      <stop
         style="stop-color:#ffaa01;stop-opacity:1;"
         offset="0"
         id="stop16" />
      <stop
         style="stop-color:#ffaa01;stop-opacity:0;"
         offset="1"
         id="stop17" />
    </linearGradient>
    <linearGradient
       inkscape:collect="always"
       xlink:href="#linearGradient16"
       id="linearGradient7-7-3"
       x1="8.8392582"
       y1="37.668255"
       x2="16.339258"
       y2="37.668255"
       gradientUnits="userSpaceOnUse"
       gradientTransform="translate(7.554415,14.772697)" />
    <linearGradient
       inkscape:collect="always"
       xlink:href="#linearGradient16"
       id="linearGradient7-7-2"
       x1="8.8392582"
       y1="37.668255"
       x2="16.339258"
       y2="37.668255"
       gradientUnits="userSpaceOnUse"
       gradientTransform="translate(-0.20813128,29.999231)" />
    <linearGradient
       inkscape:collect="always"
       xlink:href="#linearGradient16"
       id="linearGradient7-7-6"
       x1="8.8392582"
       y1="37.668255"
       x2="16.339258"
       y2="37.668255"
       gradientUnits="userSpaceOnUse"
       gradientTransform="translate(0.18994783,-0.05575686)" />
  </defs>
  <g
     inkscape:label="Layer 1"
     inkscape:groupmode="layer"
     id="layer1"
     style="fill:#000000;fill-opacity:1">
    <rect
       style="opacity:1;fill:#181818;fill-opacity:1;fill-rule:evenodd;stroke-width:0.1653"
       id="rect1"
       width="25.178246"
       height="80.415497"
       x="0.15983626"
       y="0.12916757"
       transform="matrix(0.99999955,-9.5381775e-4,0.00183596,0.99999831,0,0)" />
    <rect
       style="fill:#ff051e;fill-opacity:0.992157;fill-rule:evenodd;stroke-width:0.127023"
       id="rect2-3"
       width="12.913104"
       height="0.28148457"
       x="6.3939371"
       y="75.085358" />
    <rect
       style="fill:#ff051e;fill-opacity:0.992157;fill-rule:evenodd;stroke-width:0.127023"
       id="rect2"
       width="12.913104"
       height="0.28148457"
       x="6.067265"
       y="8.8353338" />
    <path
       style="opacity:0.5;fill:#ff051e;fill-opacity:0.992236;fill-rule:evenodd;stroke-width:0.264583"
       d="m 11.928907,18.723855 c 0,0 16.911869,0.150998 16.911869,0.150998"
       id="path103-6-7"
       inkscape:path-effect="#path-effect103-5-3"
       inkscape:original-d="m 11.928907,18.723855 16.911869,0.150998"
       transform="matrix(0.625,0,0,-3.3294826,-0.17952521,138.1564)" />
    <path
       d="M 7.4935754,6.2163055 7.460847,6.29382 7.4505118,6.4006177 7.419506,6.4316235 7.3833325,6.5453114 q -0.00517,0.022393 -0.010335,0.032728 -0.00517,0.010335 -0.022393,0.017226 l -0.037896,0.015503 -0.2084278,0.1670867 -0.048231,0.024116 q -0.022393,0.010335 -0.070624,0.056844 v -0.02067 L 6.8407312,6.9501092 6.7769971,6.9776699 6.6254132,7.060352 q -0.032728,-0.015503 -0.063734,-0.015503 -0.024116,0 -0.037896,0.017225 -0.012058,0.017225 -0.025838,0.022393 l -0.031006,-0.00689 -0.056844,0.053399 -0.029283,-0.015503 -0.01378,0.018948 h -0.060289 l -0.031006,0.031006 -0.1050752,-0.00689 -0.1705319,0.031006 q -0.010335,-0.00345 -0.031006,-0.00345 l -0.053399,0.00689 -0.060289,-0.010335 -0.01378,-0.01378 -0.1481388,-0.024116 -0.070624,-0.036173 H 5.5918868 V 7.041404 L 5.541933,7.060352 5.5178174,7.0259011 Q 5.5023145,7.0069532 5.4833666,6.9966179 L 5.4282451,6.9707797 Q 5.4006844,6.8932653 5.3972394,6.7916352 l -0.017226,-0.024116 -0.00689,-0.1412487 0.048231,-0.1515838 -0.00689,-0.074069 0.032728,-0.029283 -0.025838,-0.060289 0.060289,-0.048231 v -0.049954 l 0.02067,-0.046509 v -0.037896 l 0.025838,-0.043064 -0.010335,-0.01378 0.017225,-0.010335 0.074069,-0.1688093 0.1378035,-0.2187631 q 0.031006,-0.010335 0.044786,-0.036173 0.01378,-0.027561 0.074069,-0.070624 l -0.00689,-0.031006 h 0.043064 l -0.010335,-0.02067 Q 5.931228,5.473889 6.0001297,5.451496 l 0.025838,-0.029283 h -0.00345 q 0,-0.00172 0.067179,-0.010335 l 0.1619192,-0.020671 0.1016301,0.01378 0.077514,-0.00345 h 0.091295 q 0.036173,0.00689 0.049954,0.00689 0.048231,0 0.074069,-0.031006 0.017225,0.017225 0.039618,0.017225 0.010335,0 0.017226,-0.00345 0.00172,0.034451 0.034451,0.034451 0.01378,0.015503 0.077514,0.022393 l 0.025838,0.024116 0.051676,0.00689 h 0.067179 l 0.096463,0.049954 h -0.022393 l 0.065457,0.046509 q 0.012058,0.00861 0.034451,0.048231 l 0.051676,0.024116 0.025838,0.043064 0.060289,0.024116 0.117133,0.1946475 q 0.012058,0.018948 0.041341,0.098185 l 0.046509,0.1257457 q 0.017226,0.044786 0.017226,0.058566 z m -0.1136879,-0.091295 -0.031006,-0.08096 0.00345,-0.025838 q 0,-0.017225 -0.00861,-0.037896 -0.00861,-0.020671 -0.072347,-0.060289 L 7.245529,5.8528487 7.2248585,5.8425134 7.2145232,5.8028949 7.1146157,5.6978197 7.0267659,5.6237504 6.9992052,5.6340856 6.871737,5.5531261 q -0.017225,-0.010335 -0.074069,-0.018948 -0.055121,-0.00861 -0.084405,-0.027561 0,0.00345 -0.010335,0.00345 -0.00689,0 -0.053399,-0.00689 l -0.017225,0.012058 -0.053399,-0.018948 -0.034451,0.018948 q -0.046509,-0.015503 -0.063734,-0.015503 -0.010335,0 -0.031006,0.00861 -0.018948,0.00689 -0.029283,0.00689 -0.017226,0 -0.024116,-0.00861 -0.036174,0.018948 -0.058567,0.044786 -0.020671,0.024116 -0.068902,0.044786 l -0.049954,-0.012058 -0.048231,0.032728 -0.056844,-0.00689 -0.02067,0.00861 q -0.010335,0.00517 -0.018948,0.01378 -0.00861,0.00689 -0.022393,0.017225 -0.012058,0.010335 -0.031006,0.024116 -0.017226,0.012058 -0.039619,0.027561 -0.020671,0.015503 -0.046509,0.031006 -0.012058,0.00861 -0.046509,0.070624 l 0.00345,0.049954 -0.063734,0.027561 q -0.010335,0.00517 -0.043064,0.043064 -0.025838,0.058566 -0.063734,0.09474 v 0.043064 q -0.041341,0.017226 -0.048231,0.043064 l -0.032728,0.1016301 -0.058566,0.037896 q -0.012058,0.215318 -0.037896,0.2497689 -0.024116,0.034451 -0.034451,0.063734 -0.00861,0.027561 -0.01378,0.062012 -0.00345,0.032728 -0.024116,0.09474 l 0.020671,0.041341 0.010335,0.063734 0.032728,0.043064 q 0.00689,0.010335 0.010335,0.025838 l 0.00689,0.041341 q 0.067179,0.075792 0.1670868,0.1067977 0.099908,0.031006 0.1154104,0.027561 l 0.1136879,-0.029283 0.024116,0.025838 h 0.056844 v 0.024116 h 0.055121 l 0.015503,-0.043064 0.055121,-0.00689 0.1412486,0.017225 q 0.018948,-0.034451 0.043064,-0.034451 l 0.01378,0.00345 q 0.077514,-0.049954 0.1136879,-0.049954 h 0.01378 l 0.070624,-0.044786 q 0.01378,-0.00689 0.074069,-0.010335 l 0.044786,-0.039618 q 0.1274683,-0.00345 0.1464163,-0.017225 0.018948,-0.01378 0.032728,-0.029283 0.015503,-0.015503 0.068902,-0.027561 l 0.024116,-0.067179 0.010335,0.00345 0.00689,-0.024116 q 0.041341,-0.012058 0.067179,-0.046509 l 0.032728,0.010335 0.017225,-0.034451 0.056844,-0.043064 0.09474,-0.1050752 0.056844,-0.020671 0.027561,-0.060289 0.046509,-0.032728 -0.010335,-0.063734 0.024116,-0.055121 -0.01378,-0.1033527 z m 2.3874459,0.4203007 -0.063734,0.037896 0.01378,0.053399 q 0,0.044786 -0.08785,0.044786 l -0.027561,0.074069 -0.117133,0.077515 q -0.032728,0.049954 -0.067179,0.086127 -0.051676,0 -0.1067977,0.043064 -0.053399,0.041341 -0.072347,0.055121 -0.017225,0.012058 -0.039618,0.024116 -0.022393,0.010335 -0.046509,0.017226 -0.022393,0.00689 -0.065457,0.031006 -0.041341,0.022393 -0.051676,0.024116 -0.00861,0.00172 -0.025838,0.00172 H 8.987021 q -0.065457,0 -0.1688093,0.08096 l -0.053399,-0.010335 -0.043064,0.01378 q -0.044786,0.015503 -0.062011,0.015503 -0.022393,0 -0.051676,-0.00861 -0.027561,-0.00689 -0.036173,-0.00689 h -0.00689 q -0.024116,0.018948 -0.043064,0.018948 -0.017225,0 -0.037896,-0.022393 l -0.060289,-0.00689 q -0.015503,0 -0.036173,0.010335 l -0.048231,-0.017226 -0.032728,0.01378 -0.070624,-0.031006 -0.031006,-0.024116 q -0.01378,-0.010335 -0.08096,-0.032728 L 8.1050785,7.0637971 Q 8.0206739,7.041404 8.0137837,7.0396815 8.0068935,7.0362364 7.9982808,6.9966179 7.9913906,6.9569994 7.9707201,6.943219 7.9517721,6.9294387 7.9397143,6.9104907 7.9276565,6.8915427 7.9155987,6.8588144 7.9052634,6.826086 7.8897605,6.8002479 7.8673674,6.765797 7.8553096,6.7330687 7.8449744,6.6986178 7.8449744,6.667612 v -0.010335 l 0.00689,-0.1085202 q -0.02067,-0.037896 -0.02067,-0.074069 l 0.02067,-0.060289 V 6.354109 l 0.020671,-0.010335 0.00689,-0.056844 0.043063,-0.1619191 0.031006,-0.077514 0.015503,-0.00345 0.00689,-0.053399 q 0.017225,-0.00517 0.024116,-0.060289 0.00689,-0.056844 0.041341,-0.09474 0.036173,-0.037896 0.036173,-0.060289 0,-0.027561 -0.01378,-0.046509 l 0.041341,-0.01378 q 0.034451,-0.049954 0.067179,-0.074069 l 0.018948,-0.074069 0.044786,-0.027561 0.01378,-0.056844 q 0.074069,-0.015503 0.1016301,-0.060289 0.027561,-0.046509 0.068902,-0.055121 l 0.022393,-0.022393 q 0.00861,-0.010335 0.072347,-0.031006 l 0.010335,0.00689 0.039618,-0.039618 0.024116,0.029283 0.034451,0.00689 Q 8.6769631,5.296467 8.7372521,5.296467 l 0.070624,0.012058 q 0.00517,0.00172 0.025838,0.012058 l 0.1102428,0.041341 0.2480464,0.1567515 q 0.015503,0.048231 0.049954,0.074069 l 0.020671,0.067179 q 0.032728,0.079237 0.032728,0.1085203 l -0.00345,0.077514 q -0.00861,0.036174 -0.00861,0.074069 0,0.00345 0.00517,0.00689 0,0.010335 -0.024116,0.037896 -0.022393,0.025838 -0.032728,0.039619 l -0.063734,0.01378 -0.022393,-0.017225 q -0.01378,-0.010335 -0.017226,-0.017226 l -0.010335,-0.018948 q -0.00689,-0.00861 -0.012058,-0.029283 -0.00345,-0.020671 -0.00861,-0.039619 v -0.053399 l -0.010335,-0.060289 v -0.084405 l 0.01378,-0.063734 Q 9.0352523,5.5186752 8.9336222,5.4945596 8.9129516,5.4893919 8.9129516,5.4825018 v -0.00345 q -0.00172,-0.00689 -0.015503,-0.01378 -0.01378,-0.00689 -0.018948,-0.017225 h -0.074069 l -0.049954,-0.039619 q -0.051676,0 -0.051676,0.020671 l -0.032728,-0.020671 -0.034451,0.024116 -0.046509,-0.00689 -0.034451,0.025838 q -0.01378,-0.00345 -0.043064,-0.00345 -0.025838,0 -0.053399,0.010335 l -0.056844,0.08096 -0.09474,0.09474 -0.074069,0.1136879 -0.031006,0.01378 -0.029283,0.091295 -0.048231,0.039618 v 0.048231 l -0.060289,0.1033527 -0.029283,0.1154104 h -0.024116 l 0.01378,0.067179 -0.034451,0.067179 0.010335,0.024116 h -0.02067 v 0.053399 l -0.01378,0.010335 0.00345,0.1378035 -0.015503,0.1033527 q 0.041341,0.060289 0.039619,0.091295 l 0.031006,0.024116 v 0.043064 l 0.025838,0.037896 -0.015503,0.039618 0.067179,0.070624 0.00345,0.034451 0.1102428,0.043064 -0.010335,0.044786 0.1446937,0.012058 0.044786,0.044786 0.074069,-0.024116 0.039619,0.046509 0.08096,-0.029283 q 0.029283,-0.024116 0.046509,-0.024116 0.010335,0 0.010335,0.010335 l 0.051676,-0.00345 0.029283,0.024116 0.056844,-0.020671 h 0.017226 q 0.053399,0 0.074069,-0.025838 0.022393,-0.027561 0.074069,-0.027561 0.015503,0 0.049954,0.00689 0.00861,-0.037896 0.074069,-0.041341 0.025838,-0.031006 0.08785,-0.049954 0.025838,0 0.1016301,-0.034451 l 0.025838,-0.043064 q 0.018948,-0.00517 0.098185,-0.043064 l 0.037896,-0.048231 0.060289,-0.025838 0.1877573,-0.19637 0.063734,-0.036173 z M 12.0876,5.4583861 l -0.01723,0.037896 -0.04479,0.00689 h -0.106797 l -0.04995,0.012058 -0.04134,-0.012058 -0.218763,0.018948 -0.07407,-0.018948 q -0.0913,0.036173 -0.130913,0.036173 h -0.105075 l -0.06373,-0.024116 q 0,0.017225 -0.02584,0.024116 -0.04823,0 -0.09474,0.01378 -0.04479,0.01378 -0.08441,0.01378 l -0.07062,-0.027561 -0.06029,0.027561 -0.0069,0.022393 h -0.03101 l -0.01895,0.034451 -0.01378,0.2290983 0.01378,0.032728 -0.0069,0.037896 0.0034,0.1016301 -0.01034,0.1033526 v 0.031006 q 0,0.022393 -0.01033,0.034451 -0.0086,0.010335 -0.01378,0.055121 l 0.02756,0.044786 -0.0069,0.056844 -0.02412,0.017226 q 0,0.02067 0.02067,0.053399 l -0.02067,0.034451 v 0.039619 l -0.02756,0.041341 0.01722,0.099908 -0.0069,0.1446937 -0.02584,0.091295 q 0.0069,0.01378 0.0069,0.020671 0,0.010335 -0.0069,0.024116 -0.0052,0.012058 -0.0017,0.025838 0.0052,0.012058 0.0052,0.020671 0,0.010335 -0.01722,0.046509 -0.01723,0.034451 -0.01206,0.043064 0.0017,0.00345 0.01206,0.055121 -0.01723,0.046509 -0.01723,0.070624 0,0.024116 0.0069,0.077514 -0.02067,0 -0.0379,-0.00517 -0.0155,-0.00517 -0.01895,-0.00517 -0.02756,0 -0.02756,-0.1016301 l 0.0069,-0.053399 q 0,-0.029283 -0.0069,-0.084405 -0.0069,-0.055121 -0.0069,-0.08096 l 0.02067,-0.2480463 q -0.02756,-0.046509 -0.02756,-0.051676 0,-0.018948 0.01723,-0.032728 -0.01378,-0.017225 -0.01378,-0.031006 0,-0.010335 0.02067,-0.020671 -0.01378,-0.034451 -0.01378,-0.046509 0,-0.018948 0.01206,-0.049954 0.01206,-0.032728 0.01206,-0.037896 l -0.0034,-0.056844 q 0,-0.010335 0.03273,-0.077514 -0.02928,0 -0.02928,-0.046509 0,-0.080959 0.02067,-0.091295 V 5.9906522 l -0.02067,-0.070624 0.02067,-0.1481388 -0.02067,-0.1050751 0.02067,-0.082682 q -0.01378,-0.048231 -0.04823,-0.048231 -0.01895,0 -0.03273,0.017226 l -0.04995,0.00517 q -0.02756,0.00172 -0.05512,0.018948 l -0.04306,-0.00345 -0.04134,0.00345 v 0.012058 h -0.02928 q -0.05857,0 -0.09474,-0.022393 l -0.0069,0.022393 -0.07407,-0.022393 -0.204983,-0.00689 -0.08096,0.024116 q -0.091295,-0.079237 -0.091295,-0.1050751 0,-0.00689 0.01378,-0.056844 h 0.056844 l 0.2497692,0.049954 0.06029,-0.020671 0.165364,0.00689 0.155029,0.01378 0.103353,-0.039619 h 0.02756 l 0.02928,-0.08096 0.04823,0.015503 0.01034,0.034451 0.02239,-0.010335 q 0.02756,0.036173 0.08096,0.060289 l 0.05684,-0.018948 q 0.05684,0 0.09819,0.046509 l 0.02067,-0.027561 0.130913,-0.025838 0.08096,0.00689 q 0.03445,0.015503 0.06373,0.015503 h 0.01723 q 0.03273,-0.012058 0.0534,-0.012058 l 0.04995,0.00861 q 0.0155,0 0.02067,-0.012058 l 0.07062,-0.010335 0.08096,0.018948 q 0.01722,0.017225 0.04823,0.00689 0.03273,-0.012058 0.04306,-0.012058 l 0.06374,0.012058 0.175699,-0.00345 0.07752,0.01378 z m 0.373792,-0.067179 -0.01378,0.00345 -0.02067,0.053399 0.02067,0.010335 -0.01034,0.077514 q -0.01034,0.015503 -0.01034,0.034451 l 0.01034,0.046509 v 0.043064 l -0.01722,0.017225 0.01722,0.020671 -0.02584,0.063734 0.0086,0.060289 -0.05684,0.1119654 0.01378,0.00689 q -0.0069,0.017226 -0.0069,0.043064 l 0.0069,0.053399 v 0.00689 l -0.03962,0.017225 0.03962,0.08785 h -0.02412 l 0.01033,0.032728 -0.02584,0.044786 0.03273,0.060289 -0.0069,0.024116 h -0.01723 q -0.01206,0 -0.01206,0.022393 0,0.039619 0.04306,0.067179 -0.03445,0.015503 -0.0379,0.098185 l -0.0052,0.037896 0.01895,0.056844 -0.01895,0.043064 0.0034,0.1309134 -0.01723,0.091295 0.03617,0.017225 q -0.0069,0.036173 -0.01723,0.053399 -0.0086,0.015503 -0.0086,0.031006 0,0.029283 0.03617,0.074069 l -0.02412,0.00689 0.04479,0.046509 -0.01722,0.027561 0.04995,0.015503 q -0.01034,0.049954 -0.03962,0.084405 -0.03101,-0.010335 -0.03101,-0.046509 l -0.04651,-0.060289 -0.02756,-0.00689 0.01378,-0.060289 -0.05684,-0.063734 0.02412,-0.031006 -0.03445,-0.053399 0.01034,-0.074069 q -0.0069,-0.018948 -0.01378,-0.034451 l -0.01378,-0.029283 0.02756,-0.041341 -0.01378,-0.046509 0.01378,-0.031006 -0.04651,-0.036173 0.03617,-0.051676 -0.0034,-0.2377111 0.02412,-0.1825897 -0.01034,-0.1808671 0.01722,-0.048231 -0.01722,-0.01378 0.01034,-0.043064 v -0.063734 l 0.01378,-0.024116 -0.02412,-0.00689 0.01722,-0.08096 q -0.03962,0 -0.04823,-0.025838 h 0.04823 l 0.0069,-0.056844 -0.02412,-0.00689 0.01722,-0.041341 q 0.02928,-0.024116 0.02928,-0.049954 0,-0.025838 -0.02239,-0.053399 l 0.02239,-0.00689 V 5.394652 h 0.03445 l 0.02067,-0.049954 0.02928,-0.010335 q 0.08441,0 0.09819,0.056844 z m 2.042937,-0.039619 h 0.09302 q 0.04479,-0.01378 0.05512,-0.01378 0.03273,0 0.03273,0.032728 0,0.024116 -0.03617,0.024116 h -0.01378 l -0.04995,0.027561 -0.06201,-0.020671 -0.08957,0.049954 -0.0379,-0.018948 q -0.02412,-0.01378 -0.05684,-0.01378 -0.01378,0 -0.04306,0.00689 -0.02928,0.00689 -0.04479,0.00689 h -0.0069 l -0.04306,-0.00689 -0.07407,0.025838 -0.03101,-0.00345 -0.01378,0.010335 -0.163642,0.00345 -0.04134,-0.00689 -0.01378,0.024116 -0.05684,-0.017226 -0.0379,0.018948 q -0.01895,0.00861 -0.07235,0.00861 l -0.04823,-0.010335 q -0.03617,0 -0.0689,0.00861 -0.03101,0.00861 -0.111965,0.015503 l -0.03101,0.032728 -0.02067,-0.00689 q -0.01206,0.015503 -0.01206,0.048231 0,0.043064 0.0534,0.1636416 l -0.02756,0.08096 0.02756,0.02067 -0.02756,0.043064 q 0.02756,0.00517 0.02756,0.037896 l -0.01723,0.070624 -0.01034,0.1412486 0.0069,0.053399 0.127468,0.017225 0.09474,-0.024116 0.03101,0.017225 q 0.01034,0.00689 0.08096,0.00689 0.03445,0 0.0534,-0.024116 l 0.06718,-0.015503 0.08096,0.029283 q 0.08441,-0.017226 0.09818,-0.017226 0.02067,0 0.05684,-0.012058 l 0.04306,0.015503 0.05684,-0.015503 0.03101,0.018948 q 0.08096,-0.00345 0.09302,-0.00689 0.01378,-0.00345 0.02756,-0.00345 0.01033,0 0.03101,0.00345 0.02067,0.00345 0.02756,0.00345 0.02067,0 0.03617,-0.022393 l 0.08785,-0.010335 0.03617,0.010335 q 0.01378,-0.00689 0.02412,-0.00689 l 0.0379,0.01378 h 0.01895 l -0.0069,0.018948 q -0.03962,0.00172 -0.09991,0.041341 h -0.04823 l -0.03273,0.022393 -0.08096,-0.00861 -0.0689,0.024116 q -0.07924,0.022393 -0.106798,0.022393 l -0.05684,-0.017226 -0.01378,0.017226 -0.106798,-0.01378 -0.04134,0.020671 -0.06373,-0.00689 -0.04995,0.012058 q -0.05168,0.012058 -0.08096,0.012058 h -0.02412 q -0.02239,0 -0.05684,0.018948 l -0.03962,-0.025838 -0.01722,-0.00345 q -0.02067,0 -0.10163,0.036174 l -0.06718,-0.010335 -0.02756,0.010335 -0.04995,-0.010335 q -0.02239,0 -0.04306,0.2032602 0,0.058567 -0.0069,0.1067977 0.02067,0.039618 0.01378,0.056844 l -0.0379,0.1119653 0.02067,0.043064 -0.02412,0.044786 0.01033,0.056844 -0.01378,0.027561 q 0.0034,0.00689 0.0034,0.025838 0,0.044786 -0.02756,0.1498613 -0.02756,0.1050752 -0.04995,0.2135955 l -0.03962,-0.022393 h -0.02412 l 0.0069,-0.041341 v -0.032728 l 0.01723,-0.017225 0.0034,-0.043064 q 0,-0.020671 0.02584,-0.075792 l -0.02584,-0.018948 v -0.037896 l -0.01723,-0.017226 0.02756,-0.053399 -0.03101,-0.010335 q 0.0069,-0.031006 0.01895,-0.062012 0.01206,-0.031006 0.01206,-0.037896 v -0.00689 l -0.01378,-0.017226 0.0034,-0.024116 -0.01034,-0.053399 0.02067,-0.056844 -0.01033,-0.1378035 0.02584,-0.1378035 -0.0155,-0.055121 v -0.063734 q 0,-0.027561 -0.02756,-0.039618 l -0.09474,0.039618 -0.07062,-0.039618 -0.06718,0.010335 q -0.0069,0.00345 -0.02067,0.00345 -0.02584,0 -0.02584,-0.048231 0,-0.046509 0.01723,-0.067179 0.01722,-0.02067 0.07062,-0.02067 0.04651,0 0.08268,0.00345 l 0.105075,0.010335 h 0.02412 q 0.04306,0 0.05684,-0.060289 l -0.01723,-0.046509 V 5.923473 l -0.01723,-0.00345 0.01378,-0.1912024 -0.03962,-0.1050751 -0.0034,-0.070624 -0.09818,-0.046509 -0.08096,0.053399 -0.03273,-0.044786 q -0.03101,-0.00689 -0.0379,-0.032728 0.01722,-0.020671 0.01722,-0.091295 0.0534,0 0.08957,-0.025838 0.0379,-0.027561 0.06201,-0.027561 l 0.09818,0.010335 q 0.01034,0 0.06718,-0.00345 l 0.173977,-0.010335 0.118856,0.017225 0.120578,-0.00689 q 0.0155,-0.00689 0.02928,-0.015503 0.0155,-0.00861 0.01722,-0.00861 0.0034,0 0.01895,0.00689 0.01723,0.00689 0.01895,0.00689 h 0.0069 q 0.0086,0 0.134358,-0.020671 l 0.0034,0.020671 q 0.01206,-0.017225 0.02412,-0.017225 0.01722,0 0.03962,0.027561 l 0.02412,-0.010335 0.09302,-0.010335 h 0.0069 l 0.206706,0.027561 q 0.04995,-0.01378 0.09991,-0.01378 0.02067,0 0.04134,0.01378 z m 2.215192,0 q -0.0052,0.025838 -0.01723,0.039619 h -0.0379 l -0.02584,0.017225 -0.04823,-0.017225 -0.05684,0.00345 q -0.04134,0 -0.04995,-0.012058 -0.0069,-0.012058 -0.02412,-0.012058 -0.01378,0 -0.04651,0.020671 -0.02239,-0.01378 -0.04479,-0.01378 -0.02239,0 -0.07062,0.018948 -0.04651,0.018948 -0.06718,0.018948 -0.01722,0 -0.04823,-0.00345 -0.03101,-0.00345 -0.04823,-0.00345 -0.02239,0 -0.02756,0.020671 -0.02756,-0.020671 -0.05684,-0.020671 -0.04995,0 -0.10163,0.043064 l -0.03617,-0.018948 -0.03101,0.018948 -0.08096,-0.025838 -0.05684,0.032728 h -0.06373 q -0.05684,0.01378 -0.08957,0.022393 -0.03273,0.00689 -0.08613,0.034451 l -0.03273,-0.022393 -0.06201,0.049954 -0.06373,-0.00345 -0.04651,0.084405 0.01722,0.067179 q -0.03445,0.00861 -0.03445,0.091295 l 0.0034,0.029283 -0.0034,0.074069 0.01033,0.01378 -0.02412,0.02067 0.01378,0.02067 q -0.02584,0.055122 -0.02584,0.096463 0,0.077515 0.09302,0.077515 0.01378,0 0.04306,-0.00861 0.03101,-0.00861 0.06201,0 0.03101,0.00861 0.05684,0.00861 l 0.0534,-0.022393 0.05512,0.018948 0.03617,-0.010335 0.03445,0.00345 0.0534,-0.012058 0.03101,0.00861 h 0.0086 q 0.02067,0 0.06201,-0.022393 0.03101,0.015503 0.07235,0.012058 0.04306,-0.00345 0.06201,-0.00861 l 0.04651,-0.010335 0.07751,0.01378 q 0.01034,0 0.02067,-0.02067 0.08785,0.017225 0.106797,0.017225 l 0.0379,-0.00345 0.120578,0.00689 0.06373,-0.01378 q 0.0052,-0.020671 0.04134,-0.020671 l 0.08096,0.010335 0.03273,-0.00689 0.04479,0.017226 0.04651,-0.010335 -0.01034,0.043064 q -0.06201,0.024116 -0.09129,0.024116 -0.0086,0 -0.0379,-0.00689 -0.02756,-0.00861 -0.05168,-0.010335 l -0.09129,0.044786 -0.07751,-0.00689 -0.04479,0.017225 -0.03273,-0.00689 -0.05684,0.032728 -0.0379,-0.010335 -0.141248,0.00345 q -0.02412,0 -0.04651,0.020671 l -0.04823,-0.01378 -0.02584,0.024116 -0.04479,-0.01378 -0.02584,0.024116 -0.06718,-0.031006 -0.04823,0.031006 -0.05684,-0.01378 q -0.0069,-0.00345 -0.02756,-0.00345 -0.02584,0 -0.07235,0.01378 l -0.04134,0.01378 -0.127468,0.012058 -0.02756,-0.015503 q -0.01895,0.01378 -0.106798,0.029283 l -0.02756,0.067179 0.03273,0.1825896 -0.01895,0.024116 0.02239,0.056844 -0.0034,0.063734 0.01206,0.017226 q 0.0052,0.00689 0.01895,0.1033526 l 0.03101,0.034451 -0.01723,0.060289 0.03617,-0.010335 0.06373,0.098185 q 0.132636,0.1033526 0.232543,0.1033526 l 0.06373,0.010335 q 0.01723,0 0.07407,-0.01378 l 0.01378,-0.018948 h 0.03101 q 0.03617,0 0.04823,0 0.01378,-0.00172 0.07579,-0.041341 0.04823,0 0.05684,-0.01378 l 0.0379,-0.010335 q 0.02067,-0.00517 0.03962,-0.018948 l 0.04823,-0.037896 q 0.02067,-0.029283 0.0534,-0.056844 l 0.04651,-0.00345 0.08785,-0.077515 q 0.106798,-0.031006 0.127468,-0.1136879 l 0.02412,0.01378 0.01034,-0.055122 0.04651,-0.00345 0.0069,-0.053399 h 0.01034 q 0.03273,0 0.04651,0.041341 l -0.120578,0.1567515 -0.04306,0.010335 q -0.06201,0.09474 -0.0844,0.1085203 l -0.08785,0.060289 -0.05684,0.053399 -0.02412,-0.00345 -0.04306,0.044786 -0.161919,0.067179 -0.0379,0.049954 -0.05684,-0.017225 -0.01723,0.027561 -0.0155,-0.00345 -0.02756,0.024116 -0.09474,-0.02067 -0.117133,0.053399 -0.08441,-0.032728 -0.144694,-0.074069 q -0.06201,-0.032728 -0.111965,-0.099907 -0.04823,-0.067179 -0.09991,-0.215318 -0.04995,-0.1498613 -0.04995,-0.1636417 l 0.01206,-0.049954 -0.02584,-0.067179 0.02584,-0.031006 -0.03273,-0.1912024 q -0.04651,-0.058566 -0.0534,-0.065457 -0.0069,-0.00861 -0.0069,-0.036173 0,-0.063734 0.02928,-0.077515 0.03101,-0.015503 0.03101,-0.017225 V 6.078502 q 0,-0.024116 0.03273,-0.031006 l 0.01033,-0.049954 -0.01033,-0.020671 v -0.099908 l -0.01206,-0.041341 0.03962,-0.1067978 q 0.01723,-0.065457 0.02756,-0.09474 l -0.04479,-0.056844 -0.07752,0.00689 h -0.0069 q -0.01895,0 -0.03445,-0.01378 -0.0155,-0.015503 -0.0155,-0.034451 0,-0.032728 0.04651,-0.084405 0.01722,-0.00689 0.02412,-0.018948 0.06201,-0.024116 0.07062,-0.024116 0.01206,0 0.02412,0.017225 0.01033,-0.024116 0.02928,-0.024116 0.05168,0 0.05168,-0.031006 0,-0.010335 -0.01033,-0.025838 l 0.117133,0.00689 0.02067,0.039619 q 0.05512,-0.039619 0.113688,-0.039619 l 0.02412,0.00345 0.07407,-0.017225 q 0.02756,0 0.07062,-0.024116 v 0.024116 q 0.03101,-0.027561 0.08785,-0.027561 l 0.06029,0.00345 h 0.01034 l 0.335896,-0.032728 0.07751,0.032728 0.02412,-0.043064 q 0.0086,0.025838 0.02756,0.025838 0.0052,0 0.03273,-0.00861 l 0.0379,0.022393 0.02584,-0.022393 0.06373,0.025838 0.04134,-0.010335 0.02067,0.017225 0.113688,-0.010335 0.01722,0.010335 q 0.08441,0.018948 0.08785,0.031006 z m 2.812914,1.5778503 q 0.01378,0.037896 0.01378,0.048231 0,0.015503 -0.03273,0.041341 -0.03101,0.024116 -0.07235,0.058567 l -0.03962,-0.01378 -0.04651,0.070624 q -0.05684,0.00345 -0.10852,0.031006 l -0.10163,-0.024116 -0.05684,0.024116 -0.01723,0.031006 q -0.04995,-0.037896 -0.06373,-0.037896 -0.0069,0 -0.0069,0.010335 l -0.01895,-0.00345 -0.03101,0.031006 -0.03101,-0.037896 -0.02584,0.010335 q -0.02928,-0.024116 -0.05684,-0.024116 h -0.111965 l -0.03273,-0.036173 -0.0379,0.00689 -0.05684,-0.031006 -0.03445,0.017226 -0.02584,-0.041341 h -0.05168 L 18.4524,7.0207335 h -0.04134 q -0.0052,0 -0.02239,-0.025838 -0.0155,-0.025838 -0.04823,-0.044786 l -0.106798,-0.056844 q -0.09302,-0.044786 -0.144694,-0.155029 h -0.04134 l -0.05684,-0.070624 -0.103352,-0.08096 -0.115411,-0.1343584 -0.03273,-0.010335 -0.0534,-0.056844 q -0.0086,-0.010335 -0.07235,-0.031006 -0.02411,0.01378 -0.04306,0.01378 -0.0155,0 -0.03445,-0.01378 v 0.00345 q 0,0.00345 -0.0069,0.00345 h -0.03617 l -0.03445,-0.049954 q 0.01895,-0.020671 0.02412,-0.070624 l 0.04306,-0.01378 v -0.02067 l 0.04479,-0.010335 q 0.02239,-0.017226 0.04306,-0.017226 0.01378,0 0.02928,0.00861 0.0155,0.00861 0.01895,0.00861 0.0052,0 0.01206,-0.010335 0.0155,0.063734 0.148139,0.063734 0.115411,0 0.179145,-0.022393 v -0.010335 l 0.265271,-0.010335 q 0.09129,-0.046509 0.192925,-0.046509 l 0.02239,0.00689 0.05857,-0.02067 0.0155,-0.020671 0.04134,0.00345 0.0534,-0.02067 h 0.0379 q 0.02928,0 0.03617,-0.00517 0.0069,-0.00689 0.0069,-0.027561 v -0.01378 q 0.04306,-0.00517 0.04306,-0.01378 0.132636,-0.034451 0.132636,-0.117133 0,-0.039619 -0.0379,-0.077515 L 18.752123,5.7408833 h -0.02756 q -0.08096,-0.049954 -0.103353,-0.049954 h -0.03445 l -0.07062,-0.031006 h -0.04306 l -0.04479,-0.036173 h -0.08096 l -0.03273,-0.01378 -0.192925,-0.01378 -0.03273,-0.018948 -0.02067,0.012058 -0.03962,-0.012058 -0.0379,0.012058 -0.103352,-0.012058 -0.105075,0.018948 -0.05684,-0.018948 -0.06373,0.00689 -0.05512,-0.00689 -0.04306,0.018948 -0.03101,-0.012058 -0.06373,0.039619 -0.04995,-0.00689 q -0.02412,0.051676 -0.0534,0.08785 l 0.02239,0.049954 -0.01034,0.2049827 0.02412,0.1756995 q -0.0379,0.1223006 -0.03962,0.1515839 l -0.02412,0.4513065 0.02756,0.2583816 -0.02067,0.1378035 v 0.034451 q 0,0.027561 -0.06718,0.027561 h -0.01378 l 0.01722,-0.136081 -0.01722,-0.053399 -0.03101,-0.1446937 0.02067,-0.01378 q -0.04306,-0.053399 -0.04306,-0.070624 0,-0.032728 0.03962,-0.070624 l -0.02928,-0.056844 h -0.0034 q -0.0069,0 -0.0069,-0.00345 0,-0.018948 0.04306,-0.098185 -0.02412,-0.025838 -0.02412,-0.067179 l 0.01034,-0.056844 v -0.027561 q 0.02412,-0.044786 0.02412,-0.074069 0,-0.032728 -0.02412,-0.082682 l 0.02412,-0.058566 -0.01034,-0.053399 0.02067,-0.017225 q -0.01034,-0.015503 -0.01034,-0.036173 0,-0.025838 0.02412,-0.084405 l -0.03445,0.00689 -0.02067,-0.09474 0.01722,-0.067179 -0.01722,-0.1446937 0.01722,-0.017225 q -0.05512,-0.056844 -0.0844,-0.056844 h -0.01033 l -0.02584,0.024116 -0.08096,-0.00689 -0.0534,0.067179 q -0.03617,-0.029283 -0.06718,-0.034451 -0.02756,-0.036173 -0.02756,-0.056844 0,-0.017225 0.0069,-0.032728 0.0086,-0.017226 0.02756,-0.031006 l 0.04651,-0.031006 0.106797,-0.012058 0.144694,-0.00689 0.03101,-0.024116 v -0.010335 q 0,-0.053399 0.08096,-0.053399 h 0.04306 q 0.01895,0.074069 0.06373,0.074069 0.01033,0 0.07407,-0.031006 l 0.08785,0.020671 0.137804,-0.020671 0.182589,0.020671 0.258382,0.00689 0.129191,0.024116 h 0.09991 l 0.0379,0.032728 q 0.0052,-0.02067 0.02239,-0.02067 0.01378,0 0.03445,0.02067 0,0.024116 0.01378,0.041341 l 0.03617,0.00689 v -0.044786 l 0.141249,0.056844 0.04823,0.037896 0.0069,-0.010335 q 0.03101,0.018948 0.09302,0.024116 l 0.02412,0.029283 0.03101,0.00689 q 0.05684,0.08785 0.08613,0.1309133 0.03101,0.043064 0.03101,0.077514 0,0.063734 -0.05512,0.1119654 -0.0534,0.048231 -0.117133,0.1205781 l -0.03617,0.00172 -0.02756,0.00172 q -0.01033,0 -0.06029,0.024116 l -0.01378,0.029283 h -0.09991 l -0.02756,0.024116 q -0.0069,0.00689 -0.03273,0.015503 l -0.05168,0.015503 q -0.08957,0 -0.158474,0.074069 l -0.05684,-0.037896 -0.04995,0.024116 q -0.0155,-0.010335 -0.02756,-0.010335 -0.02067,0 -0.0534,0.031006 l -0.04823,-0.020671 -0.04651,0.020671 -0.01723,-0.020671 -0.06373,0.036173 -0.0844,-0.010335 q -0.02584,0 -0.0534,0.00689 l 0.03445,0.048231 0.08613,0.074069 0.02411,0.043064 0.137804,0.1050752 0.03101,0.056844 0.02239,0.025838 q 0.01033,0.010335 0.04479,0.09474 l 0.09474,0.00345 0.106798,0.1085203 0.05684,0.025838 0.07751,0.048231 0.07407,0.022393 0.105076,0.041341 0.03962,-0.00689 0.01723,0.01378 0.0069,-0.00689 0.01378,0.024116 0.04995,-0.010335 0.01034,0.036174 0.03962,-0.025838 0.04134,0.012058 0.120578,-0.012058 0.04823,0.012058 0.170532,-0.029283 0.125746,-0.034451 0.0086,0.020671 0.02412,-0.043064 h 0.0534 z"
       id="text1"
       style="font-size:3.52777px;font-family:'Bradley Hand ITC';-inkscape-font-specification:'Bradley Hand ITC, Normal';opacity:0.5;fill:#ffaa01;fill-rule:evenodd;stroke-width:0.165365"
       aria-label="OCTIFER" />
    <path
       d="m 9.2833811,42.841882 -0.02067,0.04306 q -0.010335,0.02412 -0.031006,0.04479 l -0.053399,0.0534 v 0.02412 q -0.039618,0.0086 -0.062012,0.0379 -0.02067,0.02928 -0.037896,0.02928 -0.031006,0.05684 -0.1515839,0.0844 -0.043064,0.06029 -0.1257457,0.06029 h -0.018948 v 0.02067 h -0.070624 l -0.041341,0.03273 -0.039618,0.0034 q 0,0.02756 -0.024116,0.02756 l -0.032728,0.02584 h -0.08096 l -0.048231,0.04479 -0.1446937,0.02928 -0.018948,0.01378 -0.08096,-0.0069 q -0.00345,0.01206 -0.031006,0.06029 -0.015503,-0.01206 -0.1016301,-0.01895 l -0.032728,0.01895 -0.049954,0.01723 q -0.036173,0.02412 -0.077514,0.03445 l -0.02067,0.06718 0.036173,0.06718 -0.018948,0.0844 0.025838,0.09646 -0.022393,0.01378 0.029283,0.04134 v 0.07062 l 0.01378,0.03617 v 0.06373 l 0.08096,-0.0069 q 0.017225,0.0155 0.017225,0.0379 0,0.0534 -0.074069,0.0534 h -0.02067 l -0.056844,0.02067 -0.048231,-0.08785 -0.063734,-0.137804 v -0.144694 l -0.036173,-0.07062 0.025838,-0.02756 -0.015503,-0.07062 0.00689,-0.04995 -0.024116,-0.03101 -0.1446937,-0.02584 -0.037896,-0.05512 0.1756995,-0.0155 -0.017225,-0.01034 q 0.00689,-0.0069 0.02067,-0.0069 0.018948,0 0.024116,0.0069 v -0.08096 l 0.022393,-0.04134 0.010335,-0.211873 0.02067,-0.02584 -0.00689,-0.161919 0.01378,-0.08785 0.00689,-0.194647 0.022393,-0.05512 0.027561,-0.01895 -0.00689,-0.05168 q 0,-0.03617 0.041341,-0.03617 0.1205781,0 0.1205781,0.08096 0,0.02239 -0.029283,0.07924 -0.027561,0.05512 -0.027561,0.08268 0,0.03101 0.039618,0.09646 l -0.032728,0.031 -0.00345,0.09474 -0.044786,0.04306 0.01378,0.07407 -0.027561,0.08096 0.01378,0.07751 -0.01378,0.06029 0.00689,0.04651 -0.025838,0.0379 q 0.00517,0.05857 0.049954,0.06718 l 0.08785,-0.0534 h 0.074069 q 0.049954,-0.04823 0.1205781,-0.04823 l 0.024116,-0.02239 q 0.017226,0.0069 0.049954,0.0069 0.070624,0 0.1412486,-0.05857 l 0.056844,-0.0034 0.044786,-0.03962 h 0.046509 l 0.010335,-0.01723 0.1860347,-0.0534 q 0.049954,-0.0052 0.049954,-0.02412 0.01378,-0.01378 0.017225,-0.03273 0.017226,0.0034 0.039618,0.0034 0.048231,0 0.060289,-0.06201 0.055121,-0.0069 0.060289,-0.02239 0.00517,-0.0155 0.027561,-0.02412 l 0.020671,0.01722 0.017225,-0.0534 0.025838,-0.02067 0.01378,-0.07752 Q 9.099063,42.762555 9.050831,42.700547 l -0.036173,-0.0069 -0.062012,-0.05684 -0.1309133,-0.05512 q -0.125739,-0.09465 -0.2687102,-0.106706 v 0.02412 l -0.060289,-0.04134 -0.08096,0.0034 -0.048231,-0.03273 h -0.056844 l -0.049954,-0.02756 h -0.049954 q -0.036174,0 -0.058566,-0.02756 l -0.1378033,-0.01891 q -0.037896,0.01206 -0.1067978,0.03962 l -0.080959,-0.04995 -0.048231,0.02928 -0.039618,-0.02584 -0.074069,0.02239 v 0.01034 h -0.031007 l -0.070624,0.0379 -0.048231,0.0069 q -0.022393,0.0034 -0.068902,0.03273 -0.046509,-0.05857 -0.056844,-0.127468 l 0.036173,-0.04995 v -0.02412 q 0.00861,-0.0155 0.062012,-0.01895 0.055121,-0.0052 0.096463,-0.02756 0.039618,0.0086 0.049954,0.0086 0.017226,0 0.031006,-0.0155 l 0.031006,0.0155 q 0.029283,-0.0086 0.036173,-0.0086 0.020671,0 0.031006,0.02239 h 0.1705319 l 0.1016301,0.0034 0.117133,0.02067 q 0.00861,0.01206 0.029283,0.02067 0.022393,0.0069 0.022393,0.0155 l 0.025838,-0.02584 h 0.01378 q 0.037896,0 0.037896,0.01378 0,0.0086 -0.00345,0.01206 h 0.049954 q 0.09474,0.02756 0.158474,0.03101 l 0.010335,0.02067 h 0.096462 l 0.063734,0.04306 q 0.010335,0.0069 0.074069,0.01378 l 0.017225,0.02756 h 0.017225 q 0.091295,0 0.1274683,0.07062 l 0.044786,-0.02412 v 0.04306 q 0.032728,0.0086 0.089572,0.05168 h 0.041341 l 0.032728,0.04995 0.1119654,0.07407 v 0.03962 z m 0.6201158,-0.528821 -0.01378,0.0034 -0.02067,0.0534 0.02067,0.01034 -0.01034,0.07751 q -0.01033,0.0155 -0.01033,0.03445 l 0.01033,0.04651 v 0.04306 l -0.01722,0.01723 0.01722,0.02067 -0.02584,0.06373 0.0086,0.06029 -0.05684,0.111966 0.01378,0.0069 q -0.0069,0.01723 -0.0069,0.04306 l 0.0069,0.0534 v 0.0069 l -0.03962,0.01722 0.03962,0.08785 h -0.02412 l 0.01033,0.03273 -0.02584,0.04479 0.03273,0.06029 -0.0069,0.02412 h -0.01722 q -0.01206,0 -0.01206,0.02239 0,0.03962 0.04306,0.06718 -0.03445,0.0155 -0.0379,0.09819 l -0.0052,0.0379 0.01895,0.05684 -0.01895,0.04306 0.0034,0.130913 -0.01723,0.0913 0.03617,0.01722 q -0.0069,0.03617 -0.01723,0.0534 -0.0086,0.0155 -0.0086,0.03101 0,0.02928 0.03617,0.07407 l -0.02411,0.0069 0.04479,0.04651 -0.01723,0.02756 0.04995,0.0155 q -0.01033,0.04995 -0.03962,0.0844 -0.03101,-0.01034 -0.03101,-0.04651 l -0.04651,-0.06029 -0.02756,-0.0069 0.01378,-0.06029 -0.05684,-0.06374 0.02412,-0.03101 -0.03445,-0.0534 0.01034,-0.07407 q -0.0069,-0.01895 -0.01378,-0.03445 l -0.01378,-0.02928 0.02756,-0.04134 -0.01378,-0.04651 0.01378,-0.03101 -0.04651,-0.03617 0.03617,-0.05168 -0.0034,-0.237711 0.02412,-0.18259 -0.01033,-0.180867 0.01722,-0.04823 -0.01722,-0.01378 0.01033,-0.04306 v -0.06373 l 0.01378,-0.02412 -0.02412,-0.0069 0.01722,-0.08096 q -0.03962,0 -0.04823,-0.02584 h 0.04823 l 0.0069,-0.05684 -0.02412,-0.0069 0.01722,-0.04134 q 0.02928,-0.02412 0.02928,-0.04995 0,-0.02584 -0.02239,-0.0534 l 0.02239,-0.0069 v -0.03101 h 0.03445 l 0.02067,-0.04995 0.02928,-0.01034 q 0.08441,0 0.09819,0.05684 z m 2.6354921,0.06718 -0.01722,0.0379 -0.04479,0.0069 h -0.106798 l -0.04995,0.01206 -0.04134,-0.01206 -0.218763,0.01895 -0.07407,-0.01895 q -0.09129,0.03617 -0.130914,0.03617 h -0.105075 l -0.06373,-0.02411 q 0,0.01722 -0.02584,0.02411 -0.04823,0 -0.09474,0.01378 -0.04479,0.01378 -0.08441,0.01378 l -0.07062,-0.02756 -0.06029,0.02756 -0.0069,0.02239 h -0.03101 l -0.01895,0.03445 -0.01378,0.229098 0.01378,0.03273 -0.0069,0.03789 0.0034,0.101631 -0.01033,0.103352 v 0.03101 q 0,0.02239 -0.01034,0.03445 -0.0086,0.01034 -0.01378,0.05512 l 0.02756,0.04479 -0.0069,0.05684 -0.02412,0.01723 q 0,0.02067 0.02067,0.0534 l -0.02067,0.03445 v 0.03962 l -0.02756,0.04134 0.01723,0.09991 -0.0069,0.144693 -0.02584,0.0913 q 0.0069,0.01378 0.0069,0.02067 0,0.01033 -0.0069,0.02412 -0.0052,0.01206 -0.0017,0.02584 0.0052,0.01206 0.0052,0.02067 0,0.01033 -0.01723,0.04651 -0.01722,0.03445 -0.01206,0.04306 0.0017,0.0034 0.01206,0.05512 -0.01722,0.04651 -0.01722,0.07062 0,0.02412 0.0069,0.07752 -0.02067,0 -0.0379,-0.0052 -0.0155,-0.0052 -0.01895,-0.0052 -0.02756,0 -0.02756,-0.10163 l 0.0069,-0.0534 q 0,-0.02928 -0.0069,-0.0844 -0.0069,-0.05512 -0.0069,-0.08096 l 0.02067,-0.248046 q -0.02756,-0.04651 -0.02756,-0.05168 0,-0.01895 0.01722,-0.03273 -0.01378,-0.01722 -0.01378,-0.03101 0,-0.01033 0.02067,-0.02067 -0.01378,-0.03445 -0.01378,-0.04651 0,-0.01895 0.01206,-0.04995 0.01206,-0.03273 0.01206,-0.0379 l -0.0034,-0.05684 q 0,-0.01033 0.03273,-0.07751 -0.02928,0 -0.02928,-0.04651 0,-0.08096 0.02067,-0.0913 v -0.144693 l -0.02067,-0.07062 0.02067,-0.148138 -0.02067,-0.105076 0.02067,-0.08268 q -0.01378,-0.04823 -0.04823,-0.04823 -0.01895,0 -0.03273,0.01723 l -0.04995,0.0052 q -0.02756,0.0017 -0.05512,0.01895 l -0.04306,-0.0034 -0.04134,0.0034 v 0.01206 h -0.02928 q -0.05857,0 -0.09474,-0.02239 l -0.0069,0.02239 -0.07407,-0.02239 -0.204983,-0.0069 -0.08096,0.02412 q -0.09129,-0.07924 -0.09129,-0.105075 0,-0.0069 0.01378,-0.05684 h 0.05684 l 0.249769,0.04995 0.06029,-0.02067 0.165364,0.0069 0.155029,0.01378 0.103353,-0.03962 h 0.02756 l 0.02928,-0.08096 0.04823,0.0155 0.01034,0.03445 0.02239,-0.01034 q 0.02756,0.03617 0.08096,0.06029 l 0.05684,-0.01895 q 0.05684,0 0.09819,0.04651 l 0.02067,-0.02756 0.130913,-0.02584 0.08096,0.0069 q 0.03445,0.0155 0.06373,0.0155 h 0.01723 q 0.03273,-0.01206 0.0534,-0.01206 l 0.04995,0.0086 q 0.0155,0 0.02067,-0.01206 l 0.07062,-0.01033 0.08096,0.01895 q 0.01723,0.01723 0.04823,0.0069 0.03273,-0.01206 0.04306,-0.01206 l 0.06373,0.01206 0.1757,-0.0034 0.07751,0.01378 z m 1.908579,1.086925 -0.06373,0.0379 0.01378,0.0534 q 0,0.04479 -0.08785,0.04479 l -0.02756,0.07407 -0.117133,0.07752 q -0.03273,0.04995 -0.06718,0.08613 -0.05168,0 -0.106798,0.04306 -0.0534,0.04134 -0.07235,0.05512 -0.01723,0.01206 -0.03962,0.02412 -0.02239,0.01033 -0.04651,0.01723 -0.02239,0.0069 -0.06546,0.03101 -0.04134,0.02239 -0.05168,0.02412 -0.0086,0.0017 -0.02584,0.0017 h -0.02239 q -0.06546,0 -0.16881,0.08096 l -0.0534,-0.01033 -0.04306,0.01378 q -0.04479,0.0155 -0.06201,0.0155 -0.02239,0 -0.05168,-0.0086 -0.02756,-0.0069 -0.03617,-0.0069 h -0.0069 q -0.02412,0.01895 -0.04306,0.01895 -0.01723,0 -0.0379,-0.02239 l -0.06029,-0.0069 q -0.0155,0 -0.03617,0.01034 l -0.04823,-0.01723 -0.03273,0.01378 -0.07063,-0.03101 -0.031,-0.02412 q -0.01378,-0.01034 -0.08096,-0.03273 l -0.01895,-0.04479 q -0.08441,-0.02239 -0.09129,-0.02412 -0.0069,-0.0034 -0.0155,-0.04306 -0.0069,-0.03962 -0.02756,-0.0534 -0.01895,-0.01378 -0.03101,-0.03273 -0.01206,-0.01895 -0.02412,-0.05168 -0.01033,-0.03273 -0.02584,-0.05857 -0.02239,-0.03445 -0.03445,-0.06718 -0.01034,-0.03445 -0.01034,-0.06546 v -0.01033 l 0.0069,-0.10852 q -0.02067,-0.0379 -0.02067,-0.07407 l 0.02067,-0.06029 v -0.06029 l 0.02067,-0.01034 0.0069,-0.05684 0.04306,-0.161919 0.03101,-0.07751 0.0155,-0.0034 0.0069,-0.0534 q 0.01723,-0.0052 0.02412,-0.06029 0.0069,-0.05684 0.04134,-0.09474 0.03617,-0.0379 0.03617,-0.06029 0,-0.02756 -0.01378,-0.04651 l 0.04134,-0.01378 q 0.03445,-0.04995 0.06718,-0.07407 l 0.01895,-0.07407 0.04479,-0.02756 0.01378,-0.05684 q 0.07407,-0.0155 0.10163,-0.06029 0.02756,-0.04651 0.0689,-0.05512 l 0.02239,-0.02239 q 0.0086,-0.01034 0.07235,-0.03101 l 0.01033,0.0069 0.03962,-0.03962 0.02412,0.02928 0.03445,0.0069 q 0.0534,-0.02067 0.113688,-0.02067 l 0.07062,0.01206 q 0.0052,0.0017 0.02584,0.01206 l 0.110243,0.04134 0.248046,0.156752 q 0.0155,0.04823 0.04995,0.07407 l 0.02067,0.06718 q 0.03273,0.07924 0.03273,0.108521 l -0.0034,0.07751 q -0.0086,0.03617 -0.0086,0.07407 0,0.0034 0.0052,0.0069 0,0.01033 -0.02412,0.0379 -0.02239,0.02584 -0.03273,0.03962 l -0.06373,0.01378 -0.02239,-0.01722 q -0.01378,-0.01034 -0.01723,-0.01723 l -0.01033,-0.01895 q -0.0069,-0.0086 -0.01206,-0.02928 -0.0034,-0.02067 -0.0086,-0.03962 v -0.0534 l -0.01034,-0.06029 v -0.0844 l 0.01378,-0.06373 q -0.06546,-0.11541 -0.167086,-0.139526 -0.02067,-0.0052 -0.02067,-0.01206 v -0.0034 q -0.0017,-0.0069 -0.0155,-0.01378 -0.01378,-0.0069 -0.01895,-0.01723 h -0.07407 l -0.04995,-0.03962 q -0.05168,0 -0.05168,0.02067 l -0.03273,-0.02067 -0.03445,0.02412 -0.04651,-0.0069 -0.03445,0.02584 q -0.01378,-0.0034 -0.04306,-0.0034 -0.02584,0 -0.0534,0.01034 l -0.05684,0.08096 -0.09474,0.09474 -0.07407,0.113688 -0.03101,0.01378 -0.02928,0.0913 -0.04823,0.03962 v 0.04823 l -0.06029,0.103353 -0.02928,0.11541 h -0.02412 l 0.01378,0.06718 -0.03445,0.06718 0.01033,0.02412 h -0.02067 v 0.0534 l -0.01378,0.01034 0.0034,0.137804 -0.0155,0.103352 q 0.04134,0.06029 0.03962,0.0913 l 0.03101,0.02412 v 0.04306 l 0.02584,0.0379 -0.0155,0.03962 0.06718,0.07062 0.0034,0.03445 0.110243,0.04306 -0.01033,0.04479 0.144693,0.01206 0.04479,0.04479 0.07407,-0.02412 0.03962,0.04651 0.08096,-0.02928 q 0.02928,-0.02412 0.04651,-0.02412 0.01033,0 0.01033,0.01034 l 0.05168,-0.0034 0.02928,0.02412 0.05684,-0.02067 h 0.01723 q 0.0534,0 0.07407,-0.02584 0.02239,-0.02756 0.07407,-0.02756 0.0155,0 0.04995,0.0069 0.0086,-0.0379 0.07407,-0.04134 0.02584,-0.03101 0.08785,-0.04995 0.02584,0 0.10163,-0.03445 l 0.02584,-0.04306 q 0.01895,-0.0052 0.09818,-0.04306 l 0.0379,-0.04823 0.06029,-0.02584 0.187757,-0.19637 0.06373,-0.03617 z m 2.621712,-0.554659 -0.07062,0.06373 -0.05684,-0.0069 -0.04995,0.0379 -0.0379,-0.02412 -0.137804,0.03962 -0.02584,0.04823 -0.05512,-0.04479 -0.08096,0.10852 h 0.02756 q -0.0052,0.05857 -0.04651,0.105075 h 0.0069 q 0.0155,0 0.0155,0.02584 0,0.0913 -0.02239,0.151584 l 0.01895,0.01723 q 0,0.02928 -0.01206,0.04306 -0.01034,0.01378 -0.01034,0.02756 0,0.02067 0.01378,0.06718 l -0.02067,0.01723 0.0034,0.170532 -0.03101,0.18948 h 0.0069 l -0.01378,0.05684 0.01378,0.02412 -0.0069,0.05684 0.01206,0.02928 q 0.01206,0.03445 0.01206,0.0689 0,0.01722 -0.02412,0.03617 l 0.0034,0.01723 q 0,0.03617 -0.03273,0.06373 l -0.0034,-0.03617 q -0.04823,-0.07407 -0.04823,-0.10163 V 44.03042 l -0.0155,-0.04479 0.02584,-0.02239 -0.02584,-0.01378 -0.01034,-0.05684 v -0.05168 l 0.01034,-0.0034 -0.01034,-0.03962 0.01034,-0.137803 -0.0034,-0.127468 0.02584,-0.0913 -0.02239,-0.03101 0.0155,-0.03273 v -0.218764 l 0.01034,-0.111965 -0.06718,0.02412 -0.01723,-0.02067 -0.02928,0.02067 -0.03445,-0.01378 q -0.05857,0.02928 -0.09474,0.02412 -0.03617,-0.0069 -0.04995,-0.0069 -0.02584,0 -0.04651,0.0069 l -0.137804,0.04651 -0.161919,-0.02067 -0.01722,0.0069 q -0.04651,-0.01722 -0.07062,-0.01722 -0.01895,0 -0.06029,0.0155 -0.03962,0.0155 -0.0534,0.0155 l -0.05512,-0.01378 -0.02239,0.04823 -0.06029,-0.04479 -0.08785,0.02067 -0.03445,-0.02067 -0.02928,0.02756 -0.04134,-0.0052 q -0.02067,-0.0017 -0.06373,-0.02584 l -0.0034,0.02412 -0.02756,-0.01033 q -0.06718,0 -0.117133,0.0155 -0.04995,0.0155 -0.04995,0.105075 v 0.129191 l -0.01378,0.09302 0.01378,0.06201 -0.03101,0.06718 0.03101,0.06029 -0.02412,0.155029 0.01722,0.05684 -0.0069,0.0913 0.02412,0.06029 -0.01033,0.02928 0.0069,0.05857 -0.01378,0.0069 q -0.06029,-0.0086 -0.06373,-0.06546 l -0.0069,-0.167087 q -0.07062,-0.08268 -0.07062,-0.10163 0,-0.03962 0.0534,-0.05684 l -0.02412,-0.02412 0.0034,-0.05684 -0.01378,-0.04306 -0.01895,-0.280775 v -0.08957 l -0.01378,-0.04823 -0.06029,-0.03617 -0.0069,-0.10163 0.08096,-0.0534 q 0.03617,-0.105075 0.03617,-0.175699 0,-0.01895 -0.0069,-0.0534 l 0.03101,0.01378 -0.01722,-0.03445 -0.01034,-0.130913 0.02067,-0.08096 -0.02067,-0.137803 v -0.07751 l 0.01722,-0.09129 0.06373,-0.03962 q 0.0379,0.03445 0.08096,0.04651 l 0.0034,0.05684 0.02756,0.03445 q -0.02412,0.08613 -0.02412,0.09819 0,0.02756 0.01723,0.03617 0.0034,0.01034 0.0034,0.03445 0,0.05684 -0.0379,0.272162 l 0.02412,0.05684 -0.02412,0.03445 q -0.0017,0.05168 -0.01723,0.137803 h 0.07407 l 0.0379,0.01378 0.09129,-0.01378 0.05684,0.0069 0.07752,-0.0069 0.06718,0.03273 v -0.0086 q 0,-0.02412 0.02067,-0.02412 0.01378,0 0.03273,0.01378 h 0.06029 l 0.136081,-0.0069 q 0.0379,0 0.0534,0.0069 l 0.02584,-0.03101 0.02412,0.01722 q 0.07924,0.0086 0.09819,0.01378 0.02067,-0.01034 0.03273,-0.01034 l 0.01378,0.0034 0.384128,-0.04134 0.155028,0.01034 -0.03101,-0.04995 0.01722,-0.02067 -0.01722,-0.07751 0.01722,-0.05684 -0.02412,-0.151584 0.02412,-0.05684 -0.07062,-0.208428 q -0.0069,-0.02067 -0.0069,-0.03101 0,-0.02584 0.02239,-0.04306 0.02239,-0.01723 0.03101,-0.01723 h 0.02412 l -0.01378,-0.06373 h 0.0534 l 0.01722,0.03962 0.06373,-0.01378 v 0.05512 l 0.04134,-0.01378 v 0.06373 l -0.02412,0.04651 0.03101,0.09129 v 0.04479 l 0.01895,0.04995 -0.02584,0.07062 0.0069,0.05684 -0.02067,0.282498 0.08441,-0.01378 0.07751,-0.0052 0.130913,-0.03445 0.06029,0.0069 0.04479,-0.0069 z m 0.08785,0 -0.05684,0.03962 q -0.02412,-0.0052 -0.02412,-0.02584 0,-0.02756 0.04134,-0.02756 0.02584,0 0.03962,0.01378 z"
       id="text4"
       style="font-size:3.52777px;font-family:'Bradley Hand ITC';-inkscape-font-specification:'Bradley Hand ITC, Normal';opacity:0.5;fill:#ffaa01;fill-rule:evenodd;stroke-width:0.165365"
       aria-label="PITCH" />
    <path
       d="m 2.1154554,57.101896 h 0.093017 q 0.044786,-0.01378 0.055121,-0.01378 0.032728,0 0.032728,0.03273 0,0.02412 -0.036174,0.02412 h -0.01378 l -0.049954,0.02756 -0.062012,-0.02067 -0.089572,0.04995 -0.037896,-0.01895 q -0.024116,-0.01378 -0.056844,-0.01378 -0.01378,0 -0.043064,0.0069 -0.029283,0.0069 -0.044786,0.0069 h -0.00689 l -0.043064,-0.0069 -0.074069,0.02584 -0.031006,-0.0034 -0.01378,0.01033 -0.1636417,0.0034 -0.041341,-0.0069 -0.01378,0.02412 -0.056844,-0.01723 -0.037896,0.01895 q -0.018948,0.0086 -0.072347,0.0086 l -0.048231,-0.01033 q -0.036173,0 -0.068902,0.0086 -0.031006,0.0086 -0.1119653,0.0155 l -0.031006,0.03273 -0.02067,-0.0069 q -0.012058,0.0155 -0.012058,0.04823 0,0.04306 0.053399,0.163641 l -0.027561,0.08096 0.027561,0.02067 -0.027561,0.04306 q 0.027561,0.0052 0.027561,0.0379 l -0.017225,0.07062 -0.010335,0.141249 0.00689,0.0534 0.1274682,0.01723 0.09474,-0.02412 0.031006,0.01722 q 0.010335,0.0069 0.080959,0.0069 0.034451,0 0.053399,-0.02412 l 0.067179,-0.0155 0.08096,0.02928 q 0.084405,-0.01722 0.098185,-0.01722 0.020671,0 0.056844,-0.01206 l 0.043064,0.0155 0.056844,-0.0155 0.031006,0.01895 q 0.08096,-0.0034 0.093017,-0.0069 0.01378,-0.0034 0.027561,-0.0034 0.010335,0 0.031006,0.0034 0.020671,0.0034 0.027561,0.0034 0.020671,0 0.036173,-0.02239 l 0.08785,-0.01034 0.036173,0.01034 q 0.01378,-0.0069 0.024116,-0.0069 l 0.037896,0.01378 h 0.018948 l -0.00689,0.01895 q -0.039619,0.0017 -0.099908,0.04134 h -0.04823 l -0.032728,0.02239 -0.08096,-0.0086 -0.068902,0.02412 q -0.079237,0.02239 -0.1067978,0.02239 l -0.056844,-0.01723 -0.01378,0.01723 -0.1067977,-0.01378 -0.041341,0.02067 -0.063734,-0.0069 -0.049954,0.01206 q -0.051676,0.01206 -0.08096,0.01206 h -0.024116 q -0.022393,0 -0.056844,0.01895 l -0.039619,-0.02584 -0.017225,-0.0034 q -0.020671,0 -0.1016301,0.03617 l -0.067179,-0.01034 -0.027561,0.01034 -0.049954,-0.01034 q -0.022393,0 -0.043064,0.20326 0,0.05857 -0.00689,0.106798 0.0206709,0.03962 0.0137799,0.05684 l -0.037896,0.111966 0.020671,0.04306 -0.024116,0.04479 0.010335,0.05684 -0.01378,0.02756 q 0.00345,0.0069 0.00345,0.02584 0,0.04479 -0.027561,0.149861 -0.027561,0.105076 -0.049954,0.213596 l -0.039619,-0.02239 h -0.024116 l 0.00689,-0.04134 v -0.03273 l 0.017225,-0.01723 0.00344,-0.04306 q 0,-0.02067 0.025838,-0.07579 l -0.025838,-0.01895 v -0.0379 l -0.017225,-0.01723 0.027561,-0.0534 -0.031006,-0.01033 q 0.00689,-0.03101 0.018948,-0.06201 0.012058,-0.03101 0.012058,-0.0379 v -0.0069 l -0.01378,-0.01723 0.00344,-0.02412 -0.010335,-0.0534 0.020671,-0.05684 -0.010335,-0.137803 0.025838,-0.137804 -0.015503,-0.05512 v -0.06373 q 0,-0.02756 -0.027561,-0.03962 l -0.0947399,0.03962 -0.0706243,-0.03962 -0.0671792,0.01034 q -0.00689,0.0034 -0.0206705,0.0034 -0.0258382,0 -0.0258382,-0.04823 0,-0.04651 0.0172254,-0.06718 0.0172254,-0.02067 0.0706243,-0.02067 0.0465087,0 0.0826821,0.0034 l 0.10507697,0.01049 h 0.024116 q 0.043064,0 0.056844,-0.06029 l -0.017225,-0.04651 v -0.165364 l -0.017225,-0.0034 0.01378,-0.191202 -0.039619,-0.105076 -0.00345,-0.07062 -0.098185,-0.04651 -0.0809596,0.0534 -0.0327283,-0.04479 q -0.0310058,-0.0069 -0.037896,-0.03273 0.0172254,-0.02067 0.0172254,-0.09129 0.0533989,0 0.0895723,-0.02584 0.037896,-0.02756 0.0620116,-0.02756 l 0.098185,0.01034 q 0.010335,0 0.067179,-0.0034 l 0.17397698,-0.01034 0.1188555,0.01723 0.120578,-0.0069 q 0.015503,-0.0069 0.029283,-0.0155 0.015503,-0.0086 0.017225,-0.0086 0.00345,0 0.018948,0.0069 0.017225,0.0069 0.018948,0.0069 h 0.00689 q 0.00861,0 0.1343584,-0.02067 l 0.00345,0.02067 q 0.012058,-0.01722 0.024116,-0.01722 0.017225,0 0.039619,0.02756 l 0.024116,-0.01034 0.093017,-0.01033 h 0.00689 l 0.2067052,0.02756 q 0.049954,-0.01378 0.099908,-0.01378 0.020671,0 0.041341,0.01378 z m 3.0334,1.870683 q -0.00861,0.01033 -0.051676,0.02412 l -0.074069,-0.04995 -0.096462,-0.118856 -0.027561,-0.07062 q -0.010335,-0.06718 -0.027561,-0.113688 -0.039619,-0.04479 -0.039619,-0.192925 0,-0.02412 0.00689,-0.03617 0.00861,-0.01206 0.018948,-0.115411 l -0.036173,-0.07407 0.010335,-0.03617 -0.010335,-0.06718 0.00345,-0.07751 -0.024116,-0.02412 0.020671,-0.0534 -0.020671,-0.03101 0.020671,-0.03273 -0.024116,-0.07407 v -0.111965 l -0.029283,-0.06718 q -0.00172,-0.04479 -0.00517,-0.07751 -0.00172,-0.03273 -0.065457,-0.07407 l -0.044786,0.05512 -0.039619,0.01895 -0.1188555,0.165364 -0.1033526,0.124023 -0.034451,0.07407 -0.099908,0.111965 -0.1326358,0.09991 -0.012058,0.05857 -0.070624,0.02584 -0.010335,0.04823 -0.08096,0.03962 -0.027561,0.06718 -0.056844,0.02067 -0.08096,0.144693 q -0.048231,0 -0.056844,0.08785 -0.01378,0.0034 -0.024116,0.0034 -0.01378,-0.03101 -0.056844,-0.0913 l 0.00689,-0.04651 -0.024116,-0.03101 0.024116,-0.03101 -0.022393,-0.02584 q -0.00861,-0.01033 -0.027561,-0.07407 l -0.048231,-0.04479 q -0.01378,-0.0052 -0.037896,-0.03962 -0.022393,-0.03617 -0.034451,-0.0534 -0.012058,-0.01723 -0.031006,-0.08441 l -0.037896,-0.04479 -0.067179,-0.134358 -0.070624,-0.08096 -0.024116,-0.04995 -0.067179,-0.07407 -0.070624,-0.110243 q -0.060289,-0.0913 -0.09474,-0.0913 -0.024116,0 -0.046509,0.0086 -0.020671,0.0086 -0.024116,0.0086 h -0.00517 v 0.04306 q 0,0.117133 -0.031006,0.175699 l -0.074069,0.137804 0.017225,0.08957 -0.024116,0.06201 -0.070624,0.237711 -0.027561,0.07751 -0.012058,0.05168 -0.044786,0.113688 -0.056844,0.09819 0.00689,0.07751 -0.060289,0.144693 q 0,0.03101 0.032728,0.04651 -0.068902,0.08441 -0.091295,0.08441 -0.00861,0 -0.027561,-0.02756 -0.018948,-0.02584 -0.018948,-0.06373 0,-0.0069 0.01378,-0.04306 0.01378,-0.0379 0.024116,-0.08957 0.010335,-0.05168 0.029283,-0.07407 0.020671,-0.02412 0.020671,-0.02584 v -0.08613 q 0,-0.07407 0.070624,-0.10852 v -0.05684 l 0.020671,-0.08096 q -0.00345,-0.0069 -0.00345,-0.02067 0,-0.01723 0.018948,-0.07062 0.024116,-0.02928 0.024116,-0.06374 v -0.07751 l 0.031006,-0.05684 0.063734,-0.211873 -0.017225,-0.09474 0.031006,-0.02412 0.012058,-0.04306 0.00345,-0.151584 q 0.017225,-0.09474 0.017225,-0.134358 0,-0.0379 -0.046509,-0.130914 l 0.029283,-0.05857 -0.015503,-0.02584 q 0.015503,-0.0069 0.015503,-0.03101 0.051676,0 0.065457,-0.02412 l 0.032728,0.0034 0.041341,0.03101 v 0.03101 l 0.039619,0.02584 0.010335,0.08096 0.032728,0.02756 0.01378,0.04995 h 0.017225 q -0.00689,0.01378 -0.00689,0.02412 0,0.03101 0.056844,0.03617 0.022393,0.01033 0.048231,0.0379 l 0.00689,0.04651 0.039619,0.04134 0.024116,0.08268 0.1584741,0.168809 0.029283,0.09474 0.053399,0.04306 0.048231,0.137803 0.1205781,0.215318 q 0.037896,0.06374 0.091295,0.111966 l 0.00689,-0.04651 h 0.063734 l 0.039619,-0.08785 0.074069,-0.05168 q 0.018948,-0.02756 0.063734,-0.07062 v -0.02928 q 0.037896,-0.02584 0.077514,-0.04651 0.041341,-0.02239 0.041341,-0.02756 0,-0.0034 -0.00345,-0.0034 0,-0.02412 0.02067,-0.05684 h 0.036174 l 0.031006,-0.04479 q 0.012058,0.01723 0.018948,0.01723 0.00345,0 0.00345,-0.01034 0,-0.0034 -0.00861,-0.06373 0.077514,-0.105075 0.1378035,-0.105075 v -0.04306 q 0,-0.03617 0.060289,-0.0534 l 0.02067,0.0069 0.00861,-0.02067 0.074069,-0.117133 0.00689,-0.02412 h 0.024116 q 0.051676,-0.05512 0.077515,-0.130913 0.022393,-0.01723 0.053399,-0.01723 0.012058,0 0.017225,0.01033 l 0.024116,-0.05168 -0.01378,-0.106797 -0.02067,-0.04995 q 0.037896,-0.05512 0.049954,-0.111965 0.037896,0.0052 0.055121,0.01378 0.00861,0.01206 0.046509,0.01723 l 0.00689,0.05684 q 0.058567,0.04995 0.060289,0.05512 0.00345,0.0052 0.00345,0.02239 l -0.00345,0.02928 v 0.09474 l 0.020671,0.03101 -0.020671,0.01895 0.020671,0.0069 -0.00689,0.0379 0.01378,0.01722 0.010335,0.07407 0.018948,0.0155 -0.036173,0.04823 0.017225,0.0069 -0.010335,0.07407 0.025838,0.06374 -0.00861,0.08096 0.032728,0.127468 q 0.00861,0.0379 0.017225,0.105076 -0.020671,0.04306 -0.041341,0.06373 l 0.02067,0.04306 q 0.01378,0.0086 0.01378,0.01723 0,0.0086 -0.01378,0.03445 -0.012058,0.02411 -0.017225,0.04306 l 0.027561,0.02584 -0.010335,0.192925 0.034451,0.120578 v 0.141249 l 0.025838,0.02756 q 0.020671,0.05168 0.034451,0.07062 0.01378,0.01895 0.053399,0.06201 0.041341,0.04134 0.044786,0.06201 z m 1.6794805,-1.831064 -0.01378,0.0034 -0.020671,0.0534 0.020671,0.01033 -0.010335,0.07751 q -0.010335,0.0155 -0.010335,0.03445 l 0.010335,0.04651 v 0.04306 l -0.017225,0.01723 0.017225,0.02067 -0.025838,0.06373 0.00861,0.06029 -0.056844,0.111965 0.01378,0.0069 q -0.00689,0.01723 -0.00689,0.04306 l 0.00689,0.0534 v 0.0069 l -0.039619,0.01723 0.039619,0.08785 h -0.024116 l 0.010335,0.03273 -0.025838,0.04479 0.032728,0.06029 -0.00689,0.02412 h -0.017225 q -0.012058,0 -0.012058,0.02239 0,0.03962 0.043064,0.06718 -0.034451,0.0155 -0.037896,0.09818 l -0.00517,0.0379 0.018948,0.05684 -0.018948,0.04306 0.00345,0.130914 -0.017225,0.09129 0.036173,0.01723 q -0.00689,0.03617 -0.017225,0.0534 -0.00861,0.0155 -0.00861,0.03101 0,0.02928 0.036173,0.07407 l -0.024116,0.0069 0.044786,0.04651 -0.017225,0.02756 0.049954,0.0155 q -0.010335,0.04995 -0.039619,0.08441 -0.031006,-0.01034 -0.031006,-0.04651 l -0.046509,-0.06029 -0.027561,-0.0069 0.01378,-0.06029 -0.056844,-0.06373 0.024116,-0.03101 -0.034451,-0.0534 0.010335,-0.07407 q -0.00689,-0.01895 -0.01378,-0.03445 l -0.01378,-0.02928 0.027561,-0.04134 -0.01378,-0.04651 0.01378,-0.03101 -0.046509,-0.03617 0.036173,-0.05168 -0.00345,-0.237711 0.024116,-0.182589 -0.010335,-0.180867 0.017225,-0.04823 -0.017225,-0.01378 0.010335,-0.04306 v -0.06373 l 0.01378,-0.02412 -0.024116,-0.0069 0.017225,-0.08096 q -0.039619,0 -0.048231,-0.02584 h 0.048231 l 0.00689,-0.05684 -0.024116,-0.0069 0.017225,-0.04134 q 0.029283,-0.02412 0.029283,-0.04995 0,-0.02584 -0.022393,-0.0534 l 0.022393,-0.0069 v -0.03101 h 0.034451 l 0.020671,-0.04995 0.029283,-0.01034 q 0.084405,0 0.098185,0.05684 z m 2.7130066,0.285942 -0.044786,0.07062 0.00689,0.05512 0.017225,-0.0069 q 0,0.02411 -0.024116,0.08096 l -0.02067,0.04651 v 0.180867 l -0.036173,0.08096 0.00689,0.05168 -0.031006,0.160197 0.01378,0.04134 -0.027561,0.127468 0.00689,0.05684 -0.025838,0.0913 0.025838,0.08785 -0.056844,0.08785 0.01378,0.04995 -0.031006,0.06029 0.017225,0.03445 0.01378,0.165364 0.024116,0.0534 q -0.025838,0.01723 -0.037896,0.04306 l -0.032728,-0.0069 -0.017225,-0.173977 -0.024116,-0.0069 q -0.00344,-0.03101 -0.00517,-0.06201 0,-0.03273 -0.00172,-0.06373 v -0.0689 q 0,-0.0379 -0.010335,-0.05684 l -0.022393,-0.04479 -0.067179,-0.01034 -0.037896,-0.04651 -0.017225,0.02239 -0.032728,-0.03962 -0.056844,0.01723 -0.068902,-0.05512 -0.036174,0.0069 -0.070624,-0.01378 -0.041341,-0.04306 -0.025838,0.0069 -0.215318,-0.137804 -0.024116,-0.03101 -0.074069,-0.03273 -0.046509,-0.05857 -0.041341,-0.02239 -0.056844,-0.05684 -0.158474,-0.0689 -0.1136879,-0.144694 -0.048231,-0.0034 -0.025838,-0.03962 q -0.048231,-0.02067 -0.1119654,-0.09474 h 0.017225 q -0.032728,-0.02928 -0.056844,-0.08096 l -0.024116,-0.0086 h -0.00689 q -0.037896,0 -0.049954,0.02412 -0.010335,0.02412 -0.024116,0.103353 l -0.032728,0.180867 0.032728,0.10852 -0.049954,0.180867 q 0.02067,0.10852 0.02067,0.118856 v 0.01378 q 0,0.04306 -0.022393,0.0689 -0.022393,0.02584 -0.022393,0.0379 0,0.0086 0.044786,0.02412 l -0.02067,0.07407 v 0.08785 l -0.017226,0.09646 0.017226,0.0379 -0.017226,0.02584 q -0.00689,0.105075 -0.046509,0.165364 h -0.024116 q -0.043064,0 -0.043064,-0.06718 v -0.01378 l 0.043064,-0.137804 -0.017225,-0.05684 0.024116,-0.07407 -0.024116,-0.02756 0.027561,-0.05684 -0.039619,-0.0534 q 0.00861,-0.04134 0.00861,-0.06718 0,-0.02756 -0.00861,-0.07751 l 0.015503,0.0069 0.01378,-0.03445 -0.029283,-0.0534 0.029283,-0.08096 -0.017225,-0.105075 0.024116,-0.113688 -0.02067,-0.07751 0.024116,-0.168809 -0.00345,-0.130914 0.017225,-0.120578 -0.017225,-0.0379 0.00345,-0.170532 0.039618,-0.01033 q -0.046509,-0.04479 -0.046509,-0.08096 0,-0.02067 0.02067,-0.0379 l 0.063734,0.01378 0.017225,-0.02412 q 0.032728,0.02584 0.032728,0.05512 0,0.02067 -0.018948,0.04995 h 0.049954 l 0.00689,0.08096 0.043064,0.03617 0.00689,0.05168 0.056844,0.03617 0.018948,0.07235 q 0.010335,0.04134 0.036173,0.06201 l 0.117133,0.0844 v 0.0069 q 0,0.02756 0.036173,0.06373 l 0.08096,0.05512 0.08785,0.103353 0.275607,0.229098 h 0.031006 q 0.037896,0.03101 0.048231,0.05684 0.010335,0.02584 0.018948,0.02756 l 0.1119654,0.03617 0.089572,0.07407 0.051676,0.01723 0.099907,0.05684 0.09474,0.02756 q 0.08785,0.08785 0.1481388,0.08785 l 0.053399,-0.01378 h 0.010335 l 0.00689,-0.09819 0.049954,-0.106798 -0.025838,-0.02412 0.010335,-0.165365 0.039618,-0.06029 -0.00517,-0.03962 q -0.00172,-0.01723 -0.034451,-0.07062 l 0.039618,-0.137804 -0.017225,-0.129191 0.034451,-0.251491 -0.041341,-0.04479 0.048231,-0.144694 -0.017225,-0.01895 0.024116,-0.03101 -0.00689,-0.02412 0.053399,-0.02584 0.010335,0.02584 0.049954,-0.01034 q -0.010335,0.03617 -0.010335,0.06546 0,0.03445 0.017225,0.06201 0.017225,0.02584 0.017225,0.03445 l -0.024116,0.06718 z"
       id="text5"
       style="font-size:3.52777px;font-family:'Bradley Hand ITC';-inkscape-font-specification:'Bradley Hand ITC, Normal';opacity:0.5;fill:#ffaa01;fill-rule:evenodd;stroke-width:0.165365"
       aria-label="FM IN " />
    <path
       d="m 17.397713,58.143651 q 0,0.02584 -0.02412,0.03617 l -0.05684,-0.01895 -0.06373,0.04995 -0.07407,-0.01033 q -0.04479,0.03101 -0.09818,0.03101 -0.04134,0 -0.0534,0.01895 -0.04306,-0.01895 -0.08096,-0.01895 -0.03617,0 -0.04651,0.02584 0.0069,0.01723 0.02584,0.03101 l -0.01034,0.03617 0.01034,0.118856 0.04479,0.06718 0.0086,0.06373 0.07751,0.113688 -0.01206,0.05168 0.0534,0.04995 0.08096,0.137804 q 0.06373,0.07407 0.07407,0.105075 l 0.06373,0.03273 0.02412,0.05512 0.02584,0.01895 -0.04651,0.03445 -0.05684,-0.04479 h -0.03445 l -0.04651,-0.03617 h -0.03445 l -0.03273,-0.06029 -0.03445,-0.01723 q -0.04134,-0.08268 -0.0913,-0.130913 v -0.03445 l -0.03273,-0.02928 -0.0034,-0.05512 -0.0534,-0.05684 -0.07407,-0.177422 -0.02411,-0.03101 -0.01206,-0.08785 q -0.0017,-0.01378 -0.04479,-0.08096 v -0.07407 h -0.04134 l -0.04651,0.03101 -0.07062,-0.01378 -0.04823,0.03101 -0.01895,-0.01722 -0.0379,0.02412 -0.01034,-0.02412 q -0.0086,0 -0.03617,0.01033 -0.02584,0.01033 -0.05684,0.01033 l -0.04479,-0.0034 h -0.06029 l -0.06029,0.03962 -0.06374,-0.01378 -0.08785,0.0069 v 0.01722 l -0.03101,-0.01722 -0.04306,0.02411 -0.03101,-0.02411 h -0.05684 l -0.05684,0.02411 -0.04651,-0.04995 -0.02412,0.01895 -0.04995,-0.01895 q -0.05857,0.02584 -0.161919,0.180867 l -0.05684,0.01378 q -0.141248,0.217041 -0.151583,0.218763 l -0.03101,0.01723 -0.09819,0.127468 h -0.01895 l -0.08441,0.137803 -0.09129,0.05684 -0.07062,-0.01895 0.01378,-0.03101 v -0.04995 l 0.02584,-0.03101 -0.01206,-0.02412 0.06373,-0.0086 0.04306,-0.02412 q 0.05684,-0.02412 0.07062,-0.08785 0.07235,-0.01895 0.0844,-0.08096 0.08441,-0.04823 0.113688,-0.158474 l 0.04823,-0.01895 0.113688,-0.1757 v -0.04995 q -0.02412,-0.01895 -0.03617,-0.05168 l 0.06718,-0.06029 v -0.02584 l 0.08096,0.0086 0.04651,-0.02928 0.01034,0.01378 0.04651,-0.06201 q -0.0155,-0.0034 -0.0155,-0.0155 0,-0.0086 0.04995,-0.04134 l 0.01378,0.02067 q 0.0034,-0.04306 0.03617,-0.10163 l -0.01034,-0.0069 0.04134,-0.0034 0.01378,-0.04651 q 0.04306,-0.0052 0.04306,-0.03617 v -0.04134 q 0.0844,-0.07235 0.0844,-0.134358 v -0.0069 l 0.04651,-0.0069 0.01034,-0.04995 0.02412,-0.0069 0.03617,-0.07407 0.02412,0.01723 -0.01722,-0.0379 q 0.05168,-0.0052 0.05684,-0.06718 l 0.02412,0.01378 v -0.07062 h 0.02412 v -0.04995 q 0.0069,-0.0069 0.03962,-0.03445 0.03273,-0.02928 0.04134,-0.07751 l 0.03962,-0.03962 -0.02412,-0.05512 q 0.04823,-0.06373 0.09129,-0.06373 h 0.0069 l 0.02067,-0.03273 0.02411,0.03617 q 0.0086,0.01034 0.03101,0.02239 l 0.05857,0.02928 0.0069,0.08957 q 0.02412,0.02067 0.04479,0.07062 l 0.02928,0.01034 0.0069,0.07751 0.02756,0.105075 0.04651,0.08096 0.03101,0.113688 0.0069,0.07407 0.04995,0.06718 -0.01378,0.02756 0.0379,0.04306 v 0.0534 l 0.0086,0.04823 q 0,0.01378 -0.0155,0.03617 0.0534,0.125746 0.124023,0.125746 l 0.06718,-0.01378 h 0.08096 q 0.0379,0.01034 0.06373,0.01034 0.04479,0 0.0689,-0.02067 0.02584,-0.02067 0.03273,-0.02067 0.01034,0 0.06373,0.03101 z m -0.67007,-0.08785 q -0.02239,-0.05857 -0.05684,-0.07751 l 0.01895,-0.04995 -0.04651,-0.02412 -0.01378,-0.134359 -0.04306,-0.06718 -0.0069,-0.05684 -0.02411,-0.04823 v -0.01895 h -0.01034 l -0.0069,-0.07579 q 0,-0.01206 -0.01895,-0.0379 l -0.02412,-0.0379 q -0.0069,-0.01034 -0.02928,-0.02584 -0.02067,-0.0155 -0.06546,-0.03617 l -0.03962,0.02067 -0.02411,0.04134 -0.08441,0.120578 -0.02067,0.03962 q -0.0086,0.01723 -0.08268,0.09129 l -0.01378,0.05684 -0.07407,0.0379 q -0.02582,0.134363 -0.10506,0.155033 l -0.03273,0.106798 -0.07062,0.02756 v 0.03617 l -0.01033,0.04479 q 0.06201,0.01895 0.08785,0.03617 l 0.04306,-0.0034 0.07062,0.01723 q 0.02067,0.0069 0.03101,0.0069 0.0155,0 0.04995,-0.0069 0.0034,-0.0034 0.01378,-0.0034 0.0052,0 0.02584,0.0069 0.02239,0.0069 0.04134,0.0069 l 0.04651,-0.01033 0.137804,-0.01034 0.111965,-0.0155 q 0.10852,0.0155 0.137803,0.0155 0.08096,0 0.08096,-0.03617 0,-0.02239 -0.03101,-0.06029 z m 3.612175,1.016301 q -0.0086,0.01034 -0.05168,0.02412 l -0.07407,-0.04995 -0.09646,-0.118855 -0.02756,-0.07062 q -0.01033,-0.06718 -0.02756,-0.113687 -0.03962,-0.04479 -0.03962,-0.192925 0,-0.02412 0.0069,-0.03617 0.0086,-0.01206 0.01895,-0.11541 l -0.03617,-0.07407 0.01033,-0.03617 -0.01033,-0.06718 0.0034,-0.07751 -0.02412,-0.02412 0.02067,-0.0534 -0.02067,-0.03101 0.02067,-0.03273 -0.02412,-0.07407 V 57.81638 l -0.02928,-0.06718 q -0.0017,-0.04479 -0.0052,-0.07751 -0.0017,-0.03273 -0.06546,-0.07407 l -0.04479,0.05512 -0.03962,0.01895 -0.118856,0.165364 -0.103352,0.124024 -0.03445,0.07407 -0.09991,0.111965 -0.132636,0.09991 -0.01206,0.05857 -0.07062,0.02584 -0.01033,0.04823 -0.08096,0.03962 -0.02756,0.06718 -0.05684,0.02067 -0.08096,0.144694 q -0.04823,0 -0.05684,0.08785 -0.01378,0.0034 -0.02412,0.0034 -0.01378,-0.03101 -0.05684,-0.0913 l 0.0069,-0.04651 -0.02412,-0.03101 0.02412,-0.03101 -0.02239,-0.02584 q -0.0086,-0.01033 -0.02756,-0.07407 l -0.04823,-0.04479 q -0.01378,-0.0052 -0.0379,-0.03962 -0.02239,-0.03617 -0.03445,-0.0534 -0.01206,-0.01722 -0.03101,-0.0844 l -0.0379,-0.04479 -0.06718,-0.134359 -0.07062,-0.08096 -0.02412,-0.04995 -0.06718,-0.07407 -0.07062,-0.110242 q -0.06029,-0.09129 -0.09474,-0.09129 -0.02412,0 -0.04651,0.0086 -0.02067,0.0086 -0.02412,0.0086 h -0.0052 v 0.04306 q 0,0.117133 -0.03101,0.175699 l -0.07407,0.137804 0.01723,0.08957 -0.02412,0.06201 -0.07062,0.237711 -0.02756,0.07751 -0.01206,0.05168 -0.04479,0.113687 -0.05684,0.09819 0.0069,0.07751 -0.06029,0.144694 q 0,0.03101 0.03273,0.04651 -0.0689,0.0844 -0.0913,0.0844 -0.0086,0 -0.02756,-0.02756 -0.01895,-0.02584 -0.01895,-0.06373 0,-0.0069 0.01378,-0.04306 0.01378,-0.0379 0.02411,-0.08957 0.01034,-0.05168 0.02928,-0.07407 0.02067,-0.02412 0.02067,-0.02584 v -0.08613 q 0,-0.07407 0.07062,-0.10852 v -0.05684 l 0.02067,-0.08096 q -0.0034,-0.0069 -0.0034,-0.02067 0,-0.01723 0.01895,-0.07062 0.02412,-0.02928 0.02412,-0.06373 v -0.07751 l 0.03101,-0.05684 0.06373,-0.211873 -0.01722,-0.09474 0.03101,-0.02412 0.01206,-0.04306 0.0034,-0.151584 q 0.01722,-0.09474 0.01722,-0.134358 0,-0.0379 -0.04651,-0.130913 l 0.02928,-0.05857 -0.0155,-0.02584 q 0.0155,-0.0069 0.0155,-0.03101 0.05168,0 0.06546,-0.02412 l 0.03273,0.0034 0.04134,0.03101 v 0.03101 l 0.03962,0.02584 0.01033,0.08096 0.03273,0.02756 0.01378,0.04995 h 0.01722 q -0.0069,0.01378 -0.0069,0.02412 0,0.03101 0.05684,0.03617 0.02239,0.01034 0.04823,0.0379 l 0.0069,0.04651 0.03962,0.04134 0.02412,0.08268 0.158474,0.16881 0.02928,0.09474 0.0534,0.04306 0.04823,0.137804 0.120578,0.215318 q 0.0379,0.06373 0.0913,0.111965 l 0.0069,-0.04651 h 0.06373 l 0.03962,-0.08785 0.07407,-0.05168 q 0.01895,-0.02756 0.06373,-0.07062 v -0.02928 q 0.0379,-0.02584 0.07752,-0.04651 0.04134,-0.02239 0.04134,-0.02756 0,-0.0034 -0.0034,-0.0034 0,-0.02412 0.02067,-0.05684 h 0.03617 l 0.03101,-0.04479 q 0.01206,0.01723 0.01895,0.01723 0.0034,0 0.0034,-0.01034 0,-0.0034 -0.0086,-0.06373 0.07751,-0.105075 0.137803,-0.105075 v -0.04306 q 0,-0.03617 0.06029,-0.0534 l 0.02067,0.0069 0.0086,-0.02067 0.07407,-0.117133 0.0069,-0.02411 h 0.02412 q 0.05168,-0.05512 0.07751,-0.130914 0.02239,-0.01722 0.0534,-0.01722 0.01206,0 0.01723,0.01033 l 0.02411,-0.05168 -0.01378,-0.106798 -0.02067,-0.04995 q 0.0379,-0.05512 0.04995,-0.111965 0.0379,0.0052 0.05512,0.01378 0.0086,0.01206 0.04651,0.01723 l 0.0069,0.05684 q 0.05857,0.04995 0.06029,0.05512 0.0034,0.0052 0.0034,0.02239 l -0.0034,0.02928 v 0.09474 l 0.02067,0.03101 -0.02067,0.01895 0.02067,0.0069 -0.0069,0.0379 0.01378,0.01723 0.01034,0.07407 0.01895,0.0155 -0.03617,0.04823 0.01723,0.0069 -0.01034,0.07407 0.02584,0.06373 -0.0086,0.08096 0.03273,0.127469 q 0.0086,0.0379 0.01722,0.105075 -0.02067,0.04306 -0.04134,0.06373 l 0.02067,0.04306 q 0.01378,0.0086 0.01378,0.01723 0,0.0086 -0.01378,0.03445 -0.01206,0.02412 -0.01723,0.04306 l 0.02756,0.02584 -0.01034,0.192925 0.03445,0.120578 v 0.141248 l 0.02584,0.02756 q 0.02067,0.05168 0.03445,0.07062 0.01378,0.01895 0.0534,0.06201 0.04134,0.04134 0.04479,0.06201 z m 1.67948,-1.831064 -0.01378,0.0034 -0.02067,0.0534 0.02067,0.01034 -0.01034,0.07751 q -0.01034,0.0155 -0.01034,0.03445 l 0.01034,0.04651 v 0.04306 l -0.01723,0.01722 0.01723,0.02067 -0.02584,0.06373 0.0086,0.06029 -0.05684,0.111966 0.01378,0.0069 q -0.0069,0.01722 -0.0069,0.04306 l 0.0069,0.0534 v 0.0069 l -0.03962,0.01723 0.03962,0.08785 h -0.02412 l 0.01034,0.03273 -0.02584,0.04479 0.03273,0.06029 -0.0069,0.02412 h -0.01722 q -0.01206,0 -0.01206,0.02239 0,0.03962 0.04306,0.06718 -0.03445,0.0155 -0.0379,0.09819 l -0.0052,0.0379 0.01895,0.05684 -0.01895,0.04306 0.0034,0.130914 -0.01722,0.09129 0.03617,0.01723 q -0.0069,0.03617 -0.01723,0.0534 -0.0086,0.0155 -0.0086,0.03101 0,0.02928 0.03617,0.07407 l -0.02411,0.0069 0.04479,0.04651 -0.01723,0.02756 0.04995,0.0155 q -0.01033,0.04995 -0.03962,0.0844 -0.03101,-0.01033 -0.03101,-0.04651 l -0.04651,-0.06029 -0.02756,-0.0069 0.01378,-0.06029 -0.05684,-0.06373 0.02412,-0.03101 -0.03445,-0.0534 0.01034,-0.07407 q -0.0069,-0.01895 -0.01378,-0.03445 l -0.01378,-0.02928 0.02756,-0.04134 -0.01378,-0.04651 0.01378,-0.03101 -0.04651,-0.03617 0.03617,-0.05168 -0.0034,-0.237711 0.02411,-0.18259 -0.01033,-0.180867 0.01722,-0.04823 -0.01722,-0.01378 0.01033,-0.04306 v -0.06373 l 0.01378,-0.02412 -0.02412,-0.0069 0.01722,-0.08096 q -0.03962,0 -0.04823,-0.02584 h 0.04823 l 0.0069,-0.05684 -0.02412,-0.0069 0.01722,-0.04134 q 0.02928,-0.02412 0.02928,-0.04995 0,-0.02584 -0.02239,-0.0534 l 0.02239,-0.0069 v -0.03101 h 0.03445 l 0.02067,-0.04995 0.02928,-0.01034 q 0.08441,0 0.09819,0.05684 z m 2.713007,0.285942 -0.04479,0.07062 0.0069,0.05512 0.01722,-0.0069 q 0,0.02412 -0.02411,0.08096 l -0.02067,0.04651 v 0.180867 l -0.03617,0.08096 0.0069,0.05168 -0.03101,0.160197 0.01378,0.04134 -0.02756,0.127468 0.0069,0.05684 -0.02584,0.09129 0.02584,0.08785 -0.05684,0.08785 0.01378,0.04995 -0.03101,0.06029 0.01722,0.03445 0.01378,0.165364 0.02412,0.0534 q -0.02584,0.01723 -0.0379,0.04306 l -0.03273,-0.0069 -0.01723,-0.173977 -0.02411,-0.0069 q -0.0034,-0.03101 -0.0052,-0.06201 0,-0.03273 -0.0017,-0.06373 v -0.0689 q 0,-0.0379 -0.01034,-0.05684 l -0.02239,-0.04479 -0.06718,-0.01033 -0.0379,-0.04651 -0.01723,0.02239 -0.03273,-0.03962 -0.05684,0.01722 -0.0689,-0.05512 -0.03617,0.0069 -0.07062,-0.01378 -0.04134,-0.04306 -0.02584,0.0069 -0.215318,-0.137804 -0.02411,-0.03101 -0.07407,-0.03273 -0.04651,-0.05857 -0.04134,-0.02239 -0.05684,-0.05684 -0.158474,-0.0689 -0.113688,-0.144694 -0.04823,-0.0034 -0.02584,-0.03962 q -0.04823,-0.02067 -0.111965,-0.09474 h 0.01722 q -0.03273,-0.02928 -0.05684,-0.08096 l -0.02412,-0.0086 h -0.0069 q -0.0379,0 -0.04995,0.02412 -0.01033,0.02412 -0.02412,0.103353 l -0.03273,0.180867 0.03273,0.10852 -0.04995,0.180867 q 0.02067,0.108521 0.02067,0.118856 v 0.01378 q 0,0.04306 -0.02239,0.0689 -0.02239,0.02584 -0.02239,0.0379 0,0.0086 0.04479,0.02412 l -0.02067,0.07407 v 0.08785 l -0.01723,0.09646 0.01723,0.0379 -0.01723,0.02584 q -0.0069,0.105075 -0.04651,0.165365 h -0.02411 q -0.04306,0 -0.04306,-0.06718 v -0.01378 l 0.04306,-0.137804 -0.01723,-0.05684 0.02412,-0.07407 -0.02412,-0.02756 0.02756,-0.05684 -0.03962,-0.0534 q 0.0086,-0.04134 0.0086,-0.06718 0,-0.02756 -0.0086,-0.07751 l 0.0155,0.0069 0.01378,-0.03445 -0.02928,-0.0534 0.02928,-0.08096 -0.01723,-0.105075 0.02412,-0.113688 -0.02067,-0.07752 0.02412,-0.168809 -0.0034,-0.130913 0.01722,-0.120579 -0.01722,-0.0379 0.0034,-0.170531 0.03962,-0.01034 q -0.04651,-0.04479 -0.04651,-0.08096 0,-0.02067 0.02067,-0.0379 l 0.06374,0.01378 0.01722,-0.02412 q 0.03273,0.02584 0.03273,0.05512 0,0.02067 -0.01895,0.04995 h 0.04995 l 0.0069,0.08096 0.04306,0.03617 0.0069,0.05168 0.05684,0.03617 0.01895,0.07235 q 0.01034,0.04134 0.03617,0.06201 l 0.117133,0.0844 v 0.0069 q 0,0.02756 0.03617,0.06373 l 0.08096,0.05512 0.08785,0.103353 0.275607,0.229098 h 0.03101 q 0.0379,0.03101 0.04823,0.05684 0.01034,0.02584 0.01895,0.02756 l 0.111966,0.03617 0.08957,0.07407 0.05168,0.01723 0.09991,0.05684 0.09474,0.02756 q 0.08785,0.08785 0.148138,0.08785 l 0.0534,-0.01378 h 0.01034 l 0.0069,-0.09819 0.04995,-0.106798 -0.02584,-0.02412 0.01034,-0.165364 0.03962,-0.06029 -0.0052,-0.03962 q -0.0017,-0.01722 -0.03445,-0.07062 l 0.03962,-0.137804 -0.01722,-0.129191 0.03445,-0.251491 -0.04134,-0.04479 0.04823,-0.144694 -0.01723,-0.01895 0.02412,-0.03101 -0.0069,-0.02411 0.0534,-0.02584 0.01034,0.02584 0.04995,-0.01034 q -0.01034,0.03617 -0.01034,0.06546 0,0.03445 0.01723,0.06201 0.01722,0.02584 0.01722,0.03445 l -0.02411,0.06718 z"
       id="text6"
       style="font-size:3.52777px;font-family:'Bradley Hand ITC';-inkscape-font-specification:'Bradley Hand ITC, Normal';opacity:0.5;fill:#ffaa01;fill-rule:evenodd;stroke-width:0.165365"
       aria-label="AM IN" />
    <path
       d="m 11.175809,73.093628 -0.03273,0.07751 -0.01033,0.106798 -0.03101,0.03101 -0.03617,0.113688 q -0.0052,0.02239 -0.01034,0.03273 -0.0052,0.01033 -0.02239,0.01722 l -0.0379,0.0155 -0.208428,0.167087 -0.04823,0.02412 q -0.02239,0.01034 -0.07062,0.05684 v -0.02067 l -0.144693,0.111965 -0.06373,0.02756 -0.151583,0.08268 q -0.03273,-0.0155 -0.06373,-0.0155 -0.02412,0 -0.0379,0.01723 -0.01206,0.01722 -0.02584,0.02239 l -0.03101,-0.0069 -0.05684,0.0534 -0.02928,-0.0155 -0.01378,0.01895 H 9.988986 l -0.031006,0.03101 -0.1050752,-0.0069 -0.1705318,0.03101 q -0.010335,-0.0034 -0.031006,-0.0034 l -0.053399,0.0069 -0.060289,-0.01034 -0.01378,-0.01378 -0.1481387,-0.02412 -0.070624,-0.03617 h -0.031006 v -0.06718 l -0.049954,0.01895 -0.024116,-0.03445 q -0.015503,-0.01895 -0.034451,-0.02928 l -0.055121,-0.02584 q -0.027561,-0.07751 -0.031006,-0.179145 l -0.017225,-0.02412 -0.00689,-0.141249 0.048231,-0.151584 -0.00689,-0.07407 0.032728,-0.02928 -0.025838,-0.06029 0.060289,-0.04823 v -0.04995 l 0.020671,-0.04651 v -0.0379 l 0.025838,-0.04306 -0.010335,-0.01378 0.017225,-0.01033 0.074069,-0.16881 0.1378035,-0.218763 q 0.031006,-0.01034 0.044786,-0.03617 0.01378,-0.02756 0.074069,-0.07062 l -0.00689,-0.03101 h 0.043064 l -0.010335,-0.02067 q 0.039619,-0.04134 0.1085203,-0.06373 l 0.025838,-0.02928 h -0.00344 q 0,-0.0017 0.067179,-0.01033 l 0.1619191,-0.02067 0.1016308,0.01378 0.07751,-0.0034 h 0.0913 q 0.03617,0.0069 0.04995,0.0069 0.04823,0 0.07407,-0.03101 0.01723,0.01723 0.03962,0.01723 0.01033,0 0.01722,-0.0034 0.0017,0.03445 0.03445,0.03445 0.01378,0.0155 0.07751,0.02239 l 0.02584,0.02412 0.05168,0.0069 h 0.06718 l 0.09646,0.04995 H 10.7159 l 0.06546,0.04651 q 0.01206,0.0086 0.03445,0.04823 l 0.05168,0.02412 0.02584,0.04306 0.06029,0.02411 0.117133,0.194648 q 0.01206,0.01895 0.04134,0.09819 l 0.04651,0.125746 q 0.01723,0.04479 0.01723,0.05857 z m -0.113688,-0.09129 -0.03101,-0.08096 0.0034,-0.02584 q 0,-0.01722 -0.0086,-0.0379 -0.0086,-0.02067 -0.07235,-0.06029 l -0.02584,-0.06718 -0.02067,-0.01033 -0.01034,-0.03962 -0.09991,-0.105075 -0.08785,-0.07407 -0.02756,0.01033 -0.127469,-0.08096 q -0.01722,-0.01033 -0.07407,-0.01895 -0.05512,-0.0086 -0.08441,-0.02756 0,0.0034 -0.01033,0.0034 -0.0069,0 -0.0534,-0.0069 l -0.01722,0.01206 -0.0534,-0.01895 -0.03445,0.01895 q -0.04651,-0.0155 -0.06373,-0.0155 -0.01033,0 -0.03101,0.0086 -0.01895,0.0069 -0.02928,0.0069 -0.01723,0 -0.02412,-0.0086 -0.03617,0.01895 -0.05857,0.04479 -0.020671,0.02412 -0.068902,0.04479 l -0.049954,-0.01206 -0.048231,0.03273 -0.056844,-0.0069 -0.02067,0.0086 q -0.010335,0.0052 -0.018948,0.01378 -0.00861,0.0069 -0.022393,0.01723 -0.012058,0.01033 -0.031006,0.02412 -0.017225,0.01206 -0.039618,0.02756 -0.02067,0.0155 -0.046509,0.03101 -0.012058,0.0086 -0.046509,0.07062 l 0.00345,0.04995 -0.063734,0.02756 q -0.010335,0.0052 -0.043064,0.04306 -0.025838,0.05857 -0.063734,0.09474 v 0.04306 q -0.041341,0.01723 -0.048231,0.04306 l -0.032728,0.10163 -0.058567,0.0379 q -0.012058,0.215318 -0.037896,0.249769 -0.024116,0.03445 -0.034451,0.06373 -0.00861,0.02756 -0.01378,0.06201 -0.00345,0.03273 -0.024116,0.09474 l 0.020671,0.04134 0.010335,0.06373 0.032728,0.04306 q 0.00689,0.01033 0.010335,0.02584 l 0.00689,0.04134 q 0.067179,0.07579 0.1670868,0.106798 0.099908,0.03101 0.1154105,0.02756 l 0.1136879,-0.02928 0.024116,0.02584 h 0.056844 v 0.02412 h 0.055121 l 0.015503,-0.04306 0.055121,-0.0069 0.1412486,0.01723 q 0.018948,-0.03445 0.043063,-0.03445 l 0.01378,0.0034 q 0.07751,-0.04995 0.113687,-0.04995 h 0.01378 l 0.07062,-0.04479 q 0.01378,-0.0069 0.07407,-0.01033 l 0.04479,-0.03962 q 0.127468,-0.0034 0.146416,-0.01722 0.01895,-0.01378 0.03273,-0.02928 0.0155,-0.0155 0.0689,-0.02756 l 0.02412,-0.06718 0.01034,0.0034 0.0069,-0.02412 q 0.04134,-0.01206 0.06718,-0.04651 l 0.03273,0.01034 0.01722,-0.03445 0.05684,-0.04306 0.09474,-0.105075 0.05684,-0.02067 0.02756,-0.06029 0.04651,-0.03273 -0.01033,-0.06373 0.02412,-0.05512 -0.01378,-0.103352 z m 2.838752,1.071422 -0.01034,0.08268 -0.09129,0.03101 -0.01034,0.03445 -0.04995,-0.01722 -0.06029,0.03962 -0.0379,0.0034 q -0.08441,0 -0.117133,-0.0379 -0.03273,-0.03617 -0.0379,-0.03617 l -0.01895,0.01378 q -0.07407,-0.03962 -0.118855,-0.120578 l 0.01378,-0.0069 -0.07062,-0.08096 -0.02412,-0.09474 -0.04306,-0.06718 -0.02412,-0.0913 -0.03273,-0.06718 -0.0534,-0.325561 -0.0034,-0.137803 q -0.02412,-0.05168 -0.03101,-0.10163 -0.0034,-0.0034 -0.01378,-0.0034 -0.0155,0 -0.01722,0.0034 l -0.07407,0.10163 -0.07062,0.0534 q -0.0017,0.01895 -0.06373,0.0844 l -0.03445,0.02239 q -0.0155,0.01034 -0.07235,0.07062 0,0.03445 -0.0379,0.04479 l -0.04306,0.04995 -0.05684,0.02412 -0.04823,0.06718 -0.272162,0.211873 -0.120578,0.07407 -0.04306,0.03617 q -0.02756,0.02067 -0.04651,0.02584 l -0.05857,0.01895 -0.0069,0.03962 -0.01378,0.0034 0.0069,0.01378 h -0.08096 l -0.02412,0.01034 0.01723,0.01378 -0.07407,0.0069 q -0.05512,-0.06373 -0.07407,-0.07407 v -0.06373 l -0.03101,-0.03101 -0.03617,-0.215318 -0.01033,-0.02756 -0.01034,-0.141249 0.02067,-0.07062 -0.01033,-0.0534 0.01033,-0.05684 -0.01378,-0.182589 -0.01378,-0.03273 q 0.01033,-0.0155 0.03101,-0.02928 0.02067,-0.0155 0.02067,-0.04479 l -0.02412,-0.03101 0.01378,-0.07407 -0.02756,-0.05684 v -0.0379 l 0.02756,-0.04651 -0.01378,-0.06718 0.02412,-0.105075 -0.01378,-0.137804 0.01378,-0.08096 -0.01378,-0.01378 h 0.02584 q 0,-0.04306 0.01723,-0.04306 h 0.01033 q 0,-0.0034 -0.01033,-0.01378 0.105075,0.01723 0.127468,0.118856 l -0.02584,0.03962 -0.04134,0.211873 q -0.0069,0.04134 -0.0069,0.06029 0,0.03273 0.03445,0.108521 -0.04651,0.222208 -0.04651,0.335896 0,0.03101 0.0017,0.04823 0.0017,0.01722 0.02756,0.04995 -0.01206,0.04823 -0.01378,0.155029 l -0.02584,0.03962 0.03962,0.03101 -0.03273,0.02412 q -0.01034,0.02584 -0.01034,0.04995 0,0.04306 0.01895,0.08096 0.01895,0.0379 0.02928,0.09819 0.01033,0.05857 0.03617,0.08613 h 0.05684 l 0.08096,0.0034 0.0069,-0.02239 q 0.02239,-0.0069 0.02584,-0.0069 0.0086,0 0.01723,0.0069 v -0.0034 q 0,-0.01722 0.02412,-0.02412 l 0.0069,-0.04995 0.06373,0.0155 0.02584,-0.0534 0.05512,-0.02412 q 0.01206,-0.03273 0.03962,-0.03273 0.01034,0 0.03101,0.0069 l 0.0069,-0.03445 q 0.06546,-0.04479 0.09991,-0.04995 v -0.02756 l 0.0379,-0.0069 0.01722,-0.01895 q 0.03101,0 0.04134,-0.0086 0.01034,-0.01034 0.02239,-0.06546 l 0.09991,-0.05168 0.01378,-0.04306 0.02412,0.0069 0.02584,-0.06029 0.06201,-0.02756 0.01206,-0.02412 0.0379,-0.02928 v -0.04479 l 0.03101,-0.0155 0.03617,-0.04823 0.05684,-0.02584 0.0069,-0.03101 h 0.02067 l -0.01378,-0.01378 q 0.02239,-0.03962 0.06029,-0.03962 h 0.01033 v -0.04134 l 0.02412,-0.01034 0.07751,-0.153306 q 0.01034,-0.0379 0.02928,-0.09474 l 0.01378,-0.08096 0.02067,-0.04306 q 0.01034,-0.02067 0.02067,-0.08096 l 0.0052,-0.06201 q 0.0034,-0.03273 0.02067,-0.07924 l 0.03445,-0.02756 0.0534,0.02756 q 0.02584,0.03445 0.07407,0.07062 l -0.01722,0.03273 0.0069,0.06373 q 0,0.04134 -0.04995,0.04134 l -0.01378,0.01378 v 0.03273 l -0.02412,0.04134 v 0.06373 l -0.02584,0.06718 0.0069,0.08785 q -0.03445,0.04823 -0.03445,0.06029 0,0.02239 0.02067,0.04134 0.02067,0.01723 0.02584,0.02928 l -0.02239,0.0069 -0.02067,0.04651 0.02067,0.05684 -0.01033,0.108521 0.03273,0.0534 h -0.01206 q -0.02412,0 -0.01722,0.02239 0.01722,0.06201 0.01722,0.12919 0.02584,0.02412 0.02584,0.04306 0,0.0086 -0.01378,0.01723 l 0.02412,0.07751 q 0.02412,0.113688 0.08785,0.282497 l 0.03962,0.05512 q 0.02067,0.05168 0.04823,0.07924 l 0.09991,0.09474 0.129191,0.02756 0.0155,-0.02756 0.03445,0.01723 q 0.02412,-0.02412 0.04306,-0.02756 0.0155,-0.02584 0.04823,-0.02584 z m 2.239307,-1.738047 -0.01722,0.0379 -0.04479,0.0069 h -0.106798 l -0.04995,0.01206 -0.04134,-0.01206 -0.218763,0.01895 -0.07407,-0.01895 q -0.0913,0.03617 -0.130914,0.03617 H 15.35126 l -0.06373,-0.02412 q 0,0.01723 -0.02584,0.02412 -0.04823,0 -0.09474,0.01378 -0.04479,0.01378 -0.08441,0.01378 l -0.07062,-0.02756 -0.06029,0.02756 -0.0069,0.02239 h -0.03101 l -0.01895,0.03445 -0.01378,0.229098 0.01378,0.03273 -0.0069,0.0379 0.0034,0.10163 -0.01034,0.103353 v 0.03101 q 0,0.02239 -0.01034,0.03445 -0.0086,0.01034 -0.01378,0.05512 l 0.02756,0.04479 -0.0069,0.05684 -0.02412,0.01723 q 0,0.02067 0.02067,0.0534 l -0.02067,0.03445 v 0.03962 l -0.02756,0.04134 0.01723,0.09991 -0.0069,0.144694 -0.02584,0.0913 q 0.0069,0.01378 0.0069,0.02067 0,0.01033 -0.0069,0.02412 -0.0052,0.01206 -0.0017,0.02584 0.0052,0.01206 0.0052,0.02067 0,0.01033 -0.01723,0.04651 -0.01722,0.03445 -0.01206,0.04306 0.0017,0.0034 0.01206,0.05512 -0.01722,0.04651 -0.01722,0.07062 0,0.02412 0.0069,0.07751 -0.02067,0 -0.0379,-0.0052 -0.0155,-0.0052 -0.01895,-0.0052 -0.02756,0 -0.02756,-0.10163 l 0.0069,-0.0534 q 0,-0.02928 -0.0069,-0.08441 -0.0069,-0.05512 -0.0069,-0.08096 l 0.02067,-0.248046 q -0.02756,-0.04651 -0.02756,-0.05168 0,-0.01895 0.01722,-0.03273 -0.01378,-0.01723 -0.01378,-0.03101 0,-0.01033 0.02067,-0.02067 -0.01378,-0.03445 -0.01378,-0.04651 0,-0.01895 0.01206,-0.04995 0.01206,-0.03273 0.01206,-0.0379 l -0.0034,-0.05684 q 0,-0.01033 0.03273,-0.07751 -0.02928,0 -0.02928,-0.04651 0,-0.08096 0.02067,-0.0913 v -0.144694 l -0.02067,-0.07062 0.02067,-0.148139 -0.02067,-0.105075 0.02067,-0.08268 q -0.01378,-0.04823 -0.04823,-0.04823 -0.01895,0 -0.03273,0.01723 l -0.04995,0.0052 q -0.02756,0.0017 -0.05512,0.01895 l -0.04306,-0.0034 -0.04134,0.0034 v 0.01206 h -0.02928 q -0.05857,0 -0.09474,-0.02239 l -0.0069,0.02239 -0.07407,-0.02239 -0.204983,-0.0069 -0.08096,0.02412 q -0.0913,-0.07924 -0.0913,-0.105075 0,-0.0069 0.01378,-0.05684 h 0.05684 l 0.249769,0.04995 0.06029,-0.02067 0.165364,0.0069 0.155029,0.01378 0.103353,-0.03962 h 0.02756 l 0.02928,-0.08096 0.04823,0.0155 0.01033,0.03445 0.02239,-0.01033 q 0.02756,0.03617 0.08096,0.06029 l 0.05684,-0.01895 q 0.05684,0 0.09819,0.04651 l 0.02067,-0.02756 0.130914,-0.02584 0.08096,0.0069 q 0.03445,0.0155 0.06373,0.0155 h 0.01722 q 0.03273,-0.01206 0.0534,-0.01206 l 0.04995,0.0086 q 0.0155,0 0.02067,-0.01206 l 0.07062,-0.01033 0.08096,0.01895 q 0.01722,0.01722 0.04823,0.0069 0.03273,-0.01206 0.04306,-0.01206 l 0.06373,0.01206 0.175699,-0.0034 0.07752,0.01378 z"
       id="text7"
       style="font-size:3.52777px;font-family:'Bradley Hand ITC';-inkscape-font-specification:'Bradley Hand ITC, Normal';opacity:0.5;fill:#ffaa01;fill-rule:evenodd;stroke-width:0.165365"
       aria-label="OUT" />
    <ellipse
       style="opacity:0.5;fill:url(#linearGradient7-7);fill-opacity:1;fill-rule:evenodd;stroke-width:0.167545"
       id="path5-5"
       cx="5.0166616"
       cy="52.440952"
       rx="3.75"
       ry="3.8495197" />
    <circle
       style="opacity:0.5;fill:url(#linearGradient7-7-3);fill-opacity:1;fill-rule:evenodd;stroke-width:0.165365"
       id="path5-5-6"
       cx="20.143675"
       cy="52.440952"
       r="3.75" />
    <circle
       style="opacity:0.5;fill:url(#linearGradient7-7-2);fill-opacity:1;fill-rule:evenodd;stroke-width:0.165365"
       id="path5-5-2"
       cx="12.381129"
       cy="67.667488"
       r="3.75" />
    <circle
       style="opacity:0.5;fill:url(#linearGradient7-7-6);fill-opacity:1;fill-rule:evenodd;stroke-width:0.165365"
       id="path5-5-0"
       cx="12.779208"
       cy="37.612499"
       r="3.75" />
  </g>
  <g
     inkscape:groupmode="layer"
     id="layer2"
     inkscape:label="components">
    <circle
       style="fill:#ff0000;fill-opacity:1;fill-rule:evenodd;stroke-width:0.165365"
       id="path4"
       cx="12.838057"
       cy="37.469215"
       r="2.5"
       inkscape:label="PITCH" />
    <circle
       style="fill:#00ff00;fill-opacity:1;fill-rule:evenodd;stroke-width:0.165365"
       id="path3"
       cx="20.103004"
       cy="52.59623"
       r="2.5"
       inkscape:label="AM_IN" />
    <circle
       style="fill:#00ff00;fill-opacity:1;fill-rule:evenodd;stroke-width:0.165365"
       id="path2"
       cx="4.9262319"
       cy="52.446949"
       r="2.5"
       inkscape:label="FM_IN" />
    <circle
       style="fill:#0000ff;fill-opacity:1;fill-rule:evenodd;stroke-width:0.165365"
       id="path1"
       cx="12.39022"
       cy="67.623726"
       r="2.5"
       inkscape:label="FM_OUT" />
  </g>
</svg>
